<?xml version="1.0" standalone="no"?>
<!DOCTYPE svg PUBLIC "-//W3C//DTD SVG 20010904//EN"
 "http://www.w3.org/TR/2001/REC-SVG-20010904/DTD/svg10.dtd">
<svg version="1.0" xmlns="http://www.w3.org/2000/svg"
 width="2000.000000pt" height="2000.000000pt" viewBox="0 0 2000.000000 2000.000000"
 preserveAspectRatio="xMidYMid meet">

<g transform="translate(0.000000,2000.000000) scale(0.100000,-0.100000)"
fill="#000000" stroke="none">
<path d="M8525 16995 c-64 -132 -216 -449 -338 -704 l-222 -464 -175 -72 c-96
-39 -248 -106 -338 -150 -127 -61 -168 -86 -189 -114 -50 -67 -138 -153 -198
-196 -71 -51 -140 -87 -149 -78 -3 4 -6 0 -6 -7 0 -7 -3 -10 -6 -7 -4 4 -2 12
3 19 5 7 36 81 68 163 31 83 63 164 70 180 41 98 275 707 275 715 0 6 4 10 10
10 11 0 -8 58 -39 119 -12 23 -19 46 -16 51 3 6 0 10 -7 10 -8 0 -7 5 4 16 15
16 15 20 -10 56 l-26 40 -16 -34 c-9 -18 -138 -344 -285 -724 -238 -612 -272
-692 -294 -701 -28 -11 -222 -165 -312 -247 l-54 -49 51 36 c74 53 206 113
304 139 75 20 106 36 256 135 203 133 552 330 563 317 5 -5 16 -34 26 -64 27
-85 53 -130 74 -130 10 0 24 -7 31 -15 7 -8 16 -13 20 -10 6 4 288 -90 495
-165 44 -16 181 -63 305 -105 124 -43 229 -81 234 -85 9 -9 53 9 126 51 42 24
77 29 64 8 -11 -19 23 -7 59 20 l38 29 -88 32 c-48 17 -373 131 -722 251 -349
121 -641 224 -649 228 -11 6 -2 18 39 49 126 93 307 160 459 169 75 4 124 14
235 50 284 91 591 160 825 187 l105 12 50 -37 c53 -39 76 -42 185 -25 25 4
113 18 195 31 83 13 285 44 450 70 165 25 307 49 315 52 8 3 32 6 53 7 39 2
45 7 99 88 29 44 51 61 71 55 9 -2 46 59 47 76 0 5 -21 5 -47 2 -37 -6 -1123
-174 -1436 -223 -54 -9 -57 -8 -51 10 5 16 2 19 -13 15 -10 -3 -45 -8 -78 -12
-92 -10 -357 -60 -478 -90 -60 -14 -145 -44 -189 -66 -45 -21 -84 -36 -87 -33
-3 3 0 9 8 13 7 5 12 11 11 15 -4 12 22 66 31 66 5 0 8 4 6 8 -2 10 37 98 105
235 27 53 45 97 41 97 -4 0 -3 4 2 8 6 4 37 63 70 132 33 69 64 128 70 132 5
4 7 8 3 8 -4 0 15 44 41 98 26 53 65 134 86 180 l38 82 -27 69 c-20 51 -25 79
-21 104 5 25 1 43 -14 68 l-20 33 -116 -239z"/>
<path d="M5723 15809 c3 -35 22 -338 42 -674 20 -335 39 -623 41 -640 l4 -30
103 3 102 3 11 35 c6 19 7 34 2 34 -5 0 -6 5 -3 10 4 6 0 21 -7 33 -8 12 -15
45 -16 72 -2 28 -7 61 -12 75 -8 23 -21 176 -20 244 1 42 -40 628 -44 635 -2
3 0 15 4 25 8 24 -6 41 -82 103 -46 36 -55 49 -48 62 6 13 3 21 -13 31 -12 7
-33 20 -45 28 l-24 16 5 -65z"/>
<path d="M6174 14738 l-29 -33 33 29 c30 28 37 36 29 36 -2 0 -16 -15 -33 -32z"/>
<path d="M7500 14684 c-8 -1 -125 -19 -260 -39 -135 -21 -247 -39 -249 -41 -2
-1 13 -23 33 -47 47 -57 86 -145 106 -235 l15 -72 41 37 c23 21 40 43 37 49
-4 12 94 107 114 110 16 3 40 30 94 107 36 52 49 62 72 58 8 -1 47 58 47 72 0
7 -21 8 -50 1z"/>
<path d="M6855 14638 c-3 -12 -4 -194 -3 -403 3 -337 5 -380 19 -383 10 -2 25
14 42 47 15 30 20 48 12 45 -11 -4 -13 52 -14 305 -1 187 2 311 8 311 5 0 11
6 14 14 6 14 -20 48 -55 75 -15 11 -18 10 -23 -11z m70 -47 c3 -5 2 -12 -3
-15 -5 -3 -9 1 -9 9 0 17 3 19 12 6z"/>
<path d="M5590 14524 c0 -47 3 -55 35 -83 20 -17 37 -31 39 -31 11 0 -3 32
-21 52 -12 13 -28 43 -37 68 l-15 45 -1 -51z"/>
<path d="M6610 14549 c-25 -5 -151 -25 -280 -45 -129 -19 -242 -38 -250 -41
-9 -3 11 -14 48 -28 112 -41 208 -119 269 -217 20 -32 40 -58 45 -58 5 0 7 -3
4 -8 -2 -4 5 -34 16 -67 31 -92 33 -229 4 -325 -13 -41 -26 -82 -30 -90 -4
-11 5 -21 31 -35 21 -11 67 -49 103 -85 107 -107 160 -232 161 -380 l1 -75 34
40 c19 22 41 52 49 67 15 26 11 58 -6 58 -5 0 -8 3 -7 8 3 13 -14 62 -22 62
-4 0 -15 18 -25 40 -10 22 -24 45 -31 51 -8 6 -11 15 -8 20 3 5 1 9 -5 9 -5 0
-12 9 -16 20 -4 13 8 40 39 86 l45 67 -24 29 c-14 16 -25 39 -25 50 0 19 -4
20 -50 15 -47 -6 -50 -5 -51 16 0 12 -2 30 -4 41 -3 15 1 17 26 12 16 -3 43
-9 59 -12 22 -5 30 -3 30 8 0 8 11 25 25 38 19 18 22 26 14 37 -6 7 -14 11
-18 9 -3 -2 -19 13 -35 35 -17 21 -33 39 -38 39 -4 0 -8 6 -8 13 0 6 -14 25
-30 41 -17 16 -30 33 -30 38 0 4 -7 8 -15 8 -9 0 -19 8 -22 18 -4 9 -17 27
-30 40 -25 23 -23 28 5 13 16 -8 17 2 17 112 1 108 4 130 27 188 14 37 38 85
52 108 28 44 28 44 -44 30z m-123 -405 c-3 -3 -12 -4 -19 -1 -8 3 -5 6 6 6 11
1 17 -2 13 -5z"/>
<path d="M7348 13887 l-366 -120 -4 -45 c-2 -24 1 -46 6 -49 5 -4 6 -1 2 5 -4
7 -1 12 8 12 8 0 19 6 23 13 9 14 77 37 110 37 11 0 26 7 33 15 7 8 16 13 20
10 4 -3 21 2 36 10 16 8 37 15 46 15 9 0 20 5 23 10 4 6 10 8 15 5 5 -3 30 3
54 15 25 11 53 20 63 20 11 0 24 5 31 12 7 7 12 8 12 4 0 -5 6 -4 13 1 6 5 38
16 70 23 31 7 57 17 57 22 0 5 9 6 20 3 12 -4 20 -2 20 6 0 7 10 10 28 6 34
-7 44 -1 60 36 15 36 15 57 0 56 -7 -1 -178 -55 -380 -122z m362 49 c0 -2 -7
-7 -16 -10 -8 -3 -12 -2 -9 4 6 10 25 14 25 6z"/>
<path d="M6878 13606 c-32 -10 -35 -13 -24 -28 7 -10 16 -14 21 -10 4 4 4 -4
0 -17 -5 -16 -4 -21 4 -17 6 4 11 1 11 -8 0 -8 9 -20 20 -26 11 -6 19 -16 17
-23 -1 -6 8 -13 21 -15 12 -2 20 -8 17 -13 -4 -5 -2 -9 2 -9 5 0 19 -18 33
-40 14 -22 28 -40 32 -40 5 0 8 -6 8 -12 0 -7 14 -27 30 -45 17 -18 30 -37 30
-42 0 -6 5 -11 10 -11 6 0 10 -8 10 -17 0 -15 2 -16 10 -3 9 14 15 7 11 -14
-1 -4 12 -21 29 -37 16 -16 30 -33 30 -38 0 -5 18 -31 40 -57 22 -27 40 -55
40 -64 0 -21 61 -60 93 -60 15 0 27 3 27 6 0 5 -160 227 -367 512 -58 78 -108
142 -111 141 -4 -1 -24 -6 -44 -13z"/>
<path d="M2434 13590 c-33 -13 -82 -77 -90 -115 -19 -104 56 -195 160 -195 31
0 37 4 42 28 11 45 53 134 80 169 25 32 25 35 9 59 -36 55 -133 82 -201 54z"/>
<path d="M15044 13470 c-11 -4 -34 -24 -51 -44 -114 -129 35 -322 187 -244 59
30 90 77 90 137 0 95 -64 161 -154 160 -28 0 -60 -4 -72 -9z"/>
<path d="M2335 12729 c-22 -27 -28 -29 -66 -23 -35 6 -41 5 -34 -7 8 -14 -34
18 -46 34 -8 10 -81 -2 -77 -13 2 -5 138 -116 304 -248 166 -131 305 -245 309
-251 5 -9 13 -7 29 8 29 27 74 43 106 36 25 -5 29 0 68 77 48 98 111 173 184
219 l53 34 -105 6 c-113 7 -161 21 -257 74 -34 19 -64 31 -66 27 -3 -4 -8 -25
-12 -47 -4 -22 -9 -43 -12 -48 -2 -4 -23 9 -46 28 -57 49 -153 93 -237 109
l-70 14 -25 -29z m20 -9 c3 -5 -1 -10 -10 -10 -9 0 -13 5 -10 10 3 6 8 10 10
10 2 0 7 -4 10 -10z"/>
<path d="M2201 12744 c-1 -6 6 -17 14 -24 11 -9 15 -9 15 -1 0 7 5 9 13 5 8
-5 7 -2 -2 10 -10 12 -16 14 -21 5 -6 -8 -9 -8 -13 2 -3 8 -6 9 -6 3z"/>
<path d="M6410 12649 c-68 -34 -155 -53 -243 -54 -64 0 -67 -1 -45 -15 67 -44
128 -104 174 -171 28 -42 53 -81 55 -87 2 -7 14 -9 27 -5 13 3 21 11 18 18 -2
7 1 21 9 31 7 10 11 23 8 30 -4 12 85 107 125 134 30 19 92 76 92 83 0 4 -16
9 -37 13 -32 6 -34 8 -19 19 14 11 11 14 -28 24 -59 15 -71 13 -136 -20z"/>
<path d="M1407 12403 c-4 -20 -20 -53 -37 -74 l-31 -39 126 -62 c116 -58 144
-78 113 -78 -33 -1 -38 -16 -18 -55 11 -22 20 -59 20 -82 0 -24 4 -43 8 -43 4
0 61 18 126 40 l118 39 130 -65 c72 -36 134 -62 138 -57 4 4 31 36 59 70 l52
63 -84 41 -84 42 -38 111 c-21 61 -39 112 -40 114 -1 1 -22 -7 -46 -18 -24
-11 -63 -20 -86 -20 l-42 0 11 -31 c6 -16 8 -32 6 -35 -3 -2 -88 36 -189 86
-101 49 -189 90 -195 90 -6 0 -14 -16 -17 -37z"/>
<path d="M3911 12194 c-11 -8 -21 -12 -22 -7 0 4 -4 -2 -9 -14 -9 -22 -30 -32
-30 -14 0 5 -16 1 -35 -8 -19 -9 -32 -22 -30 -28 2 -7 -1 -13 -8 -13 -7 -1
-42 -16 -79 -34 -38 -18 -68 -28 -68 -23 0 5 -6 4 -13 -2 -8 -6 -18 -7 -23 -3
-4 4 -3 -1 4 -10 11 -14 10 -16 -7 -11 -14 3 -23 0 -27 -11 -3 -9 -10 -16 -14
-16 -16 0 -63 -20 -58 -25 2 -3 67 17 144 44 76 27 173 56 215 66 65 15 78 22
97 51 27 41 27 46 3 61 -15 9 -23 8 -40 -3z"/>
<path d="M2650 12181 c0 -6 0 -13 0 -16 0 -3 -8 -14 -17 -24 -30 -33 -43 -50
-43 -56 0 -11 -28 -35 -40 -35 -6 0 -17 -14 -24 -30 -7 -17 -15 -28 -18 -24
-10 10 -46 -15 -53 -36 -3 -11 -11 -20 -16 -20 -6 0 -28 -14 -49 -31 -21 -17
-44 -29 -52 -27 -7 3 -21 -6 -31 -19 -10 -13 -28 -23 -40 -23 -18 0 -19 -2 -7
-10 13 -8 13 -10 1 -10 -15 0 -83 -42 -109 -67 -7 -7 -17 -13 -22 -13 -5 0
-22 -12 -39 -26 -24 -20 -31 -34 -31 -60 l0 -34 253 168 c334 223 407 268 425
264 14 -3 14 -2 2 13 -8 10 -17 41 -20 69 -5 49 -6 51 -37 54 -19 2 -33 -1
-33 -7z"/>
<path d="M2726 11979 c-24 -77 -36 -139 -26 -139 4 0 7 -29 6 -64 0 -35 2 -62
7 -59 7 4 10 -35 9 -116 -1 -25 2 -50 6 -57 5 -8 50 17 144 79 76 51 137 96
138 100 0 5 -13 25 -30 45 -36 46 -87 157 -96 210 -6 39 -7 40 -53 45 -25 3
-55 8 -66 12 -17 5 -23 -3 -39 -56z"/>
<path d="M3415 11940 c-3 -6 1 -7 9 -4 18 7 21 14 7 14 -6 0 -13 -4 -16 -10z"/>
<path d="M5520 11801 c0 -5 5 -13 10 -16 6 -4 7 -12 4 -18 -4 -7 -4 -9 1 -5 4
4 17 3 29 -3 18 -9 19 -8 6 3 -8 7 -23 21 -32 31 -10 10 -18 14 -18 8z"/>
<path d="M5056 11732 c-2 -4 4 -8 14 -8 10 0 16 4 14 8 -3 4 -9 8 -14 8 -5 0
-11 -4 -14 -8z"/>
<path d="M5580 11727 c0 -7 8 -22 18 -33 30 -34 53 -82 42 -89 -6 -4 -4 -19 4
-43 8 -20 18 -55 22 -77 4 -22 8 -43 9 -47 2 -5 3 -11 4 -15 2 -11 30 41 46
87 l14 39 -60 78 c-34 43 -67 82 -75 86 -8 5 -12 12 -9 18 4 5 1 9 -4 9 -6 0
-11 -6 -11 -13z"/>
<path d="M2067 11723 c-4 -3 -7 -11 -7 -17 0 -6 5 -5 12 2 6 6 9 14 7 17 -3 3
-9 2 -12 -2z"/>
<path d="M5075 11700 c-2 -3 0 -11 4 -18 5 -8 10 -6 18 7 9 14 8 18 -3 18 -8
0 -17 -3 -19 -7z"/>
<path d="M5098 11664 c-3 -3 3 -28 14 -57 38 -98 59 -192 65 -300 4 -71 10
-107 17 -105 136 42 155 51 121 64 -24 10 -88 106 -89 135 -1 15 -4 25 -8 22
-5 -2 -9 4 -10 14 -2 32 -3 38 -10 48 -3 6 -9 25 -13 43 -3 18 -11 30 -16 26
-5 -3 -9 1 -9 9 0 8 -8 18 -17 21 -14 6 -15 9 -4 15 11 7 9 13 -8 30 -11 11
-21 24 -20 27 1 9 -7 15 -13 8z"/>
<path d="M5605 11630 c-3 -6 1 -7 9 -4 18 7 21 14 7 14 -6 0 -13 -4 -16 -10z"/>
<path d="M7428 11335 c-1 -36 -2 -65 -1 -65 18 0 114 53 107 58 -26 23 -93 72
-97 72 -3 0 -7 -29 -9 -65z"/>
<path d="M17345 9168 c-345 -175 -819 -192 -1143 -43 -41 19 -79 35 -83 35 -5
0 -39 -21 -76 -46 -98 -66 -234 -129 -343 -160 -52 -15 -102 -33 -111 -41 -18
-15 -83 -132 -77 -138 1 -2 23 1 48 6 25 5 56 11 70 13 57 9 120 28 200 60 47
19 110 44 140 56 79 31 161 39 296 30 47 -4 60 -8 56 -18 -4 -12 -1 -12 16 -3
14 7 23 8 27 1 3 -5 12 -10 18 -9 9 0 8 2 -1 6 -6 2 -10 8 -7 13 8 13 -94 98
-152 127 -29 14 -53 27 -53 28 0 9 92 -20 134 -43 142 -76 312 -333 267 -404
-6 -10 -9 -23 -6 -29 4 -5 1 -8 -7 -7 -7 2 -12 -5 -12 -14 1 -10 -2 -18 -8
-18 -5 0 -6 -4 -3 -10 3 -5 1 -10 -6 -10 -7 0 -10 -3 -6 -6 8 -8 62 35 62 49
0 7 5 12 12 12 6 0 15 3 19 8 4 4 17 7 30 7 57 0 56 15 -1 21 -55 5 -57 6 -28
13 18 5 30 13 27 18 -4 5 -15 7 -26 5 -19 -5 -19 -5 -1 15 10 12 12 18 5 14
-15 -9 -43 23 -35 39 4 5 3 7 -2 3 -4 -4 -14 0 -20 9 -11 15 -5 26 43 81 30
34 58 59 61 55 7 -10 27 -11 36 -2 9 9 45 -1 45 -13 0 -5 14 -8 31 -6 25 2 35
-3 48 -22 9 -13 12 -21 6 -18 -5 3 -11 -5 -11 -18 -2 -23 -1 -24 12 -7 13 17
14 17 7 -2 -3 -11 -14 -31 -23 -45 -9 -14 -21 -38 -28 -53 -7 -16 -21 -31 -32
-34 -32 -8 -23 -19 24 -30 l44 -10 8 61 c4 34 8 66 9 71 3 22 67 136 94 168
47 53 67 43 27 -12 -35 -49 -68 -110 -81 -150 -7 -22 -5 -23 21 -16 26 7 51
11 77 14 5 1 5 6 1 13 -5 8 -2 9 10 5 10 -4 26 -7 36 -7 15 0 25 -17 44 -82
44 -146 74 -268 66 -268 -8 0 -24 30 -22 41 0 3 -6 6 -14 6 -19 0 -18 -7 6
-32 32 -35 89 -155 102 -217 11 -51 14 -57 34 -52 11 3 38 -1 58 -10 l37 -15
20 47 c24 55 20 71 -42 192 -21 41 -49 99 -63 128 -14 29 -32 55 -41 59 -13 4
-14 8 -4 14 10 6 11 19 3 58 -9 44 -8 50 8 54 10 3 18 13 18 22 0 9 -4 13 -10
10 -17 -10 -11 7 7 20 33 24 24 57 -28 106 -27 25 -52 43 -55 40 -4 -3 -1 4 7
16 7 12 18 21 23 20 6 -1 11 3 11 8 5 33 45 71 82 77 5 0 17 11 28 23 11 13
37 30 58 39 20 8 37 20 37 26 0 6 4 9 9 6 7 -4 24 84 18 90 -1 1 -38 -16 -82
-38z"/>
<path d="M14757 9000 c-73 -76 -182 -137 -286 -160 -59 -14 -65 -22 -97 -137
l-16 -60 103 -136 c64 -83 106 -131 111 -124 4 6 3 14 -3 18 -6 4 -6 14 1 30
16 37 40 75 40 66 0 -10 30 18 30 28 0 3 -5 3 -11 0 -6 -4 -5 2 2 13 7 11 19
18 26 15 7 -3 13 0 13 6 0 6 7 11 15 11 8 0 16 5 16 10 1 6 2 14 3 18 2 16 34
42 51 42 9 0 14 4 11 9 -4 5 4 7 16 4 13 -3 20 -2 16 2 -13 13 31 43 86 59 63
17 176 29 176 18 0 -5 55 -7 123 -5 67 3 145 5 173 6 50 1 51 2 43 24 -5 13
-24 47 -42 76 -32 50 -33 53 -13 55 17 1 18 -1 6 -8 -9 -6 -10 -10 -3 -10 18
0 24 16 10 28 -6 5 -39 13 -72 17 -151 18 -266 52 -382 115 -41 22 -75 40 -76
39 -1 0 -32 -31 -70 -69z m-57 -404 c0 -3 -4 -8 -10 -11 -5 -3 -10 -1 -10 4 0
6 5 11 10 11 6 0 10 -2 10 -4z"/>
<path d="M12791 8883 c-8 -3 -64 -16 -125 -27 l-111 -22 -3 -56 -3 -56 43 10
c24 5 51 14 62 19 13 7 16 7 11 0 -9 -15 8 -14 23 1 9 9 12 9 12 -2 0 -7 3
-11 6 -7 4 3 34 -13 68 -35 106 -72 645 -458 789 -565 76 -57 141 -103 143
-103 2 0 4 28 4 63 0 130 48 256 140 366 44 52 47 59 25 51 -33 -13 -38 -12
-30 0 8 13 -1 13 -25 -2 -15 -10 -22 -9 -38 6 -16 13 -21 14 -26 4 -3 -7 -4
-4 -3 7 1 11 6 23 11 27 6 4 4 13 -3 22 -9 10 -10 16 -3 16 6 0 9 7 6 15 -5
11 -2 13 12 8 11 -4 15 -3 10 5 -3 6 -2 13 4 17 5 3 10 11 10 17 0 6 -6 6 -15
-2 -13 -11 -14 -10 -9 4 3 9 10 16 16 16 5 0 16 6 23 14 12 12 8 20 -29 54
-70 65 -75 66 -161 37 -229 -77 -552 -44 -748 76 -47 29 -60 32 -86 22z"/>
<path d="M14111 8798 c-6 -17 -6 -28 0 -28 5 0 9 5 9 11 0 5 4 8 9 4 6 -3 13
1 18 8 4 8 15 16 23 19 8 3 1 7 -17 10 -28 4 -34 1 -42 -24z"/>
<path d="M16873 8733 c4 -3 2 -12 -4 -20 -9 -9 -8 -13 0 -13 6 0 11 2 11 4 0
2 3 11 6 20 4 10 1 16 -7 16 -7 0 -9 -3 -6 -7z"/>
<path d="M16855 8641 c-3 -5 -2 -12 3 -15 5 -3 9 1 9 9 0 17 -3 19 -12 6z"/>
<path d="M17790 8409 c-129 -87 -279 -186 -332 -220 -85 -53 -96 -63 -88 -79
6 -10 10 -36 10 -58 0 -42 11 -52 54 -52 22 0 46 33 46 62 0 6 7 18 15 27 53
57 89 91 98 91 5 0 7 7 3 15 -3 9 0 15 9 15 8 0 15 5 15 10 0 6 5 10 11 10 7
0 18 8 26 18 8 9 12 11 8 5 -10 -21 4 -15 38 17 18 16 36 30 40 30 14 0 57 37
52 44 -3 3 -2 4 1 2 3 -2 22 7 41 20 20 13 41 24 48 24 7 0 30 16 51 35 42 37
53 41 72 25 6 -6 10 -7 7 -4 -2 4 2 16 10 28 15 21 21 97 8 95 -5 -1 -114 -72
-243 -160z"/>
<path d="M16441 8434 c0 -11 3 -14 6 -6 3 7 2 16 -1 19 -3 4 -6 -2 -5 -13z"/>
<path d="M14606 8385 c-11 -8 -15 -15 -9 -15 6 0 16 7 23 15 16 19 11 19 -14
0z"/>
<path d="M6842 8300 c33 -33 62 -60 64 -60 13 0 -39 86 -58 96 -63 32 -64 23
-6 -36z"/>
<path d="M14595 8350 c3 -5 8 -10 11 -10 2 0 4 5 4 10 0 6 -5 10 -11 10 -5 0
-7 -4 -4 -10z"/>
<path d="M17990 8262 c0 -4 -22 -33 -50 -64 -27 -31 -50 -59 -50 -63 0 -3 37
-24 83 -45 l82 -39 38 -115 c21 -64 39 -116 41 -116 1 0 19 9 41 20 23 12 59
20 87 20 l47 0 -14 39 -13 39 195 -95 c200 -97 212 -100 213 -52 0 10 15 40
34 67 l33 50 -131 62 c-127 61 -130 63 -101 73 17 5 31 10 32 11 1 1 -6 20
-17 42 -11 22 -21 59 -23 82 -1 23 -7 42 -13 42 -6 0 -61 -18 -123 -40 l-112
-40 -129 65 c-128 64 -150 73 -150 57z"/>
<path d="M14761 8124 c0 -11 3 -14 6 -6 3 7 2 16 -1 19 -3 4 -6 -2 -5 -13z"/>
<path d="M13699 8015 c-6 -62 -4 -165 3 -165 4 0 5 -6 2 -13 -4 -12 42 -247
51 -255 2 -2 27 1 55 7 28 6 80 11 116 11 l66 0 -62 47 c-58 43 -133 132 -166
195 -7 14 -25 64 -38 110 -14 46 -26 74 -27 63z"/>
<path d="M17330 7953 c-26 -18 -46 -24 -78 -22 l-43 3 -23 -55 c-38 -95 -121
-194 -221 -265 l-29 -20 37 4 c58 7 191 -15 259 -43 35 -14 89 -46 120 -70 32
-25 58 -40 58 -35 0 6 7 10 16 10 14 0 15 2 3 17 -10 11 -10 14 -1 9 7 -4 12
-2 12 4 0 6 4 9 9 6 5 -3 11 0 14 7 4 12 -69 104 -77 96 -3 -2 -11 -29 -19
-59 -10 -38 -15 -47 -16 -28 -1 15 -5 29 -11 33 -5 3 -6 13 -3 22 4 9 2 14 -3
11 -8 -5 -9 15 -5 74 1 11 7 15 23 10 14 -3 19 -2 14 6 -4 7 -2 12 4 12 10 0
68 37 80 51 11 13 60 19 60 8 0 -7 3 -9 6 -6 4 4 15 -3 25 -15 11 -11 19 -16
19 -9 0 7 9 3 22 -8 11 -11 25 -18 30 -15 4 3 8 2 8 -3 0 -4 13 -14 29 -21 16
-7 31 -22 34 -32 3 -12 24 -28 51 -40 26 -11 49 -26 52 -35 4 -8 10 -15 16
-15 5 0 26 -16 46 -35 20 -19 45 -35 54 -35 9 0 18 -4 20 -10 4 -11 64 2 61
14 -1 4 -117 99 -258 211 -141 112 -279 224 -308 248 l-52 44 -35 -24z m390
-333 c0 -5 -4 -10 -10 -10 -5 0 -10 5 -10 10 0 6 5 10 10 10 6 0 10 -4 10 -10z"/>
<path d="M5220 7408 c37 -128 86 -304 111 -391 42 -153 44 -158 69 -155 14 1
30 -1 36 -4 7 -5 9 3 6 22 -2 17 -8 28 -12 25 -9 -5 -22 26 -19 41 4 16 -13
89 -28 117 -7 15 -11 32 -8 38 4 5 2 15 -3 22 -6 7 -12 26 -14 42 -2 17 -6 32
-9 35 -3 3 -10 23 -16 45 -6 22 -22 78 -36 125 -14 46 -23 88 -21 92 3 5 0 8
-7 8 -7 0 -9 10 -6 26 3 15 1 39 -3 55 -5 16 -4 29 1 31 12 4 -51 45 -82 53
l-26 6 67 -233z"/>
<path d="M13391 7519 c-13 -18 -17 -28 -10 -23 8 5 20 9 27 10 20 3 42 25 36
35 -10 17 -30 9 -53 -22z"/>
<path d="M17534 7449 c3 -17 6 -38 6 -45 0 -20 13 -17 40 9 14 12 26 21 28 19
2 -2 5 -2 8 0 2 2 -17 14 -43 27 l-46 22 7 -32z"/>
<path d="M5843 7027 c-276 -186 -330 -225 -322 -239 5 -9 10 -28 11 -41 l2
-25 31 25 c16 15 29 30 27 35 -1 5 2 7 8 3 5 -3 13 1 16 9 3 9 12 16 20 16 8
0 14 5 14 10 0 6 6 10 13 10 7 0 30 15 50 34 20 18 37 31 37 29 0 -3 12 3 28
13 15 10 39 24 55 32 15 7 27 18 27 23 0 5 7 9 15 9 8 0 15 5 15 10 0 6 6 10
13 10 7 0 30 15 50 34 20 18 37 31 37 29 0 -3 12 3 28 13 15 10 39 24 55 32
15 7 27 18 27 23 0 5 7 9 15 9 8 0 15 4 15 9 0 5 12 11 28 13 25 3 27 7 30 51
2 26 -1 47 -5 46 -4 0 -157 -100 -340 -222z"/>
<path d="M12700 7225 c0 -2 105 -150 233 -327 185 -256 238 -322 253 -319 10
2 39 5 64 6 32 2 44 7 42 17 -4 16 7 6 22 -21 6 -10 20 -30 30 -45 21 -29 39
-106 25 -106 -5 0 -9 -6 -9 -14 0 -15 -40 -61 -60 -68 -10 -3 -9 -10 5 -31 9
-15 21 -24 26 -21 8 4 13 -8 11 -27 -1 -3 10 -12 24 -19 13 -8 23 -21 22 -29
-2 -9 3 -15 10 -14 6 2 12 -4 12 -12 0 -8 15 -30 34 -49 26 -27 35 -47 40 -88
4 -29 12 -73 19 -98 l12 -45 7 40 c4 25 5 15 2 -28 -10 -151 -94 -308 -212
-399 l-63 -48 -42 29 c-23 16 -63 51 -88 78 -87 93 -130 180 -151 309 l-13 75
-60 -39 c-93 -60 -179 -146 -172 -171 3 -12 0 -27 -7 -34 -7 -7 -15 -17 -17
-22 -21 -51 -58 -95 -82 -101 -22 -4 -33 -17 -48 -51 -11 -25 -18 -47 -17 -48
2 -1 91 11 198 26 263 37 248 38 288 -20 90 -133 259 -162 357 -62 17 17 36
31 43 31 6 0 12 4 12 8 0 9 43 64 81 104 15 15 25 29 23 31 -23 22 139 56 175
37 9 -5 68 -27 131 -50 63 -23 118 -44 122 -47 5 -2 1 -17 -7 -34 -16 -30 -9
-59 18 -76 7 -4 26 -26 43 -48 16 -22 34 -46 41 -52 18 -20 41 -101 52 -183
14 -105 35 -440 28 -446 -3 -4 -2 -17 3 -30 5 -13 10 -55 11 -94 2 -77 5 -82
81 -144 26 -21 47 -41 46 -44 -5 -20 17 -53 46 -70 l34 -20 -4 66 c-28 443
-55 893 -60 999 l-7 133 34 -12 c36 -12 139 -112 139 -134 0 -7 25 -61 55
-121 57 -114 112 -190 157 -217 15 -9 34 -24 43 -33 24 -24 35 -5 42 74 l6 70
-36 22 c-60 37 -144 137 -181 214 -42 89 -56 154 -56 261 0 73 -3 85 -22 103
-38 34 -44 34 -125 6 -109 -37 -254 -39 -361 -4 -170 56 -305 189 -364 359
-32 95 -32 260 0 347 36 96 36 92 8 99 -35 9 -152 120 -192 183 -44 68 -81
182 -87 266 -2 37 -6 70 -9 73 -7 7 -71 -72 -92 -114 -14 -27 -20 -31 -32 -21
-8 6 -14 8 -14 3 0 -5 -5 -2 -11 6 -8 12 -9 11 -7 -5 2 -12 -2 -19 -9 -17 -7
1 -13 -4 -13 -12 0 -7 -7 -19 -15 -26 -11 -9 -15 -9 -15 -1 0 8 -4 8 -14 -1
-10 -10 -11 -15 -2 -21 6 -6 3 -6 -8 -3 -11 4 -23 1 -28 -6 -7 -10 -11 -9 -22
4 -7 10 -16 15 -19 11 -4 -3 -7 1 -7 10 0 8 -9 18 -19 22 -10 3 -29 21 -42 40
-13 18 -27 32 -30 29 -12 -7 -38 37 -32 52 3 8 0 14 -7 14 -17 0 -38 24 -45
53 -5 17 -12 24 -21 20 -8 -3 -14 1 -14 10 0 8 -13 29 -29 46 -15 16 -24 32
-18 34 6 2 7 9 3 15 -7 11 -96 18 -96 7z"/>
<path d="M17563 6908 c-6 -7 -18 -37 -28 -67 -9 -29 -42 -89 -71 -134 l-54
-80 22 -24 c16 -17 24 -20 29 -11 4 7 6 15 3 19 -6 11 38 4 63 -9 30 -17 108
-15 142 3 117 60 118 229 2 290 -43 22 -96 28 -108 13z"/>
<path d="M4510 6825 c-18 -19 -30 -38 -26 -42 4 -4 143 -13 309 -20 166 -6
343 -14 392 -16 l90 -6 16 38 c13 30 13 38 3 38 -7 0 -10 -5 -7 -10 4 -6 -11
-8 -40 -5 -26 3 -45 3 -43 -1 2 -3 -16 -4 -40 -2 -24 1 -44 8 -44 13 0 7 -35
9 -97 6 -75 -4 -373 5 -470 14 -6 1 -9 7 -6 15 8 21 -1 16 -37 -22z"/>
<path d="M5478 6632 c-30 -18 -38 -38 -12 -28 8 3 12 2 9 -4 -6 -9 8 -15 29
-11 5 1 6 -6 2 -15 -5 -12 -2 -15 9 -10 9 3 18 -1 21 -9 4 -8 12 -15 20 -15 7
0 21 -13 31 -30 9 -16 24 -30 33 -30 21 -1 50 -25 64 -51 6 -13 26 -27 43 -31
18 -5 40 -20 49 -33 9 -14 23 -25 30 -25 8 0 14 -4 14 -10 0 -5 7 -10 15 -10
8 0 20 -9 27 -20 7 -11 16 -20 19 -20 7 0 41 -27 97 -77 14 -13 31 -23 38 -23
18 0 27 -17 13 -26 -8 -5 -9 -3 -4 6 5 8 4 11 -3 6 -15 -9 -5 -33 13 -33 8 0
11 5 8 11 -4 6 0 6 8 -1 11 -9 25 -10 52 -2 20 5 37 12 37 14 0 2 -59 50 -131
107 -73 57 -173 135 -223 175 -163 129 -272 213 -277 212 -2 0 -16 -8 -31 -17z
m237 -212 c3 -5 1 -10 -4 -10 -6 0 -11 5 -11 10 0 6 2 10 4 10 3 0 8 -4 11
-10z"/>
<path d="M5320 6615 c0 -8 -6 -14 -12 -12 -7 1 -12 -4 -10 -10 1 -7 -4 -13
-12 -13 -9 0 -12 -7 -9 -20 4 -14 1 -20 -8 -18 -9 2 -14 -6 -13 -24 0 -16 -5
-28 -13 -28 -7 0 -10 -6 -6 -16 3 -8 -4 -28 -15 -44 -19 -25 -20 -29 -5 -32
15 -3 15 -4 0 -20 -17 -17 -60 -127 -72 -185 -4 -18 -10 -33 -14 -33 -4 0 -20
-38 -36 -85 -16 -50 -32 -82 -38 -78 -6 4 -8 0 -4 -10 3 -9 2 -30 -3 -46 -7
-24 -4 -36 10 -53 10 -13 21 -21 24 -18 3 3 66 172 141 374 106 286 133 371
123 377 -19 13 -28 11 -28 -6z"/>
<path d="M13110 6510 c-8 -11 -27 -22 -42 -25 -15 -4 -28 -11 -28 -17 0 -6 -6
-8 -14 -5 -7 3 -17 2 -22 -2 -5 -5 -49 -21 -99 -37 -49 -15 -92 -31 -95 -34
-3 -3 -25 -11 -50 -17 -103 -26 -136 -36 -152 -44 -10 -5 -25 -9 -33 -9 -8 0
-15 -4 -15 -9 0 -5 -12 -11 -27 -14 -68 -13 -88 -19 -91 -28 -2 -5 -15 -9 -28
-9 -17 0 -23 4 -18 12 4 6 3 8 -4 5 -12 -8 -44 -97 -34 -96 4 0 176 55 382
123 l375 122 7 49 c4 27 6 50 4 52 -1 1 -8 -6 -16 -17z"/>
<path d="M13196 6314 c-4 -15 -13 -32 -20 -39 -14 -14 -10 -71 5 -81 12 -7 12
-511 0 -518 -9 -6 -7 -38 4 -71 6 -16 5 -17 -4 -5 -9 13 -11 13 -11 -2 0 -14
56 -68 71 -68 2 0 4 182 4 405 l0 405 -21 0 c-15 0 -24 -8 -28 -26z m-2 -674
c-6 -6 -10 -3 -10 10 0 13 4 16 10 10 7 -7 7 -13 0 -20z"/>
<path d="M13880 5425 c-117 -119 -269 -203 -434 -240 -59 -14 -95 -33 -255
-139 -177 -117 -254 -163 -454 -270 -61 -33 -88 -43 -91 -34 -17 54 -59 158
-69 170 -7 8 -39 25 -72 36 -33 12 -258 89 -500 173 -242 83 -442 155 -445
159 -3 4 -15 6 -27 5 -13 -1 -23 3 -23 8 0 5 -7 7 -15 4 -8 -4 -17 -2 -20 3
-11 18 -44 11 -108 -22 -34 -18 -78 -32 -97 -33 -19 0 -48 -9 -63 -19 l-28
-19 31 -13 c17 -7 344 -122 728 -255 383 -132 701 -245 705 -249 11 -9 -140
-111 -208 -140 -95 -41 -219 -71 -315 -76 -76 -5 -126 -16 -250 -56 -271 -87
-550 -149 -797 -179 l-101 -12 -39 30 c-51 40 -89 60 -77 41 6 -11 5 -11 -9 1
-13 10 -17 10 -17 1 0 -10 -3 -10 -14 -1 -8 7 -15 8 -18 2 -1 -5 -28 -12 -58
-15 -30 -4 -93 -13 -140 -21 -81 -14 -138 -23 -610 -95 -113 -17 -213 -35
-223 -41 -11 -6 -17 -6 -17 1 0 13 -21 9 -38 -8 -8 -7 -17 -10 -22 -7 -5 3
-26 -20 -47 -51 -47 -70 -74 -96 -90 -90 -12 5 -43 -41 -43 -63 0 -5 15 -8 33
-5 64 9 1443 224 1474 229 28 5 32 3 26 -11 -6 -15 1 -16 68 -10 190 19 577
104 659 146 30 15 71 34 91 43 l36 15 -11 -32 c-6 -17 -19 -42 -28 -56 -9 -14
-26 -47 -39 -75 -12 -27 -30 -66 -40 -85 -9 -19 -103 -214 -208 -434 -186
-387 -191 -400 -181 -437 6 -21 19 -57 30 -80 10 -24 16 -48 12 -54 -13 -21
-11 -46 7 -76 l19 -30 79 163 c44 90 196 407 338 704 l259 541 50 18 c97 34
311 127 466 201 l155 75 58 74 c65 85 161 166 260 220 l68 37 -7 -28 c-7 -30
-13 -46 -132 -349 -38 -99 -89 -229 -112 -290 -24 -60 -48 -123 -55 -140 -7
-16 -32 -79 -55 -140 -23 -60 -46 -114 -50 -119 -5 -5 -6 -15 -3 -24 4 -10 2
-13 -5 -8 -14 8 6 -51 38 -114 24 -48 34 -83 19 -75 -18 12 -9 -32 14 -63 l23
-31 86 217 c47 119 175 447 284 728 110 281 204 510 209 508 22 -8 505 391
505 417 0 14 -2 13 -70 -56z"/>
<path d="M10556 1534 c-4 -10 -2 -22 4 -28 19 -19 10 -33 -31 -45 -43 -13 -49
-38 -8 -33 13 2 57 6 97 9 84 6 100 28 28 38 -41 7 -44 9 -42 38 1 26 -3 33
-20 35 -13 2 -24 -4 -28 -14z"/>
<path d="M10560 1403 c-30 -7 -71 -26 -90 -41 -50 -40 -90 -123 -90 -188 0
-49 2 -53 32 -63 114 -40 353 -10 433 54 28 21 28 23 16 68 -20 68 -64 122
-124 151 -69 32 -110 37 -177 19z m25 -128 c39 -38 32 -86 -16 -110 -46 -24
-99 7 -99 59 0 36 7 48 35 64 31 18 54 14 80 -13z m189 -18 c8 -23 6 -31 -12
-49 -18 -18 -26 -20 -48 -13 -59 22 -43 99 19 93 24 -2 34 -10 41 -31z"/>
<path d="M10776 1411 c-3 -4 6 -19 21 -32 14 -13 38 -40 53 -61 17 -24 31 -34
39 -28 10 6 10 14 -3 38 -15 30 -15 32 4 42 11 6 20 17 20 26 0 22 -31 30 -45
11 -15 -21 -29 -21 -45 -2 -14 17 -36 20 -44 6z"/>
<path d="M11131 1392 c-17 -17 -30 -43 -34 -69 -6 -33 -12 -42 -30 -45 -18 -2
-23 -10 -25 -40 -3 -35 -1 -38 22 -38 l25 0 3 -107 3 -108 40 0 40 0 3 107 3
107 42 3 c41 3 42 4 42 38 0 34 -1 35 -42 38 -40 3 -43 5 -43 33 0 30 8 34 63
30 25 -2 27 1 27 32 0 40 -11 47 -72 47 -30 0 -46 -7 -67 -28z"/>
<path d="M12440 1400 c-34 -34 -17 -80 30 -80 51 0 72 55 32 88 -22 17 -39 15
-62 -8z"/>
<path d="M12562 1198 l3 -213 38 -3 37 -3 0 58 0 57 58 -57 c52 -51 62 -57
100 -57 23 0 42 3 42 6 0 3 -29 38 -65 78 l-64 72 64 64 c36 36 65 68 65 72 0
4 -18 8 -41 8 -36 0 -49 -7 -98 -52 l-56 -51 -3 116 -3 117 -40 0 -39 0 2
-212z"/>
<path d="M7370 1309 l0 -70 -26 20 c-51 40 -132 20 -170 -43 -24 -40 -24 -129
-1 -173 31 -58 116 -82 167 -46 17 12 25 13 28 5 2 -7 15 -12 28 -12 l24 0 0
195 0 195 -25 0 c-24 0 -25 -2 -25 -71z m-34 -85 l34 -16 0 -78 0 -78 -34 -16
c-42 -20 -50 -20 -85 -1 -47 24 -63 92 -35 150 25 52 64 65 120 39z"/>
<path d="M9330 1308 c0 -70 0 -71 -19 -54 -29 26 -91 31 -130 11 -66 -33 -91
-162 -46 -231 35 -54 130 -70 176 -28 17 16 19 16 19 1 0 -11 8 -17 25 -17
l25 0 0 195 0 195 -25 0 c-24 0 -25 -2 -25 -72z m-18 -95 c26 -23 26 -143 1
-166 -44 -39 -111 -28 -138 22 -29 57 -10 141 38 161 29 12 76 4 99 -17z"/>
<path d="M9590 1185 c0 -188 1 -195 20 -195 11 0 20 7 20 15 0 11 7 10 35 -7
104 -61 212 42 183 176 -19 88 -109 131 -183 88 l-35 -21 0 69 c0 63 -2 70
-20 70 -19 0 -20 -7 -20 -195z m181 26 c25 -25 29 -37 29 -81 0 -44 -4 -56
-30 -82 -26 -25 -36 -29 -62 -24 -64 13 -78 30 -78 95 0 76 6 90 44 107 46 20
65 17 97 -15z"/>
<path d="M10377 1352 c-22 -21 -29 -24 -36 -14 -12 20 -46 10 -46 -13 0 -13 8
-21 23 -23 20 -3 23 -8 17 -30 -11 -44 -11 -46 8 -50 11 -2 17 3 17 14 0 10
14 42 31 72 35 62 27 86 -14 44z"/>
<path d="M8064 1356 c-10 -26 4 -48 28 -44 17 2 23 10 23 28 0 18 -6 26 -23
28 -13 2 -25 -3 -28 -12z"/>
<path d="M7553 1264 c-47 -23 -75 -74 -75 -134 0 -88 60 -150 145 -150 45 0
107 26 107 46 0 22 -18 26 -49 9 -47 -24 -88 -19 -122 14 -52 53 -43 60 84 63
l112 3 -4 35 c-10 104 -106 159 -198 114z m108 -34 c16 -9 49 -58 49 -75 0 -3
-40 -5 -90 -5 -81 0 -90 2 -90 19 0 49 81 87 131 61z"/>
<path d="M7844 1270 c-28 -11 -54 -48 -54 -75 0 -37 24 -57 96 -80 55 -18 70
-27 72 -44 2 -12 -2 -29 -8 -37 -17 -20 -79 -17 -116 5 -29 18 -31 18 -42 1
-18 -30 29 -55 105 -55 75 0 113 27 113 82 0 42 -26 69 -82 83 -24 6 -53 15
-65 20 -25 10 -30 39 -11 58 17 17 79 15 106 -4 23 -16 42 -12 42 10 0 33
-105 57 -156 36z"/>
<path d="M8245 1270 c-47 -19 -69 -58 -73 -128 -3 -58 0 -72 20 -102 15 -22
38 -40 64 -49 38 -13 45 -13 85 7 23 12 45 20 47 17 2 -2 1 -17 -3 -34 -14
-65 -89 -90 -152 -51 -32 19 -33 19 -43 1 -8 -15 -5 -22 15 -35 60 -39 166
-28 205 21 18 23 20 40 20 189 0 157 -1 164 -20 164 -11 0 -20 -7 -20 -15 0
-12 -6 -11 -32 5 -34 21 -78 25 -113 10z m94 -41 c41 -14 51 -35 51 -103 0
-47 -4 -57 -26 -75 -16 -13 -41 -21 -65 -21 -52 0 -79 35 -79 102 0 41 5 54
29 79 32 32 43 34 90 18z"/>
<path d="M8587 1261 c-29 -15 -37 -16 -37 -5 0 8 -10 14 -25 14 l-25 0 0 -140
0 -140 25 0 c24 0 24 1 27 108 l3 107 36 19 c40 22 83 17 94 -11 3 -10 6 -64
6 -120 l-1 -103 25 0 25 0 0 120 c0 115 -1 122 -25 145 -30 31 -76 33 -128 6z"/>
<path d="M8873 1264 c-47 -23 -75 -74 -75 -134 0 -88 60 -150 145 -150 45 0
107 26 107 46 0 22 -18 26 -49 9 -47 -24 -88 -19 -122 14 -52 53 -43 60 84 63
l112 3 -4 35 c-10 104 -106 159 -198 114z m108 -34 c16 -9 49 -58 49 -75 0 -3
-40 -5 -90 -5 -81 0 -90 2 -90 19 0 49 81 87 131 61z"/>
<path d="M11294 1267 c-2 -7 -3 -74 -2 -148 l3 -134 38 -3 37 -3 0 88 c0 99
14 133 55 133 26 0 71 52 60 70 -9 15 -68 12 -93 -6 -20 -14 -22 -14 -22 0 0
20 -68 22 -76 3z"/>
<path d="M11543 1260 c-39 -23 -59 -54 -68 -101 -9 -51 9 -110 45 -144 29 -28
37 -30 104 -30 53 0 79 5 100 19 l28 18 -25 25 c-20 21 -28 23 -45 14 -32 -17
-87 -13 -105 7 -10 10 -17 22 -17 25 0 4 45 7 100 7 l100 0 0 35 c0 48 -31
106 -68 128 -40 23 -109 22 -149 -3z m125 -77 l14 -23 -61 0 c-63 0 -72 7 -45
35 23 22 73 16 92 -12z"/>
<path d="M11851 1262 c-94 -52 -95 -213 0 -264 42 -22 119 -23 165 -2 40 19
41 24 10 53 -20 19 -28 21 -44 12 -34 -18 -80 -13 -104 12 l-23 22 103 3 c80
2 104 6 109 18 10 26 -18 101 -48 130 -38 36 -118 44 -168 16z m113 -68 c27
-27 18 -34 -45 -34 -61 0 -63 2 -36 38 13 17 62 15 81 -4z"/>
<path d="M12100 1069 l0 -210 38 3 37 3 3 68 c3 62 12 81 27 57 3 -5 29 -10
57 -10 45 0 54 4 88 38 64 63 66 154 7 219 -26 27 -42 36 -78 40 -27 3 -55 0
-69 -7 -16 -9 -25 -9 -33 -1 -6 6 -26 11 -44 11 l-33 0 0 -211z m174 130 c50
-23 57 -103 13 -134 -63 -44 -137 23 -107 95 10 24 39 47 62 49 4 1 18 -4 32
-10z"/>
<path d="M12434 1267 c-2 -7 -3 -74 -2 -148 l3 -134 38 -3 37 -3 0 150 0 151
-35 0 c-20 0 -38 -6 -41 -13z"/>
<path d="M8060 1130 l0 -140 25 0 25 0 0 140 0 140 -25 0 -25 0 0 -140z"/>
<path d="M9870 1265 c0 -3 25 -65 55 -138 56 -132 61 -161 33 -194 -6 -7 -21
-13 -33 -13 -24 0 -41 -35 -23 -46 18 -12 78 7 93 29 12 19 155 354 155 364 0
3 -12 3 -26 1 -24 -3 -31 -15 -67 -105 -22 -57 -44 -103 -48 -103 -4 0 -26 47
-49 105 -37 92 -45 105 -66 105 -13 0 -24 -2 -24 -5z"/>
<path d="M10804 1113 c-74 -34 -153 -45 -281 -41 -62 2 -113 0 -113 -3 0 -13
83 -81 116 -95 47 -20 150 -17 199 5 44 20 110 87 126 128 5 14 8 27 7 28 -2
1 -26 -9 -54 -22z"/>
</g>
</svg>
