<?xml version="1.0" ?><svg viewBox="0 0 303.88 376.83" xmlns="http://www.w3.org/2000/svg"><defs><style>.cls-1{fill:none;stroke:#050505;stroke-miterlimit:10;stroke-width:10px;}</style></defs><title/><g data-name="Layer 2" id="Layer_2"><g data-name="Layer 1" id="Layer_1-2"><circle class="cls-1" cx="151.94" cy="224.89" r="114.82"/><path class="cls-1" d="M23.65,296.6a146.37,146.37,0,1,0-9.66-21"/><line class="cls-1" x1="151.94" x2="151.94" y1="110.07" y2="133.47"/><line class="cls-1" x1="151.94" x2="151.94" y1="316.31" y2="339.71"/><line class="cls-1" x1="266.76" x2="243.36" y1="224.89" y2="224.89"/><line class="cls-1" x1="60.51" x2="37.12" y1="224.89" y2="224.89"/><line class="cls-1" x1="233.13" x2="216.59" y1="306.08" y2="289.54"/><line class="cls-1" x1="87.29" x2="70.75" y1="160.24" y2="143.7"/><line class="cls-1" x1="70.75" x2="87.29" y1="306.08" y2="289.54"/><line class="cls-1" x1="216.59" x2="233.13" y1="160.24" y2="143.7"/><circle class="cls-1" cx="151.94" cy="224.89" r="16.8"/><polyline class="cls-1" points="138.58 76.55 138.58 48.08 165.3 48.08 165.3 76.55"/><rect class="cls-1" height="43.08" rx="12.93" ry="12.93" width="136.27" x="83.8" y="5"/><line class="cls-1" x1="116.17" x2="116.17" y1="5" y2="48.08"/><line class="cls-1" x1="151.94" x2="151.94" y1="5" y2="48.08"/><line class="cls-1" x1="187.71" x2="187.71" y1="5" y2="48.08"/><line class="cls-1" x1="151.94" x2="151.94" y1="173.46" y2="208.09"/><path class="cls-1" d="M124.14,172.24h-.53a30.53,30.53,0,0,0-30.53,30.53h0"/></g></g></svg>