<?xml version="1.0" standalone="no"?>
<!DOCTYPE svg PUBLIC "-//W3C//DTD SVG 20010904//EN"
 "http://www.w3.org/TR/2001/REC-SVG-20010904/DTD/svg10.dtd">
<svg version="1.0" xmlns="http://www.w3.org/2000/svg"
 width="7801.000000pt" height="3001.000000pt" viewBox="0 0 7801.000000 3001.000000"
 preserveAspectRatio="xMidYMid meet">

<g transform="translate(0.000000,3001.000000) scale(0.100000,-0.100000)"
fill="#000000" stroke="none">
<path d="M18635 25346 c16 -11 17 -17 7 -29 -17 -20 0 -30 24 -13 10 8 25 12
34 9 8 -3 -5 7 -29 21 -46 28 -67 35 -36 12z m35 -20 c0 -2 -8 -10 -17 -17
-16 -13 -17 -12 -4 4 13 16 21 21 21 13z"/>
<path d="M18736 25291 c-4 -7 -5 -15 -2 -18 9 -9 19 4 14 18 -4 11 -6 11 -12
0z"/>
<path d="M18724 25239 c0 -13 3 -15 13 -7 7 6 13 12 13 13 0 2 -6 5 -13 8 -7
3 -13 -3 -13 -14z"/>
<path d="M18811 25236 c-8 -10 -9 -16 -1 -21 6 -4 9 -1 8 6 -2 6 3 14 11 17 9
3 11 0 6 -8 -5 -9 -4 -11 3 -6 19 11 23 -30 20 -189 -3 -137 -5 -150 -21 -149
-14 2 -15 -1 -6 -12 8 -9 8 -14 1 -14 -6 0 -14 5 -17 10 -3 6 -14 10 -24 10
-10 0 -26 11 -35 25 -9 14 -22 25 -29 25 -6 0 -4 -5 6 -11 9 -5 17 -15 17 -20
0 -6 -6 -7 -12 -2 -7 4 -21 9 -31 10 -11 2 -28 10 -39 17 -11 8 -27 12 -34 9
-8 -3 -14 0 -14 7 0 6 -4 9 -10 5 -5 -3 -74 12 -154 34 -441 121 -886 191
-1401 222 -250 15 -802 6 -1010 -16 -541 -56 -1020 -156 -1555 -322 -80 -25
-160 -49 -178 -55 -189 -55 -710 -260 -1077 -425 -523 -235 -666 -317 -1058
-601 -303 -222 -704 -542 -834 -669 -18 -17 -33 -28 -33 -25 0 9 -25 -18 -26
-29 -1 -5 -2 -14 -3 -20 0 -5 -5 -7 -11 -4 -5 3 -10 1 -10 -5 0 -6 -4 -9 -9
-5 -6 3 -23 -8 -40 -24 -22 -22 -27 -31 -18 -40 9 -9 8 -11 -7 -5 -34 13 -38
-19 -37 -254 2 -199 0 -224 -13 -219 -13 5 -14 3 -4 -13 12 -19 13 -19 38 3
35 31 39 38 33 56 -4 13 -3 14 5 2 9 -12 13 -13 27 -1 9 7 14 19 11 26 -3 8 2
11 12 10 9 -2 26 6 37 18 11 11 18 20 16 19 -5 -3 -30 29 -31 40 0 4 5 7 10 7
6 0 9 -3 8 -7 -2 -5 2 -8 7 -8 6 0 9 4 7 8 -1 5 2 6 8 2 6 -3 8 -11 5 -16 -11
-17 12 -9 36 12 13 11 18 17 11 14 -11 -6 -12 -3 -3 14 7 11 14 21 17 21 3 0
2 -4 -1 -10 -9 -15 21 -12 34 3 6 8 7 17 3 21 -4 4 0 6 8 4 8 -2 14 3 12 10
-1 6 4 11 10 10 7 -2 12 2 11 9 -2 8 4 10 14 6 12 -5 15 -2 10 10 -4 10 -2 14
7 11 7 -3 32 12 57 34 153 132 552 435 789 598 1125 777 2318 1310 3586 1603
405 93 659 132 999 151 387 23 795 -14 1135 -100 207 -53 447 -137 484 -169
10 -9 19 -14 20 -12 0 2 11 1 24 -3 12 -4 20 -11 17 -16 -3 -5 4 -7 15 -5 11
2 23 -2 27 -10 5 -7 11 -14 16 -14 43 -3 63 -18 58 -44 -1 -5 3 -6 9 -2 6 3 7
11 4 17 -5 7 -2 8 7 3 27 -16 48 -38 44 -46 -3 -4 0 -11 6 -15 8 -4 9 -3 5 4
-4 7 -1 12 8 12 9 0 16 -5 16 -11 0 -5 4 -8 9 -5 5 3 19 -3 32 -13 13 -10 27
-18 31 -17 3 0 10 -3 15 -8 5 -5 3 -6 -4 -2 -9 5 -13 1 -13 -12 0 -15 6 -19
33 -17 20 2 43 -5 58 -16 16 -13 19 -19 9 -19 -13 0 -13 -1 0 -10 8 -5 23 -10
33 -10 25 0 62 -37 63 -62 1 -21 1 -21 -12 -3 -7 10 -11 22 -8 26 5 9 -10 13
-35 10 -7 -2 -10 2 -6 9 5 9 1 10 -15 5 -15 -5 -20 -4 -16 4 7 10 -7 16 -28
12 -5 -1 -4 4 2 12 18 21 -5 34 -55 32 -24 -1 -48 3 -55 8 -9 6 -8 7 5 3 19
-6 23 9 5 20 -6 4 -14 2 -16 -4 -2 -7 -15 -10 -30 -7 -24 5 -23 3 6 -10 l32
-15 0 -162 c0 -139 2 -164 17 -182 13 -15 9 -14 -11 4 -17 15 -25 18 -20 9 13
-25 168 -126 183 -121 8 3 11 0 7 -6 -8 -13 28 -35 39 -24 5 4 5 2 2 -4 -6
-10 81 -91 93 -87 3 1 8 -7 12 -18 4 -10 12 -19 18 -19 6 0 8 5 4 12 -4 7 -3
8 5 4 6 -4 9 -11 7 -15 -3 -4 14 -30 37 -57 205 -241 325 -495 398 -848 15
-76 30 -141 33 -143 8 -9 21 299 20 492 -2 349 -44 621 -136 890 -41 120 -135
308 -150 299 -7 -5 -8 -3 -3 5 17 29 -212 320 -239 304 -6 -3 -8 -2 -4 2 5 5
-11 27 -35 49 -52 49 -92 82 -93 76 0 -3 -9 2 -19 10 -16 13 -18 13 -13 0 3
-8 13 -14 23 -13 12 1 14 -2 7 -9 -15 -15 -42 -2 -42 20 0 11 -8 26 -17 33
-16 12 -17 12 -6 -1 6 -8 13 -26 15 -40 2 -21 8 -25 35 -25 17 0 29 -3 27 -7
-3 -4 3 -5 12 -1 13 5 15 3 9 -7 -6 -9 -4 -11 6 -5 8 5 10 4 6 0 -10 -12 -37
-15 -37 -5 0 5 -15 10 -32 12 -28 2 -34 8 -39 33 -3 17 -11 29 -18 27 -6 -1
-22 4 -34 13 -28 20 -41 19 -33 -2 4 -10 4 -14 -1 -10 -11 12 -14 79 -2 72 5
-4 9 -1 9 5 0 7 -6 10 -14 7 -7 -3 -20 3 -29 14 -20 23 -31 24 -46 5z m174
-185 c-6 -5 -25 10 -25 20 0 5 6 4 14 -3 8 -7 12 -15 11 -17z m-85 -171 c11
-7 9 -11 -13 -19 -35 -14 -47 -14 -27 -1 13 9 13 10 0 10 -13 0 -13 1 0 10 19
12 21 12 40 0z m53 -6 c3 -4 -1 -13 -9 -22 -11 -11 -18 -12 -27 -3 -8 8 -7 11
7 11 9 0 14 5 11 10 -7 11 8 14 18 4z m138 -73 c4 0 6 -13 6 -28 0 -16 -2 -22
-4 -15 -3 6 -11 12 -19 12 -17 0 -19 17 -1 23 9 4 9 6 0 6 -6 1 -15 -3 -18 -9
-3 -5 -12 -10 -18 -10 -7 0 -6 4 3 11 11 8 8 9 -15 5 -22 -5 -26 -4 -15 3 12
9 42 9 81 2z m-116 -221 c3 -5 1 -10 -4 -10 -6 0 -11 5 -11 10 0 6 2 10 4 10
3 0 8 -4 11 -10z m122 -65 c10 -2 19 -4 21 -4 2 -1 0 -6 -3 -12 -5 -7 -14 -5
-30 5 -14 9 -26 11 -32 5 -8 -8 -10 13 -4 41 1 3 8 -3 15 -13 8 -10 23 -20 33
-22z m-152 -232 c-2 -7 0 -13 6 -13 6 0 7 -4 4 -10 -6 -10 6 -14 36 -11 8 1
23 -7 33 -17 15 -17 15 -20 2 -25 -9 -4 -15 -1 -13 6 1 7 -4 11 -11 9 -8 -1
-11 2 -6 9 5 9 2 10 -10 6 -10 -4 -24 1 -34 11 -10 10 -26 22 -36 25 -9 4 -14
11 -11 17 3 5 2 10 -3 10 -6 0 -12 7 -15 15 -5 11 0 11 28 -3 19 -9 33 -23 30
-29z m-7563 -1420 c2 -126 0 -164 -10 -168 -7 -3 -10 0 -7 5 4 6 7 106 7 223
1 229 6 201 10 -60z m-36 233 c-3 -23 -27 -45 -42 -39 -7 3 -11 10 -8 15 4 6
9 6 14 -2 6 -9 10 -9 16 1 5 8 9 17 10 22 3 14 4 17 8 17 2 0 3 -6 2 -14z
m-70 -100 c0 -18 -6 -22 -27 -22 -16 0 -26 3 -23 7 2 5 11 6 18 3 8 -3 17 0
22 7 4 8 3 10 -4 5 -13 -8 -35 2 -28 13 2 3 13 7 23 8 13 1 19 -5 19 -21z
m-91 -86 c-12 -14 -15 -52 -15 -223 0 -145 -3 -208 -12 -213 -6 -4 -8 -3 -5 3
4 6 7 112 7 236 1 124 4 228 7 231 3 3 12 1 20 -6 11 -9 11 -14 -2 -28z"/>
<path d="M11171 22924 c0 -11 3 -14 6 -6 3 7 2 16 -1 19 -3 4 -6 -2 -5 -13z"/>
<path d="M18915 25190 c-3 -5 -11 -8 -16 -5 -22 14 -6 -6 20 -24 23 -17 30
-18 34 -7 7 18 -28 52 -38 36z m29 -29 c-4 -3 -9 0 -11 7 -3 6 -10 9 -15 6 -7
-4 -8 -2 -4 5 6 9 11 9 22 0 8 -6 12 -15 8 -18z"/>
<path d="M18780 24960 c0 -5 5 -10 11 -10 5 0 7 5 4 10 -3 6 -8 10 -11 10 -2
0 -4 -4 -4 -10z"/>
<path d="M18678 24935 c13 -9 26 -14 29 -11 8 8 3 12 -27 21 l-25 7 23 -17z"/>
<path d="M18760 24935 c7 -8 17 -15 22 -15 6 0 5 7 -2 15 -7 8 -17 15 -22 15
-6 0 -5 -7 2 -15z"/>
<path d="M18745 24770 c-4 -6 -3 -16 3 -22 6 -6 12 -6 17 2 4 6 3 16 -3 22 -6
6 -12 6 -17 -2z"/>
<path d="M18615 24470 c-3 -5 -2 -10 4 -10 5 0 13 5 16 10 3 6 2 10 -4 10 -5
0 -13 -4 -16 -10z"/>
<path d="M18607 24433 c3 -7 6 -13 8 -13 1 0 7 6 13 13 8 10 6 13 -7 13 -11 0
-17 -6 -14 -13z"/>
<path d="M18694 24388 c-4 -7 -2 -8 4 -4 7 4 12 3 12 -2 0 -6 11 -9 24 -8 14
0 22 4 17 9 -13 13 -50 16 -57 5z"/>
<path d="M18776 24379 c4 -6 1 -15 -6 -19 -7 -4 -8 -10 -3 -13 5 -3 14 3 21
13 9 14 8 19 -4 24 -9 4 -12 2 -8 -5z"/>
<path d="M11076 22851 c-3 -5 2 -15 12 -22 15 -12 16 -12 5 2 -7 9 -10 19 -6
22 3 4 4 7 0 7 -3 0 -8 -4 -11 -9z"/>
<path d="M43797 22835 c-606 -74 -1158 -363 -1701 -895 -271 -265 -447 -487
-751 -945 -191 -288 -390 -609 -542 -875 -382 -666 -862 -1656 -1353 -2790
-68 -157 -127 -289 -131 -294 -4 -4 -25 5 -46 22 -119 95 -390 238 -578 305
-311 112 -588 154 -930 144 -499 -16 -951 -144 -1528 -433 -449 -225 -914
-552 -1264 -888 -63 -59 -83 -74 -83 -59 0 11 9 100 20 199 33 303 43 496 43
829 0 616 -56 1082 -203 1673 -102 413 -215 741 -376 1098 -93 205 -141 297
-271 515 -289 483 -623 865 -1079 1231 -130 104 -373 278 -389 278 -3 0 -13 7
-22 15 -8 8 -18 13 -23 10 -4 -3 -11 2 -14 11 -4 9 -9 14 -13 11 -3 -4 -19 4
-34 18 -16 13 -38 22 -48 20 -13 -2 -18 1 -15 9 3 8 -2 16 -11 20 -9 3 -13 2
-10 -4 8 -13 -5 -13 -25 0 -13 8 -13 10 0 10 10 0 8 4 -6 14 -11 8 -33 13 -47
12 -22 -3 -25 -1 -16 11 10 11 8 12 -6 7 -12 -5 -16 -4 -12 3 4 6 0 14 -9 17
-12 5 -15 2 -10 -9 3 -9 2 -14 -3 -10 -5 3 -12 -1 -15 -7 -3 -7 -3 1 0 17 5
28 4 29 -9 12 -10 -12 -17 -14 -22 -8 -3 6 -1 11 4 11 6 0 11 5 11 11 0 6 -9
9 -20 6 -11 -3 -18 -1 -15 4 3 4 -12 17 -35 29 -22 11 -40 16 -40 11 0 -6 -7
-8 -15 -5 -8 4 -13 10 -10 14 3 5 0 12 -6 16 -8 4 -9 3 -5 -4 4 -7 3 -12 -3
-12 -5 0 -15 8 -20 18 -6 9 -11 13 -11 7 0 -5 -5 -3 -10 5 -7 11 -9 9 -8 -10
1 -14 6 -31 11 -37 6 -9 5 -13 -3 -13 -8 0 -10 -3 -7 -6 4 -4 17 0 30 9 44 28
48 13 50 -169 2 -149 4 -169 18 -168 11 1 15 -5 12 -17 -4 -12 2 -18 19 -21
12 -2 22 -9 21 -15 -2 -7 11 -21 27 -33 17 -12 30 -17 30 -12 0 6 6 12 14 15
9 4 13 0 12 -11 -2 -9 -6 -15 -11 -14 -4 2 -11 -2 -15 -8 -4 -7 -13 -9 -19 -6
-6 4 -8 12 -5 18 5 8 1 9 -10 5 -9 -4 -14 -3 -11 2 3 5 -4 16 -15 24 -11 7
-17 17 -13 20 3 4 -1 7 -11 7 -9 0 -19 6 -22 14 -3 8 -13 12 -22 9 -15 -4 -15
-3 -2 7 12 9 11 10 -9 5 -14 -4 -21 -3 -18 2 4 5 -7 10 -22 10 l-29 0 21 -18
c12 -9 28 -14 36 -11 9 3 12 1 8 -5 -4 -6 18 -27 51 -49 31 -21 60 -42 63 -47
4 -6 16 -7 28 -4 12 3 24 1 27 -4 3 -5 2 -9 -3 -8 -20 3 -25 -2 -13 -16 10
-12 16 -13 28 -3 10 8 13 9 9 2 -4 -7 0 -15 9 -18 9 -3 12 -11 8 -18 -4 -7 -4
-10 1 -6 4 4 19 -7 32 -23 17 -19 31 -28 42 -24 8 3 12 3 9 -1 -10 -10 72 -85
84 -78 6 4 8 2 5 -3 -8 -13 26 -45 44 -41 9 2 13 -4 11 -14 -2 -10 1 -18 6
-18 6 0 43 -35 83 -77 127 -132 164 -168 172 -165 5 1 6 -2 2 -7 -3 -6 23 -45
58 -88 92 -114 196 -263 272 -388 59 -97 277 -523 281 -550 1 -5 16 -46 34
-90 182 -456 316 -1029 372 -1590 20 -202 17 -845 -5 -1075 -79 -819 -263
-1620 -579 -2510 -596 -1682 -1709 -3137 -3308 -4327 -686 -510 -1357 -915
-2029 -1223 -517 -236 -1115 -423 -1621 -504 -237 -39 -417 -55 -755 -67 -462
-17 -609 0 -925 108 -319 109 -476 180 -646 292 -511 339 -839 869 -1009 1626
-42 187 -82 498 -99 770 -2 33 -2 -172 0 -455 4 -635 24 -897 90 -1215 175
-831 530 -1389 1099 -1729 274 -163 593 -266 995 -321 161 -22 599 -31 797
-16 656 51 1304 221 2018 531 158 69 575 277 746 373 635 356 1299 813 1859
1281 200 168 314 270 534 480 99 94 184 170 188 168 5 -1 7 2 4 6 -7 11 28 44
37 37 4 -3 5 -2 2 2 -3 3 2 15 11 25 14 15 20 16 33 5 14 -10 14 -10 4 4 -11
13 -10 19 5 33 10 9 22 13 26 9 4 -5 6 -3 4 4 -4 15 101 135 112 128 5 -3 12
0 16 6 5 8 3 9 -7 4 -12 -8 -12 -6 -1 8 8 9 19 15 25 14 7 -1 11 4 9 12 -4 18
58 82 71 74 6 -3 7 -1 3 5 -6 11 12 34 104 133 19 21 50 58 69 83 19 26 38 43
45 39 6 -3 8 -3 4 2 -13 14 51 85 70 79 15 -5 15 -4 2 5 -13 10 -12 14 9 31
13 11 20 20 16 20 -5 0 0 9 10 20 10 11 22 17 28 13 5 -3 8 -2 4 3 -3 5 6 23
20 39 l26 30 -17 -30 -17 -30 20 24 c12 12 18 27 15 33 -3 5 5 22 18 36 13 15
32 39 41 55 10 15 23 27 30 27 6 0 4 -5 -5 -11 -23 -13 -23 -36 0 -48 17 -9
18 -5 18 42 l-1 52 38 1 c22 0 41 -4 43 -10 7 -21 9 -1364 2 -1359 -5 2 -8 -1
-8 -7 0 -7 7 -10 15 -6 8 3 15 3 15 0 0 -3 -13 -10 -30 -15 -16 -6 -32 -19
-35 -29 -4 -12 -12 -17 -23 -14 -13 5 -14 4 -3 -4 9 -7 10 -12 2 -16 -6 -4
-14 -1 -16 6 -3 8 -4 311 -3 674 2 532 1 658 -10 648 -10 -10 -13 -156 -15
-667 -1 -361 1 -653 6 -650 4 2 7 0 7 -6 0 -14 -21 -25 -29 -15 -3 5 -13 10
-21 12 -11 2 -10 -2 4 -12 10 -9 15 -20 10 -27 -4 -8 -3 -10 5 -5 8 6 10 -1 6
-25 l-6 -33 23 29 c13 16 23 34 23 40 1 5 7 9 14 7 7 -1 10 2 7 6 -3 5 3 17
14 27 11 10 20 14 20 10 0 -9 95 86 95 95 0 3 14 19 30 36 78 81 105 112 105
123 0 7 5 9 10 6 6 -4 9 -1 8 7 -2 7 3 12 11 10 9 -2 12 4 8 17 -3 11 1 26 9
32 12 10 13 8 8 -7 -4 -14 1 -11 20 9 15 16 24 33 21 38 -4 5 0 9 8 9 8 0 22
10 33 22 10 12 14 19 8 15 -6 -3 -11 0 -11 7 0 8 8 11 19 8 11 -2 18 1 18 9 0
8 9 20 20 27 27 16 41 54 26 65 -7 6 -4 7 7 3 13 -4 29 7 56 36 l39 41 7 -41
c10 -60 14 -91 21 -142 3 -25 10 -63 15 -85 5 -22 12 -51 14 -65 3 -14 7 -36
10 -50 3 -14 6 -31 7 -37 1 -7 4 -13 8 -13 3 0 12 6 20 13 8 6 6 2 -4 -10 -12
-15 -16 -28 -11 -40 5 -10 10 -27 12 -38 8 -45 64 -215 71 -215 4 0 8 -10 8
-23 1 -12 11 -42 22 -67 11 -25 39 -89 62 -143 23 -53 46 -100 51 -103 5 -2
17 -24 27 -47 69 -156 273 -428 462 -617 335 -336 696 -564 1126 -713 358
-124 710 -175 1133 -164 555 14 1034 124 1528 350 234 107 536 290 742 450
l85 65 105 -107 c391 -398 834 -615 1422 -696 162 -22 535 -31 695 -16 486 46
974 209 1453 485 226 130 365 228 539 379 l103 89 37 -44 c392 -469 968 -778
1675 -899 402 -68 942 -77 1377 -23 709 89 1370 345 1888 732 l73 54 97 -95
c167 -164 322 -275 532 -381 269 -137 550 -216 888 -252 194 -21 541 -14 727
15 205 31 439 86 431 100 -2 3 10 7 28 8 30 1 114 26 181 54 17 7 38 14 48 16
10 1 32 11 50 20 18 9 41 18 52 20 10 2 22 7 25 11 3 4 13 8 22 10 34 5 158
69 151 77 -5 4 -3 5 4 1 12 -6 155 60 161 76 2 4 8 6 13 2 5 -3 9 -1 9 4 0 5
18 9 40 9 22 0 40 -3 40 -7 0 -5 7 -11 16 -14 12 -5 14 -3 8 7 -5 7 -1 5 8 -5
9 -11 21 -19 25 -20 4 0 25 -9 45 -19 21 -10 45 -20 55 -22 10 -1 24 -6 31
-10 6 -5 17 -5 22 -2 6 3 10 1 10 -5 0 -7 5 -6 14 2 8 7 12 16 10 20 -2 3 5 4
16 1 14 -4 20 0 20 11 0 9 -3 15 -7 15 -5 -1 -18 -1 -30 0 l-23 1 0 481 c0
380 3 480 13 476 6 -2 11 -9 10 -14 -1 -5 12 -10 30 -11 17 -2 39 -10 48 -18
10 -9 23 -13 30 -8 7 4 10 3 5 -4 -3 -6 -15 -10 -26 -9 -10 1 -16 5 -13 11 4
5 1 6 -7 1 -8 -5 -11 -4 -7 2 3 5 0 10 -8 10 -8 0 -12 -4 -9 -9 3 -4 1 -8 -5
-8 -5 0 -13 5 -16 10 -4 6 -11 8 -16 4 -16 -10 0 -22 26 -19 14 1 28 -1 30 -5
3 -4 22 -6 42 -5 l38 2 -3 -480 c-2 -337 -6 -484 -14 -494 -13 -16 -11 -18 21
-28 16 -5 21 -4 17 4 -12 19 -7 903 5 918 14 16 33 18 23 2 -4 -7 1 -7 16 1
15 8 20 8 16 1 -4 -6 0 -11 9 -11 9 0 14 4 11 8 -2 4 0 14 6 22 8 12 9 12 4
-2 -3 -10 -1 -20 4 -23 6 -4 10 2 10 11 0 16 1 16 16 -2 8 -10 12 -13 9 -6 -6
11 -3 12 13 3 14 -7 19 -17 15 -29 -4 -14 -2 -13 10 3 l16 20 1 -20 c0 -15 2
-17 9 -6 5 7 14 10 21 6 9 -6 9 -9 -1 -16 -10 -6 -10 -9 -2 -9 6 0 14 4 17 9
4 5 27 2 53 -6 27 -8 56 -15 66 -15 9 1 17 -4 17 -10 0 -5 6 -8 13 -5 8 3 43
-1 78 -9 94 -20 233 -29 414 -28 183 2 294 21 465 80 58 20 113 36 122 37 9 1
14 5 12 9 -3 4 1 8 8 8 18 0 261 124 316 161 23 16 45 29 48 29 3 0 -12 -29
-32 -66 -20 -36 -34 -67 -31 -70 3 -3 19 2 36 10 34 18 200 60 208 53 2 -3
-52 -118 -121 -256 -70 -138 -123 -251 -119 -251 5 0 32 9 62 20 87 34 261 58
536 75 411 25 535 46 627 104 68 43 115 109 218 308 781 1501 1600 2689 2425
3519 525 528 1029 950 1327 1109 l81 43 54 127 c70 166 138 362 164 472 17 70
20 112 17 208 -4 173 -23 194 -144 169 -124 -25 -148 -43 -519 -380 -328 -297
-603 -543 -775 -694 -335 -293 -488 -445 -748 -737 -79 -90 -146 -163 -149
-163 -2 0 1 9 7 20 6 11 9 20 7 20 -7 0 -306 -394 -414 -545 -438 -613 -976
-1508 -1373 -2283 -92 -181 -159 -246 -291 -281 -91 -25 -293 -47 -549 -61
-230 -13 -375 -32 -479 -65 -41 -13 -77 -23 -79 -21 -2 2 58 127 134 277 75
151 174 352 220 448 l84 173 -68 -63 c-37 -35 -110 -100 -162 -144 -53 -44
-124 -111 -160 -148 -217 -230 -483 -391 -731 -443 -119 -25 -371 -24 -489 3
-71 15 -166 47 -172 57 -4 6 -8 7 -8 2 0 -4 -11 -1 -25 8 -14 9 -25 14 -25 11
0 -8 -83 37 -92 50 -4 6 -12 10 -17 10 -5 0 -21 10 -34 22 -14 12 -29 18 -33
15 -4 -4 -4 1 -1 10 4 12 2 15 -7 12 -21 -8 -28 12 -9 27 14 12 16 12 8 -1 -4
-8 -4 -12 0 -7 5 4 18 -1 29 -10 15 -14 18 -14 8 -2 -6 9 -10 19 -7 22 3 4 2
5 -2 2 -3 -3 -11 -1 -17 4 -6 5 -52 27 -101 49 -172 75 -305 165 -445 299
l-75 71 -40 -30 c-70 -53 -216 -150 -352 -234 -108 -66 -130 -83 -120 -95 10
-11 9 -11 -4 -1 -13 10 -23 10 -43 1 -14 -7 -23 -16 -19 -22 3 -6 1 -7 -5 -3
-6 3 -51 -13 -99 -37 -48 -24 -115 -55 -148 -67 -33 -13 -63 -29 -67 -34 -4
-6 -8 -8 -8 -4 0 4 -44 -8 -97 -27 -250 -85 -476 -120 -723 -112 -424 15 -712
127 -947 370 -105 109 -152 175 -223 317 -120 240 -192 554 -208 910 l-7 145
-84 -123 c-106 -156 -295 -410 -425 -572 -236 -294 -529 -554 -809 -719 -497
-291 -1073 -426 -1742 -407 -721 20 -1207 209 -1529 595 -210 251 -354 555
-407 859 -35 196 -36 514 -3 792 5 40 -5 25 -96 -140 -238 -435 -301 -524
-647 -927 -417 -486 -547 -603 -878 -793 -388 -224 -803 -350 -1148 -350 -312
0 -576 53 -782 156 -233 116 -464 357 -547 570 -49 128 -92 366 -104 577 -10
193 13 697 42 902 5 35 -2 27 -56 -69 -307 -546 -636 -994 -971 -1321 -487
-476 -982 -730 -1609 -826 -122 -19 -187 -23 -405 -23 -242 0 -269 2 -400 28
-412 80 -743 260 -1031 559 -196 203 -334 454 -409 743 -89 342 -92 784 -10
1270 125 737 482 1589 978 2334 670 1005 1398 1641 2282 1993 279 111 481 156
740 164 271 8 449 -29 669 -139 161 -80 245 -147 339 -270 136 -178 174 -318
156 -572 -19 -268 -88 -516 -219 -781 -219 -447 -560 -843 -1088 -1266 -260
-208 -454 -328 -740 -459 -573 -260 -1381 -490 -1724 -490 l-67 0 -29 -77
c-104 -273 -179 -579 -217 -896 -33 -266 -36 -669 -6 -837 84 -486 326 -783
706 -866 105 -23 351 -23 490 0 404 66 767 242 1142 553 125 103 391 374 515
523 427 514 864 1256 1238 2100 45 102 99 217 120 256 21 40 50 114 65 165
390 1368 954 2830 1766 4584 178 385 540 1112 690 1385 139 255 407 702 576
962 309 477 508 726 760 954 376 339 752 514 1108 514 176 0 275 -39 390 -155
133 -134 233 -368 256 -600 42 -429 -83 -997 -365 -1658 -268 -627 -714 -1524
-1091 -2192 -489 -867 -1051 -1705 -1621 -2415 -356 -445 -632 -751 -1073
-1189 l-355 -355 -118 -350 c-309 -921 -398 -1276 -429 -1723 -26 -383 36
-692 200 -991 47 -86 162 -207 243 -255 210 -125 524 -125 816 1 292 126 581
382 868 768 278 374 728 1103 1076 1744 120 221 189 351 293 555 121 234 169
315 223 373 16 17 85 143 151 279 296 602 580 1050 942 1488 116 141 463 484
594 589 484 385 989 601 1538 657 178 17 551 7 694 -20 367 -69 588 -205 773
-476 152 -223 212 -462 190 -754 -27 -354 -170 -652 -445 -926 -187 -187 -334
-297 -454 -340 -68 -23 -204 -21 -273 5 -58 21 -168 96 -168 113 0 5 33 51 73
101 240 301 443 634 528 868 63 171 83 279 82 438 -1 219 -41 346 -140 442
-210 204 -669 139 -1118 -160 -171 -114 -343 -262 -550 -473 -207 -212 -337
-365 -544 -639 -294 -390 -428 -603 -626 -995 -361 -714 -564 -1294 -646
-1845 -26 -173 -36 -520 -20 -685 24 -249 95 -522 182 -701 218 -446 567 -631
1121 -594 327 22 566 85 853 225 395 192 736 494 1089 965 289 385 546 765
695 1028 43 75 60 120 91 240 71 274 153 502 302 842 332 753 718 1356 1227
1915 230 252 574 566 816 744 33 25 62 47 65 51 3 3 38 28 78 55 39 26 72 53
72 57 0 5 4 7 8 4 5 -3 21 6 37 20 15 13 33 24 39 24 6 0 22 10 36 21 14 11
19 17 11 13 -9 -4 -12 -3 -7 4 4 6 13 9 20 6 7 -3 19 3 27 12 12 15 12 17 0 9
-10 -5 -12 -4 -7 4 4 6 12 9 17 6 14 -10 50 5 43 17 -4 7 -2 8 4 4 15 -9 52
11 52 29 0 7 4 17 10 20 6 4 7 -1 3 -11 -5 -14 -3 -15 15 -5 27 14 30 46 5 37
-11 -4 -8 2 7 14 14 11 30 20 35 20 7 0 7 -3 0 -8 -13 -9 -18 -42 -7 -42 5 0
26 11 46 25 20 13 36 22 36 20 0 -3 20 7 45 21 25 13 45 22 45 19 0 -3 11 2
25 11 14 9 22 21 18 28 -4 6 0 5 9 -2 14 -11 22 -11 48 3 l31 16 -3 124 c-2
68 1 123 6 122 4 -1 10 7 12 19 2 13 -2 21 -12 21 -8 0 -13 -6 -10 -12 2 -6
-5 -17 -16 -24 -11 -7 -17 -8 -13 -2 3 6 0 11 -7 11 -7 0 -1 8 12 17 14 10 29
18 34 18 5 0 11 6 14 14 4 11 0 12 -14 6 -11 -4 -40 -12 -66 -18 -27 -5 -48
-14 -48 -19 0 -5 -4 -6 -10 -3 -5 3 -18 1 -28 -4 -11 -6 -30 -12 -43 -15 -13
-2 -37 -10 -54 -17 -16 -7 -33 -13 -37 -14 -5 -2 -11 -4 -15 -5 -5 -1 -11 -2
-15 -1 -5 0 -8 -3 -8 -7 0 -4 -10 -8 -22 -9 -31 -3 -128 -44 -128 -55 0 -5 -4
-7 -9 -4 -5 3 -14 -1 -21 -10 -7 -8 -19 -13 -26 -10 -6 2 -27 -3 -45 -13 -19
-10 -64 -30 -101 -46 -59 -24 -66 -30 -55 -44 10 -14 10 -14 -4 -3 -14 10 -23
8 -58 -11 -22 -13 -38 -27 -34 -32 5 -4 3 -5 -4 -1 -15 8 -41 -5 -211 -106
-77 -47 -129 -84 -125 -90 3 -7 1 -8 -5 -4 -30 18 -478 -319 -787 -592 l-79
-71 -66 127 c-120 233 -256 417 -442 598 -159 155 -302 257 -496 354 -397 199
-821 281 -1376 267 -320 -8 -514 -33 -803 -102 -238 -57 -547 -166 -724 -255
-33 -17 -64 -30 -69 -28 -4 2 25 77 66 167 342 754 537 1489 533 2008 l-1 128
-15 -110 c-61 -466 -231 -1024 -490 -1605 -86 -191 -252 -549 -301 -649 l-37
-75 -130 -81 c-303 -189 -645 -469 -902 -740 -76 -79 -100 -100 -87 -75 9 19
24 46 34 60 70 101 460 790 642 1135 284 537 684 1371 859 1793 292 700 429
1285 429 1833 0 330 -25 502 -111 764 -99 300 -248 559 -435 754 -268 280
-594 446 -964 491 -112 13 -329 11 -463 -5z m-11677 -636 c0 -14 -17 -10 -23
5 -4 10 -1 13 9 9 7 -3 14 -9 14 -14z m137 -94 c0 -8 -4 -12 -9 -9 -5 3 -6 10
-3 15 9 13 12 11 12 -6z m193 -69 c0 -2 -8 -10 -17 -17 -16 -13 -17 -12 -4 4
13 16 21 21 21 13z m-213 -208 c-3 -8 -6 -5 -6 6 -1 11 2 17 5 13 3 -3 4 -12
1 -19z m-42 -46 c-3 -3 -11 0 -18 7 -9 10 -8 11 6 5 10 -3 15 -9 12 -12z m179
-107 c-4 -8 -11 -12 -16 -9 -6 4 -5 10 3 15 19 12 19 11 13 -6z m22 -29 c0
-13 -4 -22 -8 -20 -9 6 -6 44 3 44 4 0 6 -11 5 -24z m18657 -4419 c3 -8 -3
-13 -18 -13 -13 0 -21 4 -19 8 3 5 10 6 15 3 5 -4 9 -1 9 4 0 15 7 14 13 -2z
m-187 -72 c-11 -8 -25 -15 -30 -15 -6 1 0 7 14 15 32 19 40 18 16 0z m-255
-98 c-10 -9 -11 -8 -5 6 3 10 9 15 12 12 3 -3 0 -11 -7 -18z m376 -108 c-9 -6
-15 -14 -12 -20 4 -5 4 -9 1 -9 -3 0 -7 4 -11 9 -6 11 25 45 34 36 3 -4 -2
-11 -12 -16z m86 7 c8 -19 -18 -42 -29 -25 -4 7 -3 9 4 5 6 -3 13 -2 17 4 3 5
1 10 -5 10 -6 0 -8 5 -5 10 8 13 12 13 18 -4z m77 10 c0 -2 -7 -7 -16 -10 -8
-3 -12 -2 -9 4 6 10 25 14 25 6z m-545 -245 c3 -5 2 -12 -3 -15 -5 -3 -9 1 -9
9 0 17 3 19 12 6z m7495 -2125 c0 -6 -554 -505 -840 -756 -146 -128 -289 -256
-319 -284 -52 -48 -53 -49 -24 -11 65 83 575 560 843 787 95 81 329 266 338
267 1 1 2 -1 2 -3z m-15530 -452 c-55 -110 -132 -244 -170 -299 -38 -55 -106
-172 -151 -260 -458 -896 -950 -1735 -1313 -2240 -70 -98 -207 -265 -216 -265
-18 0 21 261 66 443 53 216 106 392 226 757 l110 335 252 255 c447 452 816
869 1169 1321 67 86 123 155 125 154 2 -2 -42 -92 -98 -201z m3350 -642 c155
-345 560 -649 983 -736 42 -9 86 -16 97 -16 16 0 20 -5 16 -17 -2 -10 -18 -63
-34 -118 -17 -55 -37 -125 -46 -156 -17 -62 -160 -292 -340 -549 -60 -85 -110
-157 -112 -159 -5 -5 -102 56 -184 118 -167 124 -317 303 -389 464 -17 37 -32
67 -34 67 -3 0 -36 -51 -75 -112 -234 -377 -493 -935 -635 -1365 -59 -180 -73
-192 -106 -90 -36 110 -52 232 -52 407 -1 236 24 406 97 675 96 349 342 932
553 1310 76 136 212 355 221 355 3 0 21 -35 40 -78z m-13409 -1185 c-10 -9
-11 -8 -5 6 3 10 9 15 12 12 3 -3 0 -11 -7 -18z m13 -46 c3 -5 -1 -11 -9 -14
-9 -4 -12 -1 -8 9 6 16 10 17 17 5z m-51 -16 c-3 -9 -8 -14 -10 -11 -3 3 -2 9
2 15 9 16 15 13 8 -4z m-87 -156 c-15 -9 -16 -13 -5 -21 11 -8 10 -9 -3 -5
-21 7 -36 -11 -33 -40 1 -13 0 -21 -3 -18 -3 2 -13 0 -24 -6 -13 -7 -16 -14
-10 -22 11 -15 12 -47 0 -47 -4 0 -8 5 -8 11 0 5 -5 7 -10 4 -6 -4 -8 -10 -6
-14 3 -4 -5 -8 -17 -8 -20 -2 -20 -1 -4 8 9 6 15 14 12 19 -3 5 4 7 15 5 11
-2 20 0 20 6 0 5 -4 9 -10 9 -17 0 -11 16 17 46 15 16 26 31 25 34 -3 10 38
50 50 50 7 0 5 -5 -6 -11z m-13 -64 c-7 -21 -12 -19 -10 4 0 11 5 18 9 15 4
-3 5 -11 1 -19z m13545 -79 c66 -147 204 -322 326 -416 25 -19 45 -40 43 -47
-4 -23 -168 -211 -274 -314 -225 -219 -434 -338 -676 -384 -44 -8 -82 -13 -85
-10 -11 11 181 452 303 694 102 204 306 551 323 551 4 0 22 -34 40 -74z
m-13700 -117 c-10 -21 -22 -40 -27 -43 -16 -10 -20 22 -5 41 14 17 14 16 4 -4
-6 -14 -7 -23 -1 -23 10 0 23 31 20 46 -3 16 1 21 14 21 10 0 9 -9 -5 -38z
m4907 4 c-96 -150 -325 -422 -481 -573 -210 -203 -457 -360 -641 -409 l-73
-20 -6 26 c-10 38 4 354 22 495 8 67 16 123 17 124 1 1 49 14 107 29 259 66
716 215 965 314 55 22 102 40 104 41 2 0 -5 -12 -14 -27z m-4894 -30 c-12 -20
-14 -14 -5 12 4 9 9 14 11 11 3 -2 0 -13 -6 -23z m-61 -29 c11 -12 11 -15 0
-12 -9 2 -15 -6 -15 -24 -1 -28 -25 -66 -25 -39 0 10 -3 11 -14 2 -9 -8 -16
-8 -20 -2 -8 12 4 19 27 16 19 -4 24 11 5 17 -7 3 -5 13 7 31 20 32 19 31 35
11z m65 -4 c-3 -5 -14 -10 -23 -9 -14 0 -13 2 3 9 27 11 27 11 20 0z m-172
-155 c-3 -9 -8 -14 -10 -11 -3 3 -2 9 2 15 9 16 15 13 8 -4z m451 -913 c3 -5
-1 -9 -9 -9 -8 0 -12 4 -9 9 3 4 7 8 9 8 2 0 6 -4 9 -8z m-74 -76 c0 -2 -7 -7
-16 -10 -8 -3 -12 -2 -9 4 6 10 25 14 25 6z m18087 -81 c0 -8 -4 -12 -9 -9 -5
3 -6 10 -3 15 9 13 12 11 12 -6z m-18176 -32 c-5 -10 -10 -22 -11 -28 -1 -5
-3 -12 -5 -14 -2 -2 -2 9 1 24 3 19 1 24 -7 19 -8 -4 -9 -3 -5 4 4 7 14 12 22
12 11 0 12 -5 5 -17z m-86 -43 c3 -6 -1 -7 -9 -4 -18 7 -21 14 -7 14 6 0 13
-4 16 -10z m34 -28 c20 15 -27 -39 -54 -64 -11 -9 -25 -17 -31 -18 -16 0 -26
28 -13 35 5 4 8 1 7 -6 -2 -6 3 -14 11 -17 9 -3 11 0 6 8 -5 8 -4 11 2 7 6 -4
21 5 33 18 19 20 20 25 8 25 -9 0 -18 -6 -21 -12 -2 -7 -4 -1 -3 13 1 24 3 25
20 13 15 -10 23 -11 35 -2z m-86 -107 c4 3 5 2 2 -2 -17 -22 -53 -4 -39 19 5
8 11 6 19 -5 7 -9 15 -15 18 -12z m-63 -70 c-7 -9 -15 -13 -19 -10 -3 3 1 10
9 15 21 14 24 12 10 -5z m-70 -50 c0 -2 -10 -10 -22 -16 -21 -11 -22 -11 -9 4
13 16 31 23 31 12z m-10 -29 c0 -2 -8 -10 -17 -17 -16 -13 -17 -12 -4 4 13 16
21 21 21 13z m20985 -102 c-74 -63 -178 -136 -253 -177 -45 -25 -82 -43 -82
-40 0 3 -6 0 -14 -6 -24 -20 -170 -69 -256 -85 -91 -18 -345 -22 -355 -6 -3 5
-12 7 -19 4 -31 -12 -246 41 -293 71 -12 8 -29 15 -37 15 -7 0 -24 9 -37 21
-13 11 -18 18 -11 14 6 -3 12 -1 12 4 0 14 -17 14 -25 0 -5 -6 -12 -4 -22 8
-8 10 -11 11 -7 3 6 -12 4 -12 -12 1 -10 9 -28 22 -39 28 l-20 13 20 -7 c67
-24 168 -49 235 -59 14 -3 45 -8 70 -12 25 -4 60 -6 78 -5 17 1 32 -1 32 -6 0
-14 388 3 477 21 145 29 329 96 483 176 52 27 97 49 100 49 3 0 -8 -11 -25
-25z m-2081 -199 c5 0 11 -7 13 -15 4 -13 3 -13 -6 0 -6 8 -11 11 -11 6 0 -6
-5 -5 -12 2 -9 9 -14 7 -23 -5 -10 -13 -14 -13 -20 -3 -5 8 -4 11 2 7 6 -4 14
0 17 9 4 9 11 12 18 7 7 -4 17 -8 22 -8z m-92 -38 c-12 -13 -19 -27 -15 -32 5
-4 2 -5 -5 -1 -11 6 -8 13 9 32 12 13 25 24 27 24 3 0 -4 -10 -16 -23z m138 5
c0 -4 -10 -9 -22 -9 -18 -2 -20 0 -8 7 18 12 30 13 30 2z m-189 -59 c13 -16
12 -17 -3 -4 -17 13 -22 21 -14 21 2 0 10 -8 17 -17z m246 -15 c-13 -8 -39 10
-31 23 3 5 14 3 24 -3 13 -9 16 -14 7 -20z m90 -68 c13 1 85 -42 79 -48 -3 -3
-22 7 -43 21 -34 24 -37 25 -50 9 -12 -16 -12 -15 -6 3 6 18 5 19 -13 5 -15
-11 -16 -11 -6 0 14 16 16 34 4 26 -5 -3 -9 2 -9 11 0 13 4 11 18 -6 10 -12
22 -21 26 -21z m-462 0 c-3 -5 -12 -10 -18 -10 -7 0 -6 4 3 10 19 12 23 12 15
0z m-80 -40 c-3 -5 -12 -10 -18 -10 -7 0 -6 4 3 10 19 12 23 12 15 0z m-30
-48 c-3 -3 -11 0 -18 7 -9 10 -8 11 6 5 10 -3 15 -9 12 -12z m795 -36 c0 -2
-7 -7 -16 -10 -8 -3 -12 -2 -9 4 6 10 25 14 25 6z m9 -19 c-2 -1 -13 -9 -24
-17 -19 -14 -19 -14 -6 3 7 9 18 17 24 17 6 0 8 -1 6 -3z m36 -7 c-3 -5 -11
-10 -16 -10 -6 0 -7 5 -4 10 3 6 11 10 16 10 6 0 7 -4 4 -10z m-485 -766 c0
-8 -19 -13 -24 -6 -3 5 1 9 9 9 8 0 15 -2 15 -3z m-110 -39 c0 -2 -6 -8 -13
-14 -10 -8 -14 -7 -14 2 0 8 6 14 14 14 7 0 13 -1 13 -2z m326 -66 c3 -6 -5
-3 -20 6 -14 10 -26 19 -26 22 0 7 39 -17 46 -28z m22 -4 c-3 -3 -9 2 -12 12
-6 14 -5 15 5 6 7 -7 10 -15 7 -18z"/>
<path d="M11009 22753 c-13 -16 -12 -17 4 -4 16 13 21 21 13 21 -2 0 -10 -8
-17 -17z"/>
<path d="M31904 22312 c23 -26 23 -26 23 -7 0 8 -3 13 -5 10 -3 -3 -12 1 -21
7 -10 8 -9 4 3 -10z"/>
<path d="M31937 22291 c-4 -17 -3 -21 5 -13 5 5 8 16 6 23 -3 8 -7 3 -11 -10z"/>
<path d="M31964 22292 c3 -6 2 -13 -4 -17 -5 -3 -10 -12 -10 -18 0 -8 3 -8 8
-2 8 11 32 13 48 3 6 -4 11 -1 11 7 0 8 -3 13 -6 12 -3 -1 -17 5 -30 12 -13 7
-21 8 -17 3z"/>
<path d="M32038 22259 c13 -14 18 -326 4 -344 -12 -17 -34 -17 -52 0 -15 13
-20 14 -26 3 -4 -7 -4 -10 1 -6 4 4 26 -7 49 -25 22 -17 37 -26 33 -19 -10 15
5 16 21 0 9 -9 12 -9 12 0 0 7 -7 15 -15 18 -8 4 -12 10 -9 15 3 5 10 6 16 3
7 -4 8 -2 4 5 -4 7 -7 85 -7 174 2 159 1 162 -21 176 -18 10 -20 10 -10 0z"/>
<path d="M20812 22056 c-108 -1228 -536 -2662 -1334 -4471 -626 -1418 -1145
-2726 -1713 -4320 -809 -2272 -1192 -3705 -1161 -4349 3 -71 8 -131 10 -134 3
-2 7 18 11 45 102 752 435 1921 1036 3629 267 760 747 2056 768 2074 3 3 7 13
9 23 3 20 123 328 153 394 10 23 19 47 19 53 0 6 5 8 10 5 9 -6 14 7 11 31 -1
6 6 29 15 50 15 34 18 37 25 19 7 -19 8 -19 8 -1 1 18 2 19 14 3 11 -16 12
-15 14 9 0 15 -2 23 -5 18 -11 -15 -37 -10 -34 6 2 8 8 17 13 18 5 2 7 7 4 12
-3 5 0 14 7 22 13 14 16 22 25 68 2 13 10 28 16 32 7 4 8 8 2 8 -5 0 -2 5 8
11 9 5 17 15 17 22 0 7 -4 6 -10 -3 -6 -9 -10 -10 -10 -3 0 6 4 14 9 17 5 3
12 18 16 33 3 15 14 33 23 41 11 9 12 11 2 6 -12 -7 -13 -5 -3 8 7 8 9 19 5
23 -4 5 -1 4 7 0 11 -6 13 -4 8 9 -4 11 -3 15 4 10 8 -4 9 1 4 16 -5 17 -4 21
5 15 8 -5 11 -4 6 3 -7 11 31 102 47 113 5 3 8 9 7 13 -2 6 3 23 15 59 1 4 3
10 4 15 1 4 5 1 10 -7 7 -10 13 -11 31 -1 12 7 20 7 16 2 -3 -6 0 -13 6 -15 7
-3 -1 -6 -17 -6 -37 -1 -55 -17 -55 -48 0 -13 -5 -23 -10 -23 -6 0 -10 -8 -8
-17 2 -10 -3 -17 -9 -15 -15 2 -17 -14 -3 -23 6 -3 10 -11 10 -17 0 -6 -5 -7
-13 -2 -7 5 -5 1 5 -8 11 -10 14 -19 8 -23 -5 -3 -10 -1 -10 5 0 6 -5 8 -11 4
-8 -5 -8 -8 0 -14 7 -3 9 -14 5 -24 -5 -14 -9 -15 -16 -4 -8 10 -9 10 -5 -2 2
-8 10 -14 18 -13 11 2 13 -15 9 -95 -5 -88 -3 -98 12 -98 10 0 17 5 17 11 -3
25 2 46 9 41 4 -3 13 8 19 25 6 16 7 27 2 23 -5 -3 -9 5 -9 18 0 18 2 20 10 8
7 -11 13 -5 28 29 11 24 19 56 18 72 -2 27 7 39 17 22 2 -5 2 -2 1 5 -2 6 2
12 9 12 8 0 6 4 -3 10 -13 9 -7 14 12 11 4 0 5 6 1 14 -4 12 -9 13 -19 4 -11
-9 -15 -8 -19 3 -3 8 -5 21 -3 29 2 10 -6 13 -27 11 -27 -2 -28 -1 -7 8 12 5
22 16 22 25 0 8 8 15 18 15 14 0 15 -2 2 -10 -11 -7 -12 -12 -4 -17 6 -5 10
-21 8 -36 -2 -23 0 -26 11 -17 8 7 20 8 26 4 8 -4 9 -3 5 4 -4 7 -2 12 5 12 7
0 9 3 6 7 -4 3 0 14 8 23 16 17 10 55 -6 44 -5 -3 -9 0 -9 5 0 10 14 15 33 12
6 -1 39 60 42 79 0 3 4 10 8 17 20 31 65 157 60 166 -3 6 -1 7 5 3 11 -7 48
89 43 113 -1 7 2 10 7 7 10 -6 49 81 44 97 -1 4 3 7 8 7 6 0 10 4 10 9 0 5 43
105 95 222 52 117 92 216 89 220 -2 4 0 9 6 11 25 8 430 991 595 1443 423
1159 651 2079 741 2990 14 147 33 1035 23 1105 -2 14 -10 -42 -17 -124z
m-1626 -5718 c4 -7 4 -10 -1 -6 -4 4 -15 2 -24 -5 -14 -11 -14 -10 -2 6 16 20
18 21 27 5z m-81 -206 c-8 -8 -25 10 -19 20 4 6 9 5 15 -3 4 -7 6 -15 4 -17z
m-5 -23 c0 -14 -17 -10 -23 5 -4 10 -1 13 9 9 7 -3 14 -9 14 -14z m0 -38 c0
-11 -4 -10 -16 5 -14 18 -15 18 -8 -6 4 -14 11 -26 15 -28 5 -2 9 -10 9 -19 0
-13 -2 -13 -15 1 -8 8 -15 22 -15 31 0 9 -5 13 -11 10 -6 -4 -8 -13 -5 -21 3
-8 1 -14 -4 -14 -14 0 -12 22 5 44 8 10 12 23 9 28 -4 5 3 4 15 -4 12 -7 21
-19 21 -27z m-64 -72 c-8 -12 -12 -28 -9 -37 4 -9 2 -13 -4 -9 -6 4 -13 0 -17
-8 -3 -8 -1 -15 4 -15 6 0 10 -5 10 -11 0 -5 -4 -8 -8 -5 -5 3 -9 -7 -9 -23 0
-17 6 -28 14 -28 8 0 11 7 8 18 -4 10 -2 27 4 36 8 14 9 9 7 -22 -2 -37 -4
-40 -31 -40 -17 -1 -36 -4 -42 -8 -9 -6 -11 -3 -7 7 3 9 11 13 16 10 6 -4 8
-1 6 7 -3 8 -1 23 5 34 6 11 12 28 14 39 4 24 35 76 46 76 4 0 1 -10 -7 -21z
m45 -166 c0 -15 2 -15 9 2 5 13 9 14 9 5 0 -8 -4 -24 -9 -35 -7 -19 -9 -18
-19 8 -13 35 -14 37 -1 37 6 0 10 -8 11 -17z m-21 -19 c8 -19 7 -31 -2 -42
-11 -13 -10 -15 5 -9 9 3 17 2 17 -3 0 -6 -5 -10 -11 -10 -6 0 -9 -7 -6 -15 4
-8 1 -17 -5 -21 -7 -4 -8 -3 -4 4 4 7 3 12 -1 12 -5 0 -9 25 -9 55 0 30 1 55
3 55 2 0 8 -12 13 -26z m-103 1 c0 -8 -4 -15 -9 -15 -10 0 -11 14 -1 23 9 10
10 9 10 -8z m-13 -46 c-3 -5 -10 -7 -15 -3 -5 3 -7 10 -3 15 3 5 10 7 15 3 5
-3 7 -10 3 -15z m1 -47 c-12 -11 -15 -12 -10 -3 6 10 4 13 -7 9 -9 -4 -15 0
-15 8 0 17 23 19 30 2 3 -7 6 -4 7 7 1 13 4 15 7 7 3 -8 -3 -21 -12 -30z m-5
-66 c0 -2 -7 -9 -15 -16 -12 -10 -15 -10 -15 4 0 9 7 16 15 16 8 0 15 -2 15
-4z m100 -6 c0 -5 -6 -10 -14 -10 -7 0 -17 -10 -21 -22 -7 -21 -7 -22 -12 -4
-3 12 2 25 13 33 21 16 34 17 34 3z m-122 -208 c20 20 35 -5 17 -28 -15 -18
-16 -18 -10 6 5 24 5 23 -10 -3 -10 -17 -14 -40 -11 -55 3 -15 3 -21 -1 -13
-4 9 -7 10 -12 2 -4 -6 -7 7 -7 29 0 23 3 34 8 27 5 -8 8 -7 8 6 0 9 -4 17
-10 17 -5 0 -10 5 -10 11 0 8 4 8 13 0 10 -8 17 -7 25 1z"/>
<path d="M18985 15890 c-3 -5 -1 -10 4 -10 6 0 11 5 11 10 0 6 -2 10 -4 10 -3
0 -8 -4 -11 -10z"/>
<path d="M31666 22082 c-3 -5 1 -9 9 -9 8 0 12 4 9 9 -3 4 -7 8 -9 8 -2 0 -6
-4 -9 -8z"/>
<path d="M31823 22005 c0 -8 4 -12 9 -9 5 3 6 10 3 15 -9 13 -12 11 -12 -6z"/>
<path d="M31861 22001 c-8 -5 -9 -11 -3 -15 5 -3 12 1 16 9 6 17 6 18 -13 6z"/>
<path d="M31970 21990 c0 -5 5 -10 11 -10 5 0 7 5 4 10 -3 6 -8 10 -11 10 -2
0 -4 -4 -4 -10z"/>
<path d="M31940 21976 c0 -2 8 -10 18 -17 15 -13 16 -12 3 4 -13 16 -21 21
-21 13z"/>
<path d="M29780 21760 c-344 -81 -642 -237 -711 -372 -67 -131 9 -206 211
-208 l95 0 -77 -43 c-149 -81 -227 -158 -246 -243 -15 -66 3 -104 63 -134 46
-23 60 -25 185 -24 147 2 256 18 550 83 229 51 375 66 655 65 316 0 537 -32
782 -113 119 -39 323 -128 323 -141 0 -4 6 -7 13 -7 20 0 204 -120 297 -194
47 -37 121 -104 165 -149 75 -77 79 -84 78 -123 -1 -23 3 -47 9 -54 7 -9 7
-13 -1 -13 -8 0 -11 -602 -11 -2286 0 -1825 3 -2284 13 -2278 9 6 9 5 0 -7 -7
-9 -11 -43 -10 -87 3 -66 1 -73 -15 -69 -10 3 -18 0 -18 -6 0 -8 -3 -8 -8 -2
-12 17 -38 13 -38 -6 0 -11 5 -19 11 -19 6 0 7 -3 0 -8 -13 -9 -15 -53 -2 -45
6 4 8 0 4 -10 -9 -22 -15 -44 -10 -34 3 4 9 4 15 1 5 -3 2 -15 -9 -27 -10 -11
-12 -17 -5 -13 6 4 12 2 12 -3 0 -6 -4 -11 -8 -11 -5 0 -9 -7 -9 -15 0 -20 4
-19 17 6 17 30 22 69 10 69 -5 0 -10 4 -10 10 0 5 6 7 14 4 11 -4 26 13 30 36
1 3 5 11 10 19 7 10 6 12 -4 6 -10 -6 -12 -4 -7 9 4 10 7 20 7 22 0 3 4 3 9 0
10 -7 33 49 24 58 -4 3 -1 6 5 6 7 0 12 4 12 10 0 5 -5 9 -11 7 -13 -2 -20 41
-7 49 13 8 9 26 -4 18 -8 -4 -9 -3 -5 2 5 5 16 9 25 9 9 0 16 5 15 12 -2 7 4
10 12 7 14 -6 16 -3 18 44 1 9 7 22 13 27 15 13 44 101 36 109 -3 3 1 6 8 6 7
0 10 3 7 7 -4 3 0 17 9 31 11 17 12 22 3 17 -8 -5 -6 1 4 13 11 11 16 25 13
31 -3 5 -1 11 6 13 7 3 9 12 5 22 -4 9 -11 15 -15 12 -5 -3 -8 5 -8 17 1 12 6
22 11 22 6 0 9 -8 9 -17 -2 -33 14 -18 29 27 16 44 15 45 -6 46 -21 1 -21 1 2
8 14 4 26 12 27 19 1 7 0 8 -3 2 -2 -5 -12 -10 -21 -10 -12 0 -8 6 11 18 15 9
25 23 22 30 -3 7 -1 11 4 7 5 -3 13 9 17 27 4 18 9 40 12 48 2 8 4 23 5 33 1
9 5 17 10 17 4 0 5 5 2 10 -4 6 -1 17 5 25 6 8 8 20 4 26 -4 8 -3 9 4 5 7 -4
13 0 14 11 1 18 4 31 8 46 1 4 3 10 4 15 1 4 4 12 7 17 10 16 23 78 20 95 -2
8 1 12 5 7 6 -6 74 213 99 318 2 11 20 83 40 159 19 77 33 141 30 144 -3 3 -1
10 4 16 14 16 43 167 36 185 -3 8 -2 12 2 7 16 -15 104 486 129 729 2 22 8 82
14 132 5 51 9 103 9 115 0 13 3 37 7 53 13 51 9 728 -5 890 -40 467 -121 868
-242 1192 -52 139 -171 383 -244 498 -134 211 -349 445 -540 587 -84 63 -281
175 -297 170 -5 -1 -8 2 -8 8 0 5 -7 6 -17 3 -9 -4 -14 -2 -10 3 3 5 -2 10
-11 11 -9 0 -75 19 -147 42 -323 103 -483 123 -1015 127 l-415 3 -165 -39z
m2405 -1600 c-3 -5 -1 -10 5 -10 6 0 10 -8 8 -17 -2 -13 3 -18 20 -17 18 1 20
-1 11 -13 -10 -11 -14 -11 -29 2 -9 8 -19 13 -22 10 -3 -3 -4 7 -2 22 2 33 2
33 10 33 3 0 2 -4 -1 -10z m79 -92 c1 -7 5 -18 9 -24 4 -7 -1 -18 -11 -25 -9
-7 -14 -9 -10 -5 4 5 3 15 -3 22 -6 8 -7 14 0 18 6 4 7 14 4 24 -3 9 -3 14 1
10 4 -3 8 -12 10 -20z m50 -46 c3 -5 -1 -9 -9 -9 -8 0 -12 4 -9 9 3 4 7 8 9 8
2 0 6 -4 9 -8z m42 -64 c5 -7 3 -8 -6 -3 -10 6 -12 4 -6 -11 5 -14 4 -16 -5
-7 -6 6 -8 16 -5 22 9 14 13 14 22 -1z m26 -43 c16 -20 16 -21 0 -21 -11 0
-18 9 -19 24 0 13 0 22 1 20 0 -2 9 -12 18 -23z m-37 -13 c-3 -8 -1 -20 5 -27
8 -9 7 -14 -3 -18 -9 -3 -13 4 -12 22 1 14 -3 32 -8 39 -7 9 -5 11 7 6 10 -4
15 -13 11 -22z m60 -30 c-3 -3 2 -13 10 -22 13 -14 13 -17 1 -17 -8 0 -14 5
-13 11 1 6 -6 10 -15 10 -9 -1 -14 4 -12 11 3 6 11 12 19 12 8 0 13 -3 10 -5z
m20 -100 c-3 -3 -11 0 -18 7 -9 10 -8 11 6 5 10 -3 15 -9 12 -12z m100 -3332
c3 -5 1 -10 -4 -10 -6 0 -11 5 -11 10 0 6 2 10 4 10 3 0 8 -4 11 -10z m-100
-318 c-2 -9 -4 -18 -4 -20 -1 -2 -6 0 -11 3 -8 5 -8 11 -1 19 6 7 7 17 3 21
-4 5 -2 5 5 2 6 -4 10 -15 8 -25z m5 -38 c0 -8 -19 -13 -24 -6 -3 5 1 9 9 9 8
0 15 -2 15 -3z m-94 -138 c0 -14 -5 -21 -9 -17 -4 4 -5 15 -1 24 9 24 12 21
10 -7z m-36 -180 c0 -2 -7 -7 -16 -10 -8 -3 -12 -2 -9 4 6 10 25 14 25 6z
m-37 -119 c3 -8 -1 -14 -8 -14 -7 0 -11 6 -8 14 3 7 6 13 8 13 2 0 5 -6 8 -13z
m-133 -322 c-7 -8 -8 -15 -3 -15 15 0 11 -24 -6 -40 -13 -13 -14 -12 -8 3 4
10 2 17 -6 18 -9 0 -9 2 1 6 6 2 10 9 6 14 -7 11 4 29 18 29 7 0 6 -6 -2 -15z"/>
<path d="M44041 21750 c-126 -58 -303 -245 -564 -595 -479 -642 -995 -1616
-1854 -3500 -452 -990 -958 -2171 -1212 -2825 l-60 -155 106 110 c455 473 966
1116 1470 1850 391 570 935 1461 1268 2075 37 69 83 153 102 188 142 263 387
779 516 1089 282 677 427 1157 427 1410 0 145 -37 309 -78 347 -30 26 -73 28
-121 6z"/>
<path d="M31929 20387 c7 -7 7 -15 1 -22 -6 -8 -6 -12 3 -12 47 -2 90 -19 82
-33 -3 -5 -1 -11 4 -14 5 -4 12 -2 15 2 3 5 -8 21 -24 36 -17 14 -30 22 -30
17 0 -5 -9 -7 -19 -4 -12 3 -18 12 -16 22 2 10 -3 18 -11 18 -10 0 -11 -4 -5
-10z"/>
<path d="M32023 20274 l27 -30 0 -2556 c0 -1858 -3 -2559 -11 -2564 -8 -4 -7
-9 2 -15 11 -6 11 -11 1 -21 -6 -6 -12 -7 -12 -2 0 6 -7 19 -15 30 -14 17 -14
15 0 -13 8 -18 20 -33 26 -33 6 0 6 -8 -1 -22 -11 -22 -10 -22 4 -4 9 10 13
23 10 27 -3 5 0 9 5 9 6 0 10 3 10 8 -1 4 -1 12 0 17 1 6 2 1164 4 2575 1
1702 5 2565 12 2565 6 0 8 -4 6 -10 -2 -5 -4 -21 -5 -35 -1 -20 4 -25 22 -26
l24 -1 -21 20 c-17 18 -18 22 -5 31 12 10 9 17 -20 45 -28 27 -38 32 -49 23
-10 -9 -17 -8 -28 1 -7 6 -2 -2 14 -19z m46 2 c9 -11 7 -13 -11 -11 -33 4 -34
4 -18 15 19 12 16 12 29 -4z m-4 -5156 c3 -5 1 -10 -4 -10 -6 0 -11 5 -11 10
0 6 2 10 4 10 3 0 8 -4 11 -10z"/>
<path d="M32116 20212 c-4 -6 2 -16 13 -22 20 -10 40 3 21 15 -5 3 -10 3 -10
-2 0 -4 -4 -2 -9 6 -6 9 -11 10 -15 3z"/>
<path d="M13610 18398 c-104 -9 -161 -28 -86 -28 21 0 94 -11 161 -25 530
-107 854 -437 979 -996 14 -63 28 -144 32 -181 4 -42 11 -65 17 -61 12 7 2
422 -13 538 -17 125 -48 269 -81 374 -29 89 -113 274 -142 313 -16 20 -166 52
-316 68 -122 12 -403 11 -551 -2z"/>
<path d="M31463 18305 c0 -8 4 -12 9 -9 5 3 6 10 3 15 -9 13 -12 11 -12 -6z"/>
<path d="M31406 18052 c-3 -5 1 -9 9 -9 8 0 12 4 9 9 -3 4 -7 8 -9 8 -2 0 -6
-4 -9 -8z"/>
<path d="M25998 17960 c-3 -8 -14 -55 -23 -105 -9 -49 -38 -156 -66 -237 -57
-171 -339 -876 -734 -1838 -630 -1533 -812 -1997 -1016 -2600 -194 -571 -249
-796 -304 -1240 -60 -486 -75 -765 -55 -1034 13 -183 22 -204 34 -81 14 145
58 455 81 570 101 504 428 1413 1080 2995 663 1610 890 2179 944 2365 59 206
94 545 74 719 -4 39 -4 131 1 207 8 129 -2 314 -16 279z"/>
<path d="M31813 17405 c0 -8 4 -12 9 -9 5 3 6 10 3 15 -9 13 -12 11 -12 -6z"/>
<path d="M31716 17388 c3 -5 10 -6 15 -3 13 9 11 12 -6 12 -8 0 -12 -4 -9 -9z"/>
<path d="M51515 17350 c-3 -5 -1 -10 4 -10 6 0 11 5 11 10 0 6 -2 10 -4 10 -3
0 -8 -4 -11 -10z"/>
<path d="M51544 17348 c-4 -5 -3 -12 0 -15 3 -4 6 0 6 8 0 11 2 12 9 1 7 -11
9 -11 14 0 6 16 -20 21 -29 6z"/>
<path d="M51479 17341 c-4 -36 -3 -45 9 -49 7 -2 10 2 6 12 -7 19 7 21 24 4 6
-6 13 -10 16 -7 2 2 -10 14 -25 27 -16 13 -30 19 -30 13z"/>
<path d="M51400 17330 c0 -5 7 -10 15 -10 8 0 15 5 15 10 0 6 -7 10 -15 10 -8
0 -15 -4 -15 -10z"/>
<path d="M51438 17324 c-13 -14 -22 -15 -47 -6 -35 12 -73 5 -50 -9 8 -4 11
-11 7 -14 -3 -3 -13 2 -22 11 -12 12 -20 14 -28 6 -6 -6 -18 -8 -27 -5 -13 4
-14 3 -1 -5 10 -8 18 -8 27 0 9 7 13 7 13 -1 0 -6 7 -11 15 -11 13 0 15 -18
13 -122 -3 -115 -4 -123 -23 -123 -11 0 -23 -4 -27 -10 -5 -6 -8 -6 -8 1 0 12
-65 13 -76 1 -4 -4 -2 -7 6 -7 10 0 10 -3 0 -15 -7 -9 -10 -18 -6 -22 3 -3 6
-1 6 5 0 7 5 12 11 12 5 0 7 -4 4 -10 -3 -5 0 -10 8 -10 8 0 18 7 21 16 4 12
13 14 32 10 17 -5 23 -3 19 4 -3 5 0 10 7 11 52 4 69 7 75 12 3 4 -1 7 -10 7
-15 0 -17 15 -17 124 l0 124 50 -3 c47 -3 49 -2 48 21 -1 13 -3 24 -3 24 0 0
-8 -7 -17 -16z m-178 -294 c0 -5 -4 -10 -10 -10 -5 0 -10 5 -10 10 0 6 5 10
10 10 6 0 10 -4 10 -10z"/>
<path d="M51580 17330 c0 -5 5 -10 11 -10 5 0 7 5 4 10 -3 6 -8 10 -11 10 -2
0 -4 -4 -4 -10z"/>
<path d="M51550 17311 c0 -6 4 -13 10 -16 6 -3 7 1 4 9 -7 18 -14 21 -14 7z"/>
<path d="M51485 17121 c-3 -5 -1 -12 5 -16 5 -3 10 1 10 9 0 18 -6 21 -15 7z"/>
<path d="M51537 17113 c13 -10 14 -13 2 -14 -8 -1 -17 -1 -21 0 -4 0 -5 -6 -1
-15 3 -9 9 -12 12 -6 3 5 15 14 26 20 14 8 16 12 5 12 -13 0 -13 2 -1 9 10 7
6 9 -13 8 -24 -2 -25 -3 -9 -14z"/>
<path d="M51590 17126 c0 -2 7 -7 16 -10 8 -3 12 -2 9 4 -6 10 -25 14 -25 6z"/>
<path d="M51456 17077 c-16 -12 -16 -13 3 -13 11 0 23 6 25 13 3 7 2 13 -2 13
-5 0 -16 -6 -26 -13z"/>
<path d="M15668 16905 c-4 -11 -12 -47 -18 -80 -40 -211 -145 -552 -256 -835
-75 -188 -258 -567 -363 -747 -317 -546 -695 -1018 -1170 -1458 -35 -32 -94
-104 -131 -159 -320 -477 -731 -913 -1140 -1208 -58 -41 -135 -94 -172 -118
-38 -23 -68 -44 -68 -46 0 -13 385 202 575 322 739 463 1363 1051 1829 1724
487 701 826 1513 931 2230 13 83 15 143 11 215 -9 126 -20 188 -28 160z"/>
<path d="M37993 16785 c-331 -74 -806 -468 -1398 -1160 -417 -487 -778 -1008
-1112 -1610 -93 -167 -213 -398 -213 -410 0 -10 107 -5 200 10 362 59 964 276
1331 480 145 81 364 227 494 331 141 113 477 448 585 584 239 301 408 625 484
928 34 133 44 196 56 343 21 275 -32 431 -169 492 -58 26 -174 31 -258 12z"/>
<path d="M52074 16496 c-342 -56 -729 -300 -1165 -735 -267 -268 -445 -486
-669 -821 -202 -304 -348 -561 -541 -955 -429 -877 -645 -1503 -725 -2100 -24
-182 -24 -495 0 -630 68 -379 263 -579 597 -610 124 -12 332 23 453 74 25 11
48 20 51 20 3 1 19 8 35 16 16 8 31 15 32 14 8 -5 88 43 88 52 0 6 5 7 10 4 6
-3 10 -2 10 3 0 5 6 9 13 9 19 0 87 44 87 56 0 6 3 8 6 4 12 -12 226 136 336
232 l47 42 -43 67 c-150 234 -239 484 -267 750 -9 89 -9 140 1 240 17 169 17
165 23 182 2 8 15 51 27 94 12 44 33 102 46 128 14 27 22 53 19 58 -3 5 0 12
6 16 8 5 10 2 5 -7 -4 -8 0 -5 8 5 9 11 16 25 16 32 0 6 7 14 15 18 8 3 14 9
13 13 -3 10 47 60 95 96 20 16 35 32 32 37 -2 4 3 14 13 21 15 13 16 12 3 -3
-11 -15 -11 -18 2 -18 18 0 39 24 30 34 -4 4 1 4 10 0 12 -4 23 0 33 12 9 11
12 13 8 5 -5 -10 -1 -11 17 -5 13 4 44 13 69 20 27 7 44 17 42 25 -2 9 1 9 10
3 17 -13 65 -16 72 -5 3 4 16 6 29 4 17 -3 32 3 51 22 25 25 49 30 47 10 -1
-6 -11 -10 -23 -10 -12 0 -23 -5 -25 -11 -2 -6 7 -10 19 -9 13 1 28 -1 33 -5
6 -4 22 -8 38 -8 20 0 29 6 33 25 4 13 4 26 2 29 -10 9 -48 13 -48 4 0 -5 10
-10 22 -12 21 -3 21 -4 4 -21 -10 -10 -20 -16 -23 -14 -9 10 -17 57 -20 135
-4 77 -3 82 16 82 11 0 23 5 27 12 5 8 1 9 -12 5 -19 -7 -19 -7 0 8 17 13 5
14 -117 12 -136 -2 -136 -2 -135 21 2 12 6 22 10 22 4 0 8 5 8 11 0 5 -6 7
-12 4 -7 -4 -4 2 8 12 11 10 37 41 57 69 35 48 41 78 21 92 -6 4 -10 18 -11
32 -1 14 1 19 4 12 3 -6 9 -10 13 -7 5 3 7 -3 5 -15 -2 -11 1 -22 6 -25 5 -4
6 -11 3 -17 -5 -7 -2 -8 5 -3 8 4 10 18 7 34 -3 14 -3 20 0 14 3 -7 10 -13 15
-13 6 0 7 5 4 10 -3 6 -2 10 4 10 6 0 15 9 21 21 9 15 8 24 -2 37 -12 15 -11
16 4 4 15 -12 20 -8 45 30 15 24 26 49 24 57 -1 8 2 10 11 5 7 -4 10 -4 6 0
-3 4 14 28 38 54 25 25 42 52 40 59 -3 7 -1 13 4 13 6 0 10 5 10 10 0 6 -6 10
-14 10 -10 0 -13 -8 -10 -23 3 -17 -3 -27 -21 -37 -13 -7 -21 -18 -18 -24 4
-6 0 -5 -9 1 -8 7 -19 9 -23 5 -5 -4 -5 -1 -1 6 4 7 11 10 16 7 4 -3 13 1 19
9 9 10 5 13 -16 11 -24 -1 -28 -6 -29 -33 -1 -18 3 -32 8 -32 5 0 7 -4 3 -9
-3 -6 -13 -9 -23 -8 -16 1 -17 40 -14 641 1 351 6 644 11 650 7 9 8 32 2 69 0
5 -6 5 -13 1 -7 -4 -8 -3 -4 4 4 7 13 12 20 12 8 0 21 10 30 23 9 12 14 16 10
8 -4 -9 -2 -12 7 -9 8 3 13 12 13 21 -1 10 4 13 14 10 10 -4 13 -2 8 5 -3 6 3
16 15 22 12 7 19 8 15 2 -3 -5 2 -9 12 -8 16 1 17 -38 20 -646 l2 -647 -32 4
c-18 2 -27 1 -20 -2 6 -2 10 -9 6 -14 -8 -13 10 -11 26 4 12 10 12 9 2 -5 -9
-11 -10 -18 -2 -23 5 -3 10 -2 10 3 0 5 9 19 20 32 11 12 17 27 13 33 -3 5 -1
7 5 3 6 -3 13 -2 16 3 3 5 -2 12 -11 15 -14 6 -14 8 3 20 10 8 25 11 33 8 10
-4 13 -1 8 11 -3 9 -1 19 5 23 7 4 8 3 4 -4 -5 -8 -2 -10 8 -6 9 3 14 10 11
14 -3 4 2 11 11 14 8 3 12 10 9 16 -3 5 -2 10 3 10 12 0 52 35 52 45 0 4 8 14
17 21 10 7 18 21 18 31 0 10 6 18 14 18 8 0 16 10 17 23 3 18 -1 22 -21 22
-26 0 -29 -4 -39 -51 -4 -21 -11 -26 -30 -24 -14 2 -32 -5 -42 -16 -9 -10 -14
-19 -11 -19 14 0 -17 -60 -31 -61 -13 0 -13 -2 3 -9 17 -7 17 -9 3 -9 -10 -1
-18 -9 -19 -18 0 -15 -2 -15 -9 2 -7 16 -9 17 -9 3 -1 -9 -6 -20 -11 -23 -17
-10 -5 33 15 55 19 21 8 29 -13 8 -9 -9 -11 124 -12 560 0 380 3 572 10 573 5
1 14 2 19 3 26 3 22 17 -4 15 -17 -2 -36 1 -44 5 -10 7 -12 5 -6 -4 5 -8 4
-11 -3 -6 -6 4 -9 13 -5 22 4 10 9 11 17 5 16 -13 56 -2 57 15 1 8 3 19 4 24
1 6 3 15 4 22 0 6 4 8 8 4 4 -4 6 -24 4 -44 -1 -20 1 -33 6 -29 8 9 9 14 12
43 0 8 5 13 10 9 5 -3 13 0 17 6 4 7 3 9 -2 6 -14 -8 -38 9 -30 21 3 6 17 9
31 6 26 -5 42 10 24 22 -8 4 -9 3 -5 -4 4 -7 2 -12 -4 -12 -22 0 -4 23 35 44
22 11 43 26 47 31 7 9 9 8 12 -14 0 -5 4 -12 9 -15 4 -3 5 -3 2 1 -3 3 9 14
25 24 17 11 30 23 30 29 0 5 -9 1 -20 -10 -22 -22 -40 -26 -40 -9 0 5 4 8 9 5
5 -3 14 1 21 9 17 20 153 89 144 73 -4 -7 4 -4 17 8 29 25 77 46 89 39 5 -3
10 0 12 5 2 6 14 12 28 14 14 2 39 9 55 15 62 26 132 34 275 34 184 0 325 -52
445 -165 81 -75 138 -169 181 -297 18 -53 33 -91 34 -84 0 6 7 73 16 150 24
199 24 566 0 698 -21 119 -65 256 -109 339 -41 80 -163 202 -244 244 -125 66
-322 94 -479 68z m-684 -1301 c0 -8 -7 -15 -16 -15 -14 0 -14 3 -4 15 7 8 14
15 16 15 2 0 4 -7 4 -15z m-203 -197 c0 -13 -1 -17 -4 -10 -3 6 -9 12 -14 12
-6 0 -7 -5 -3 -12 5 -7 3 -8 -6 -3 -10 6 -9 11 5 22 11 7 19 13 20 13 0 0 1
-10 2 -22z m-86 -65 c11 -13 11 -15 1 -9 -9 5 -15 1 -19 -13 -6 -23 -18 -27
-29 -9 -5 7 -3 8 6 3 10 -6 12 -4 7 9 -13 34 11 48 34 19z m-71 -37 c0 -3 -4
-8 -10 -11 -5 -3 -10 -1 -10 4 0 6 5 11 10 11 6 0 10 -2 10 -4z m-5 -44 c-3
-3 -11 0 -18 7 -9 10 -8 11 6 5 10 -3 15 -9 12 -12z m-27 -27 c-3 -3 -9 2 -12
12 -6 14 -5 15 5 6 7 -7 10 -15 7 -18z m-40 -2 c-9 -10 -14 -24 -12 -31 1 -7
0 -8 -3 -2 -2 5 -9 8 -13 5 -5 -3 -12 0 -16 6 -4 7 -3 9 3 6 6 -4 18 2 28 13
22 25 34 27 13 3z m-48 -48 c0 -2 -6 -8 -13 -14 -10 -8 -14 -7 -14 2 0 8 6 14
14 14 7 0 13 -1 13 -2z m20 -9 c0 -2 -8 -10 -17 -17 -16 -13 -17 -12 -4 4 13
16 21 21 21 13z m-145 -165 c-9 -8 -36 -10 -30 -2 2 4 11 8 20 8 8 0 13 -3 10
-6z m-151 -157 c3 -8 2 -12 -4 -9 -6 3 -10 10 -10 16 0 14 7 11 14 -7z m929
-312 c-20 -21 -28 -20 -20 3 4 8 13 15 22 15 13 0 12 -3 -2 -18z m-63 -89
c-27 -25 -48 -49 -44 -54 3 -5 0 -9 -5 -9 -6 0 -11 7 -11 15 0 8 4 15 8 15 5
0 8 10 7 23 -3 31 11 46 41 42 15 -1 28 3 31 11 3 8 9 11 14 8 5 -3 -13 -26
-41 -51z m-342 -387 c-7 -8 -15 -12 -17 -11 -5 6 10 25 20 25 5 0 4 -6 -3 -14z
m20 -36 c-7 -11 -17 -20 -22 -20 -5 0 -1 9 9 20 10 11 20 20 22 20 2 0 -2 -9
-9 -20z m-128 -197 c0 -2 -10 -1 -22 3 -13 3 -20 3 -16 -1 10 -11 -12 -36 -24
-29 -6 4 -8 -1 -4 -13 4 -13 0 -25 -11 -34 -16 -13 -17 -12 -5 2 9 13 10 24 2
45 -6 16 -8 25 -4 21 9 -9 35 13 29 24 -3 4 8 3 25 -2 16 -6 30 -13 30 -16z
m-10 -16 c0 -2 -10 -12 -22 -23 l-23 -19 19 23 c18 21 26 27 26 19z m-9 -184
c13 -17 12 -17 -4 -4 -15 12 -20 12 -27 2 -5 -8 -10 -9 -14 -3 -5 9 6 19 25
21 4 1 13 -7 20 -16z m-51 -199 c0 -8 5 -14 12 -14 6 0 9 -2 6 -5 -10 -11 -34
6 -35 25 -1 11 2 18 8 15 5 -4 9 -13 9 -21z m71 10 c13 3 18 3 11 0 -6 -3 -10
-10 -7 -15 4 -5 -3 -5 -16 0 -13 4 -25 14 -27 22 -3 12 -2 12 6 0 6 -8 19 -11
33 -7z m46 -30 c-3 -3 -12 -4 -19 -1 -8 3 -5 6 6 6 11 1 17 -2 13 -5z m-512
-223 c3 -5 2 -12 -3 -15 -5 -3 -9 1 -9 9 0 17 3 19 12 6z"/>
<path d="M51469 14065 c0 0 -2 -11 -5 -25 -2 -14 -1 -20 3 -15 5 6 16 18 26
27 16 16 16 17 -3 15 -11 -1 -20 -1 -21 -2z"/>
<path d="M50990 13409 c0 -5 5 -7 10 -4 6 3 10 8 10 11 0 2 -4 4 -10 4 -5 0
-10 -5 -10 -11z"/>
<path d="M68450 16283 c-151 -11 -379 -61 -535 -118 -55 -20 -106 -37 -113
-37 -8 -1 -71 -62 -142 -137 -628 -665 -1129 -1374 -1584 -2243 l-78 -148 59
0 c32 0 96 6 143 14 89 15 399 92 409 102 3 3 28 41 56 84 98 154 465 651 522
708 7 8 10 18 7 24 -4 6 -2 8 4 4 14 -9 75 70 66 86 -4 7 -3 10 1 5 11 -9 75
52 75 71 0 9 -9 7 -32 -9 -18 -13 -27 -16 -21 -8 7 9 10 19 6 23 -4 4 1 4 11
0 13 -5 17 -4 12 4 -4 7 2 9 20 6 16 -3 23 -1 19 6 -3 5 1 10 9 10 18 0 48 42
44 61 -2 8 4 13 14 11 19 -3 80 67 71 81 -3 6 -1 7 4 4 6 -4 19 3 29 14 15 16
16 24 6 39 -15 24 1 35 19 13 12 -14 12 -16 0 -8 -10 5 -12 4 -7 -4 10 -16 29
-3 22 16 -3 8 -2 12 2 9 10 -6 22 3 42 28 9 12 10 17 3 12 -9 -5 -11 -2 -7 8
3 9 10 13 15 10 5 -3 9 0 9 5 0 6 -4 11 -10 11 -5 0 -10 11 -10 24 0 14 5 28
10 31 14 9 12 25 -2 20 -10 -4 -12 25 -10 130 3 144 11 164 50 134 14 -11 14
-10 -2 8 l-19 22 -31 -21 c-29 -20 -30 -20 -13 -2 9 11 17 26 17 33 0 7 6 11
14 8 7 -3 13 0 12 7 -1 12 117 146 129 146 2 0 2 -6 -1 -14 -3 -8 -1 -17 4
-20 5 -3 8 6 6 19 -3 35 76 114 111 111 13 -2 22 1 19 6 -3 5 -12 7 -20 4 -8
-3 -14 -2 -14 3 0 11 83 77 93 73 5 -1 6 1 3 6 -7 11 125 128 139 124 5 -2 7
-1 3 3 -9 9 119 113 237 192 121 81 207 128 300 162 64 23 73 29 54 34 -24 7
-162 7 -249 0z m-850 -933 c0 -5 -5 -9 -11 -7 -6 1 -14 -4 -17 -12 -2 -8 0
-11 5 -8 5 3 9 -3 9 -14 0 -18 -2 -19 -12 -4 -8 11 -14 13 -19 5 -5 -8 -11 -8
-19 -1 -7 6 -17 7 -22 3 -4 -4 -2 1 5 11 11 14 16 15 29 5 13 -11 15 -10 9 5
-4 10 -3 16 2 12 5 -3 12 -1 16 5 8 13 25 13 25 0z m-116 -91 c-13 -15 -14
-19 -3 -20 10 0 11 -2 1 -6 -6 -2 -9 -10 -6 -15 4 -7 2 -8 -5 -4 -6 4 -9 12
-6 17 10 15 -11 10 -25 -6 -6 -8 -8 -20 -4 -27 5 -10 4 -10 -7 0 -12 12 -9 18
21 43 19 17 34 35 32 40 -1 6 2 7 8 4 8 -5 6 -13 -6 -26z m-58 -97 c1 -17 -2
-19 -16 -12 -10 5 -21 6 -25 2 -4 -4 -2 3 4 16 15 28 36 24 37 -6z m49 -282
c7 -12 -12 -50 -26 -50 -6 0 -3 7 5 16 21 20 21 41 1 24 -13 -11 -14 -10 -9 4
7 18 20 21 29 6z m-81 -99 c3 -4 -3 -16 -13 -25 -15 -13 -18 -14 -18 -1 0 8 4
12 8 9 4 -2 10 0 13 5 4 5 -2 12 -11 14 -16 4 -16 5 -1 6 9 0 19 -3 22 -8z"/>
<path d="M67400 15170 c0 -5 5 -10 10 -10 6 0 10 5 10 10 0 6 -4 10 -10 10 -5
0 -10 -4 -10 -10z"/>
<path d="M57439 16137 c-430 -576 -966 -1494 -1593 -2732 -127 -250 -150 -301
-119 -266 21 25 116 140 212 255 425 513 656 773 921 1036 181 179 205 207
292 340 121 186 275 402 397 555 118 149 333 366 429 432 l72 51 -105 -6 c-99
-5 -305 12 -333 27 -29 16 253 301 383 387 59 40 68 49 33 38 -39 -12 -248 -6
-358 10 -57 9 -108 16 -114 16 -6 0 -59 -64 -117 -143z"/>
<path d="M64058 16203 c-8 -10 -70 -119 -138 -243 -68 -124 -144 -263 -170
-310 -269 -492 -755 -1445 -973 -1910 -476 -1017 -728 -1703 -834 -2270 -13
-71 -17 -146 -17 -300 0 -202 0 -206 30 -290 16 -47 33 -84 38 -83 5 1 24 55
42 120 122 448 386 1112 750 1888 196 419 691 1394 919 1810 18 33 80 148 138
255 58 107 188 345 290 528 103 184 181 335 175 338 -22 14 -116 34 -160 34
-27 0 -48 3 -48 8 0 4 49 95 109 202 125 223 125 209 0 229 -93 16 -134 14
-151 -6z"/>
<path d="M67870 16196 c0 -2 8 -10 18 -17 15 -13 16 -12 3 4 -13 16 -21 21
-21 13z"/>
<path d="M69112 16144 l23 -47 3 38 c4 42 5 40 -26 50 l-22 6 22 -47z"/>
<path d="M31560 16071 c0 -6 4 -13 10 -16 6 -3 7 1 4 9 -7 18 -14 21 -14 7z"/>
<path d="M60467 15796 c-77 -191 -364 -763 -612 -1216 -295 -539 -622 -1146
-719 -1335 -62 -119 -71 -142 -44 -110 18 22 102 123 187 225 290 348 527 613
836 935 l202 210 67 147 c74 164 145 349 172 448 25 92 23 218 -5 299 -20 59
-21 66 -7 110 41 127 43 229 9 330 -31 91 -34 90 -86 -43z"/>
<path d="M69570 15682 c-88 -243 -241 -503 -455 -772 -36 -44 -63 -95 -88
-160 -110 -286 -320 -609 -571 -877 -32 -35 -63 -60 -69 -56 -6 3 -7 1 -3 -5
7 -12 -12 -33 -149 -162 -158 -148 -303 -262 -320 -253 -7 4 -7 2 0 -5 14 -14
30 -19 32 -9 1 5 42 32 90 61 120 71 206 132 350 249 731 588 1142 1168 1274
1796 24 115 21 138 -30 238 l-26 52 -35 -97z"/>
<path d="M67915 15720 c-8 -13 9 -20 24 -11 10 6 9 10 -3 14 -8 3 -18 2 -21
-3z"/>
<path d="M67844 15649 c-3 -6 -2 -15 3 -20 5 -5 9 -1 9 11 0 23 -2 24 -12 9z"/>
<path d="M67875 15649 c-11 -16 -1 -19 13 -3 7 8 8 14 3 14 -5 0 -13 -5 -16
-11z"/>
<path d="M67796 15602 c-2 -4 4 -8 14 -8 10 0 16 4 14 8 -3 4 -9 8 -14 8 -5 0
-11 -4 -14 -8z"/>
<path d="M67795 15569 c-11 -16 -1 -19 13 -3 7 8 8 14 3 14 -5 0 -13 -5 -16
-11z"/>
<path d="M67681 15486 c-26 -27 -37 -44 -27 -42 9 1 22 8 28 14 16 16 31 15
22 0 -4 -7 -4 -10 0 -6 4 3 8 10 8 15 -1 4 7 17 16 28 17 20 17 20 -4 3 -31
-27 -41 -22 -14 7 41 43 16 27 -29 -19z m9 -10 c0 -2 -8 -10 -17 -17 -16 -13
-17 -12 -4 4 13 16 21 21 21 13z"/>
<path d="M32199 15484 c-16 -20 -19 -54 -4 -48 13 5 37 64 25 64 -4 0 -13 -7
-21 -16z"/>
<path d="M67650 15423 c0 -6 8 -17 18 -24 16 -13 16 -13 2 6 -8 11 -16 22 -17
24 -2 2 -3 0 -3 -6z"/>
<path d="M51720 15405 c-11 -13 -10 -14 4 -9 12 5 15 2 10 -12 -5 -15 -4 -16
4 -5 6 8 8 20 5 28 -6 16 -8 16 -23 -2z"/>
<path d="M18777 15373 c-10 -9 -9 -23 1 -23 5 0 9 7 9 15 0 17 -1 18 -10 8z"/>
<path d="M67959 15353 c-13 -16 -12 -17 4 -4 16 13 21 21 13 21 -2 0 -10 -8
-17 -17z"/>
<path d="M18763 15312 c-8 -14 -8 -19 1 -19 7 0 13 9 13 19 1 10 1 18 0 18 -1
0 -7 -8 -14 -18z"/>
<path d="M51655 15310 c-3 -5 -1 -10 4 -10 6 0 11 5 11 10 0 6 -2 10 -4 10 -3
0 -8 -4 -11 -10z"/>
<path d="M51514 15295 c-10 -8 -14 -15 -7 -15 6 0 15 5 19 11 3 6 15 9 25 6
11 -3 17 -1 13 4 -8 13 -28 11 -50 -6z"/>
<path d="M67879 15283 c-13 -16 -12 -17 4 -4 9 7 17 15 17 17 0 8 -8 3 -21
-13z"/>
<path d="M61720 15123 c-582 -392 -1000 -734 -1480 -1213 -431 -430 -584 -606
-922 -1060 -656 -881 -1096 -1609 -1324 -2192 -49 -126 -113 -326 -129 -407
l-7 -33 -72 7 c-243 23 -398 162 -521 468 -38 94 -39 92 -57 -95 -9 -102 -9
-146 1 -221 11 -76 11 -116 1 -206 -22 -199 3 -335 96 -527 122 -251 250 -350
492 -378 62 -8 54 -20 106 166 84 303 285 736 544 1173 423 713 1075 1606
1651 2260 159 181 226 251 451 475 559 559 1027 913 1292 979 l72 17 72 116
c179 286 254 466 254 610 0 71 -4 91 -22 119 -32 47 -117 88 -198 95 l-65 5
-235 -158z m125 -362 c-6 -4 -79 -54 -164 -111 -457 -303 -818 -592 -1251
-999 l-155 -146 131 137 c119 124 330 332 415 409 454 409 769 635 984 705 50
16 51 16 40 5z"/>
<path d="M18844 15227 c1 -15 6 -30 10 -35 4 -4 6 -2 5 3 -2 6 2 20 9 33 8 14
9 22 2 22 -5 0 -10 -6 -10 -12 0 -9 -3 -8 -10 2 -7 11 -8 8 -6 -13z"/>
<path d="M51483 15225 c0 -8 4 -12 9 -9 5 3 6 10 3 15 -9 13 -12 11 -12 -6z"/>
<path d="M67697 15179 c4 -13 8 -18 11 -10 2 7 -1 18 -6 23 -8 8 -9 4 -5 -13z"/>
<path d="M18801 15164 c0 -11 3 -14 6 -6 3 7 2 16 -1 19 -3 4 -6 -2 -5 -13z"/>
<path d="M67710 15105 c-7 -9 -20 -13 -29 -10 -8 3 -12 3 -8 -1 4 -4 -1 -17
-10 -28 -10 -11 1 -5 25 13 38 30 49 41 38 41 -2 0 -9 -7 -16 -15z"/>
<path d="M51261 15087 c-7 -10 -20 -17 -27 -17 -8 0 -14 -4 -14 -9 0 -8 48 -7
57 2 3 3 3 13 1 23 -3 16 -4 16 -17 1z"/>
<path d="M18653 15067 c0 -7 9 -14 19 -14 16 -2 16 0 4 13 -18 17 -23 18 -23
1z"/>
<path d="M18700 15059 c0 -5 5 -7 10 -4 6 3 10 8 10 11 0 2 -4 4 -10 4 -5 0
-10 -5 -10 -11z"/>
<path d="M18770 15041 c0 -6 4 -12 8 -15 5 -3 9 1 9 9 0 8 -4 15 -9 15 -4 0
-8 -4 -8 -9z"/>
<path d="M18740 15036 c0 -2 7 -9 15 -16 13 -11 14 -10 9 4 -5 14 -24 23 -24
12z"/>
<path d="M53406 14955 c-49 -513 -258 -1143 -605 -1820 -327 -638 -725 -1182
-1269 -1734 -106 -107 -192 -197 -192 -199 0 -3 25 -42 55 -87 93 -141 228
-249 387 -311 l67 -27 41 44 c22 24 46 44 53 44 7 1 11 7 9 13 -3 17 23 43 33
34 5 -4 5 -1 0 6 -5 9 4 24 26 44 19 16 27 26 19 23 -8 -4 -3 4 11 17 14 13
28 32 32 41 3 9 11 17 17 17 5 0 10 6 10 13 0 7 9 18 20 25 11 7 20 16 20 22
0 5 27 45 59 88 33 44 77 104 99 135 22 31 43 53 46 49 4 -4 6 -2 4 4 -2 6 38
73 88 150 238 362 398 661 587 1094 242 557 364 1017 396 1500 11 165 12 762
2 842 l-7 53 -8 -80z"/>
<path d="M18736 15002 c-3 -5 1 -9 9 -9 8 0 12 4 9 9 -3 4 -7 8 -9 8 -2 0 -6
-4 -9 -8z"/>
<path d="M18612 14955 c-17 -37 -14 -45 4 -12 9 16 14 31 11 33 -2 2 -9 -7
-15 -21z"/>
<path d="M18746 14967 c3 -10 9 -15 12 -12 3 3 0 11 -7 18 -10 9 -11 8 -5 -6z"/>
<path d="M31927 14953 c3 -7 6 -13 8 -13 2 0 5 6 8 13 3 8 -1 14 -8 14 -7 0
-11 -6 -8 -14z"/>
<path d="M31970 14956 c0 -2 7 -7 16 -10 8 -3 12 -2 9 4 -6 10 -25 14 -25 6z"/>
<path d="M18626 14935 c-9 -26 -7 -32 5 -12 6 10 9 21 6 23 -2 3 -7 -2 -11
-11z"/>
<path d="M18720 14928 c0 -9 5 -20 10 -23 13 -8 13 5 0 25 -8 13 -10 13 -10
-2z"/>
<path d="M31954 14908 l-19 -23 23 19 c12 11 22 21 22 23 0 8 -8 2 -26 -19z"/>
<path d="M31979 14903 c-13 -16 -12 -17 4 -4 9 7 17 15 17 17 0 8 -8 3 -21
-13z"/>
<path d="M18710 14859 c-7 -11 -10 -23 -7 -25 2 -2 9 7 15 21 14 30 7 33 -8 4z"/>
<path d="M31920 14861 c0 -6 4 -13 10 -16 6 -3 7 1 4 9 -7 18 -14 21 -14 7z"/>
<path d="M18671 14828 c0 -10 -6 -17 -12 -15 -6 1 -13 -6 -14 -15 -2 -10 1
-18 7 -18 7 0 6 -5 -1 -14 -9 -10 -8 -15 3 -19 9 -4 18 -1 22 5 4 6 3 8 -3 5
-6 -4 -10 4 -10 19 0 17 4 24 13 20 7 -3 16 0 20 6 4 6 3 8 -4 4 -6 -3 -12 3
-15 16 -3 15 -5 17 -6 6z"/>
<path d="M31923 14815 c0 -6 6 -12 12 -12 6 0 12 6 12 12 0 6 -6 12 -12 12 -6
0 -12 -6 -12 -12z"/>
<path d="M18615 14619 c-4 -6 -5 -12 -2 -15 2 -3 7 2 10 11 7 17 1 20 -8 4z"/>
<path d="M51700 14305 c-6 -8 -10 -20 -7 -27 3 -8 6 -6 6 5 1 10 11 22 24 27
15 6 17 9 6 9 -9 1 -22 -6 -29 -14z"/>
<path d="M51715 14290 c-11 -17 5 -32 21 -19 7 6 11 15 8 20 -7 12 -21 11 -29
-1z"/>
<path d="M31695 14279 c-4 -6 -5 -12 -2 -15 2 -3 7 2 10 11 7 17 1 20 -8 4z"/>
<path d="M51691 14244 c6 -7 16 -11 21 -8 11 7 3 17 -18 20 -12 2 -13 -1 -3
-12z"/>
<path d="M51609 14246 c0 -1 -2 -9 -4 -19 -3 -18 -3 -18 16 -1 10 9 19 18 19
19 0 2 -29 3 -31 1z"/>
<path d="M31640 14236 c0 -2 7 -7 16 -10 8 -3 12 -2 9 4 -6 10 -25 14 -25 6z"/>
<path d="M51666 14218 c3 -5 10 -6 15 -3 13 9 11 12 -6 12 -8 0 -12 -4 -9 -9z"/>
<path d="M51623 14175 c0 -8 4 -12 9 -9 5 3 6 10 3 15 -9 13 -12 11 -12 -6z"/>
<path d="M23205 14068 c-183 -303 -496 -785 -738 -1138 -698 -1018 -1699
-2314 -2301 -2980 -171 -189 -657 -681 -796 -806 -60 -53 -107 -101 -104 -106
3 -5 1 -7 -4 -6 -5 2 -33 -18 -63 -43 -30 -26 -75 -65 -101 -87 -45 -38 -46
-41 -28 -57 17 -15 19 -15 29 2 6 10 10 14 10 8 0 -5 -6 -21 -14 -35 -10 -18
-14 -20 -15 -8 0 9 -4 19 -8 22 -4 3 -7 -8 -6 -23 3 -42 -10 -55 -55 -57 -43
-1 -55 10 -21 21 11 3 20 13 20 22 0 12 3 13 14 4 12 -10 17 -9 24 6 17 33 2
47 -24 22 -13 -12 -24 -19 -24 -14 0 4 -9 -4 -21 -19 -11 -14 -24 -24 -28 -21
-12 7 -42 -30 -34 -40 5 -4 3 -6 -2 -2 -19 10 -38 -10 -40 -44 -2 -19 -3 -36
-4 -38 0 -2 -13 4 -28 13 -28 17 -28 17 -6 -2 14 -13 22 -33 24 -62 3 -39 0
-45 -29 -65 -21 -14 -28 -25 -20 -27 8 -3 3 -11 -15 -22 -22 -15 -30 -16 -43
-5 -12 10 -15 10 -12 -2 2 -8 -3 -13 -10 -11 -10 2 -10 -2 -3 -16 13 -24 -9
-59 -29 -47 -9 5 -11 4 -6 -3 10 -16 -7 -15 -23 1 -10 10 -12 9 -9 -3 2 -9 -3
-14 -11 -12 -12 3 -12 0 -2 -12 11 -13 10 -20 -3 -41 -9 -14 -23 -25 -31 -25
-8 0 -15 -6 -15 -14 0 -11 -62 -71 -219 -213 -14 -12 -28 -20 -33 -17 -5 3 -7
1 -6 -3 7 -21 -263 -234 -482 -380 -260 -173 -384 -243 -522 -292 -301 -105
-540 -35 -652 193 -20 39 -43 103 -51 141 l-16 70 -107 23 c-502 108 -827 468
-946 1044 -13 64 -26 104 -29 94 -15 -38 -19 -265 -8 -366 49 -429 181 -750
401 -971 132 -133 271 -217 463 -278 171 -54 257 -66 502 -66 192 0 233 3 325
23 271 60 589 192 890 372 58 35 114 68 125 74 33 19 172 114 303 208 67 48
125 88 128 88 7 0 67 49 100 81 13 13 27 18 35 14 7 -5 10 -4 6 2 -11 18 52
63 95 68 10 1 21 5 25 10 5 4 0 5 -9 2 -10 -3 -20 -1 -24 6 -4 7 -4 9 1 5 4
-4 14 0 22 10 8 9 11 11 8 4 -5 -9 1 -15 14 -19 12 -3 21 -9 21 -14 0 -5 -8
-6 -17 -2 -16 6 -15 3 2 -18 13 -15 14 -19 3 -11 -11 9 -18 10 -23 2 -3 -5
-12 -10 -18 -10 -7 0 -6 4 3 10 13 8 12 10 -3 10 -16 0 -43 -47 -33 -58 3 -2
-5 -13 -17 -24 l-22 -19 25 12 c21 10 23 10 14 -2 -7 -8 -14 -79 -17 -172 -5
-144 -4 -158 11 -155 9 2 16 12 15 22 0 11 4 15 14 12 8 -3 11 -1 8 4 -3 6 -1
10 4 10 6 0 11 7 11 16 0 13 3 14 13 5 11 -8 18 -6 33 11 10 12 13 18 5 13
-10 -6 -12 -4 -7 4 5 7 14 10 22 7 7 -3 16 0 20 6 4 7 3 8 -4 4 -7 -4 -12 -2
-12 4 0 6 -4 9 -9 5 -11 -6 -26 13 -17 22 9 10 75 10 69 1 -3 -5 -11 -7 -19
-4 -7 3 -16 1 -19 -4 -4 -6 2 -10 13 -10 22 0 55 33 45 45 -5 4 -1 6 8 2 16
-5 56 30 51 46 -1 5 2 6 7 3 12 -8 73 43 66 54 -3 5 0 12 6 16 8 4 9 3 5 -4
-17 -28 12 -7 98 70 164 149 238 220 461 443 193 193 282 287 499 526 157 172
334 385 624 748 734 920 1323 1722 1861 2535 l188 285 17 113 c45 291 158 785
271 1180 31 106 58 199 60 206 10 28 -5 6 -70 -100z m-4030 -5166 c-3 -3 -11
0 -18 7 -9 10 -8 11 6 5 10 -3 15 -9 12 -12z m-45 -29 c0 -3 -7 -2 -15 1 -9 3
-18 -1 -21 -9 -4 -8 -11 -12 -17 -8 -14 9 21 33 39 26 8 -3 14 -7 14 -10z
m-93 -58 c0 -8 -4 -12 -9 -9 -5 3 -6 10 -3 15 9 13 12 11 12 -6z m-96 -68
c-10 -9 -11 -8 -5 6 3 10 9 15 12 12 3 -3 0 -11 -7 -18z m79 -18 c0 -5 -6 -8
-12 -6 -7 1 -12 -4 -10 -11 1 -8 -2 -11 -8 -7 -7 4 -10 0 -8 -10 2 -10 -3 -19
-10 -21 -7 -1 -8 0 -2 3 6 3 6 11 -1 25 -8 15 -8 19 1 13 7 -4 13 1 17 13 5
20 33 20 33 1z m-76 -94 c-1 -4 -15 -19 -31 -34 l-30 -27 0 28 c0 22 3 25 14
17 10 -9 13 -7 13 9 0 14 6 19 18 18 9 -2 16 -6 16 -11z m-180 -186 c-3 -5
-10 -7 -15 -3 -5 3 -7 10 -3 15 3 5 10 7 15 3 5 -3 7 -10 3 -15z m-80 -80 c-3
-5 -10 -7 -15 -3 -5 3 -7 10 -3 15 3 5 10 7 15 3 5 -3 7 -10 3 -15z m412 -8
c0 -26 -2 -28 -18 -20 -22 12 -24 23 -2 15 11 -4 15 -2 11 8 -5 11 0 26 8 26
1 0 1 -13 1 -29z m-54 -28 c-6 -2 -9 -10 -6 -15 4 -7 2 -8 -5 -4 -13 9 -5 26
12 25 9 0 8 -2 -1 -6z m-5 -62 l1 -26 -12 29 c-12 26 -13 27 -18 8 -3 -12 -1
-23 6 -26 6 -2 1 -3 -10 -3 -14 1 -20 6 -17 14 4 9 0 11 -11 7 -12 -5 -11 0 6
19 27 30 53 20 55 -22z m-77 -32 c0 -5 -4 -9 -10 -9 -5 0 -10 7 -10 16 0 8 5
12 10 9 6 -3 10 -10 10 -16z m263 -134 c-3 -9 -8 -14 -10 -11 -3 3 -2 9 2 15
9 16 15 13 8 -4z m-125 -112 c2 -7 -3 -16 -12 -19 -9 -3 -13 -11 -9 -17 3 -6
1 -7 -6 -3 -6 4 -9 12 -6 17 4 5 2 9 -4 9 -5 0 -12 -6 -15 -12 -2 -7 -3 -2 -1
12 2 14 4 26 4 26 5 7 45 -4 49 -13z m-196 -157 c7 4 8 2 4 -4 -11 -18 -26
-14 -25 6 0 10 3 12 6 4 2 -6 10 -9 15 -6z"/>
<path d="M51603 14145 c0 -8 4 -12 9 -9 5 3 6 10 3 15 -9 13 -12 11 -12 -6z"/>
<path d="M51720 13881 c0 -6 5 -13 12 -17 6 -4 8 -3 4 4 -3 5 0 13 6 15 8 3 6
6 -4 6 -10 1 -18 -3 -18 -8z"/>
<path d="M51740 13826 c0 -8 4 -17 9 -20 5 -4 7 3 4 14 -6 23 -13 26 -13 6z"/>
<path d="M51700 13825 c0 -5 5 -17 10 -25 5 -8 10 -10 10 -5 0 6 -5 17 -10 25
-5 8 -10 11 -10 5z"/>
<path d="M67813 13735 c0 -8 4 -12 9 -9 5 3 6 10 3 15 -9 13 -12 11 -12 -6z"/>
<path d="M51656 13658 c-3 -13 -6 -25 -7 -28 0 -3 -6 -12 -12 -20 -6 -8 -7
-12 -3 -8 5 4 15 3 22 -3 8 -7 14 -7 19 1 4 6 3 9 -2 8 -4 -2 -8 2 -8 7 0 6 4
9 8 7 5 -1 5 3 0 10 -4 7 -6 21 -5 31 5 25 -5 21 -12 -5z"/>
<path d="M67700 13665 c-19 -22 -8 -25 13 -3 9 10 13 18 8 18 -5 0 -14 -7 -21
-15z"/>
<path d="M67644 13634 c-18 -14 -18 -14 6 -3 31 14 36 19 24 19 -6 0 -19 -7
-30 -16z"/>
<path d="M67585 13600 c-4 -6 -1 -19 6 -28 11 -14 10 -13 -8 1 -12 11 -27 16
-32 12 -14 -8 -14 -25 0 -25 5 0 7 5 3 12 -5 7 -3 8 5 3 9 -5 10 -10 2 -18 -8
-8 -14 -8 -22 0 -9 9 -43 -4 -133 -50 -66 -34 -127 -68 -134 -77 -8 -8 -11
-10 -7 -3 3 7 -52 -12 -123 -41 -155 -65 -375 -142 -537 -190 -136 -40 -321
-86 -347 -86 -14 0 -7 18 33 87 28 49 55 95 59 103 7 14 -8 13 -113 -7 -67
-12 -180 -26 -250 -29 l-128 -7 -15 -36 c-71 -168 -159 -482 -198 -711 -58
-330 -78 -780 -47 -1010 l15 -105 8 55 c44 278 137 626 217 813 l20 47 78 0
c145 0 387 45 683 127 197 54 612 191 621 205 3 5 9 9 13 7 4 -1 31 6 61 16
40 14 52 22 47 34 -5 14 -4 14 13 1 10 -8 16 -10 12 -4 -4 7 0 15 9 18 8 3 12
2 9 -4 -8 -13 -4 -13 41 6 22 9 52 28 69 42 16 15 23 19 16 10 -7 -10 -11 -18
-9 -18 10 0 102 49 93 49 -6 1 -8 62 -5 173 5 166 1 221 -13 184 -4 -9 -1 -16
5 -16 6 0 8 -3 5 -6 -4 -4 -14 -1 -24 7 -14 12 -16 12 -8 0 6 -11 4 -13 -8 -8
-9 3 -23 -1 -32 -9 -8 -9 -15 -12 -15 -7 0 4 -5 0 -11 -9 -5 -9 -15 -15 -22
-13 -19 7 -50 -22 -41 -37 6 -10 5 -11 -7 -1 -12 10 -21 9 -45 -6 -16 -10 -46
-24 -67 -30 -22 -8 -34 -17 -31 -23 4 -6 2 -8 -4 -5 -5 4 -48 -9 -94 -29 -316
-137 -735 -267 -989 -309 -92 -15 -209 -20 -209 -10 0 6 50 107 55 113 2 2 66
14 142 27 136 24 321 66 458 106 132 38 480 151 550 179 39 15 98 38 132 50
38 13 60 27 56 33 -4 6 0 8 8 5 8 -3 31 1 50 10 18 8 41 16 49 18 8 2 16 8 18
13 2 6 14 11 27 11 27 0 42 16 23 23 -7 2 -4 3 6 1 36 -6 41 19 38 201 -3 159
-9 195 -27 165z m-51 -58 c3 -5 -1 -9 -9 -9 -8 0 -12 4 -9 9 3 4 7 8 9 8 2 0
6 -4 9 -8z m66 -2 c0 -5 -2 -10 -4 -10 -3 0 -8 5 -11 10 -3 6 -1 10 4 10 6 0
11 -4 11 -10z m-190 -61 c0 -6 7 -8 18 -4 14 5 15 4 5 -6 -10 -10 -16 -10 -24
-2 -6 6 -19 9 -28 6 -14 -4 -14 -3 -1 6 19 14 30 14 30 0z m196 -211 c4 -7 3
-8 -4 -4 -7 4 -12 2 -12 -3 0 -6 -8 -11 -17 -11 -16 1 -16 2 1 15 24 18 23 18
32 3z m-231 -68 c3 -5 1 -10 -4 -10 -6 0 -11 5 -11 10 0 6 2 10 4 10 3 0 8 -4
11 -10z m87 1 c-8 -4 -14 -12 -15 -17 -1 -5 -11 -10 -21 -11 -17 -3 -17 -1 4
17 13 11 28 20 34 20 6 0 5 -4 -2 -9z m31 -126 c0 -6 -7 -11 -16 -11 -16 -2
-16 -1 -1 3 14 4 15 7 3 15 -11 7 -11 9 -1 6 8 -2 14 -8 15 -13z m-93 -39 c0
-3 -4 -8 -10 -11 -5 -3 -10 -1 -10 4 0 6 5 11 10 11 6 0 10 -2 10 -4z m135
-236 c-3 -5 -12 -10 -18 -10 -7 0 -6 4 3 10 19 12 23 12 15 0z m29 -2 c-5 -8
-1 -9 12 -4 14 5 16 4 7 -5 -13 -13 -37 -3 -28 12 4 5 8 9 11 9 3 0 2 -5 -2
-12z m-67 -24 c-3 -3 -12 -4 -19 -1 -8 3 -5 6 6 6 11 1 17 -2 13 -5z"/>
<path d="M51620 13560 c8 -5 20 -10 25 -10 6 0 3 5 -5 10 -8 5 -19 10 -25 10
-5 0 -3 -5 5 -10z"/>
<path d="M51565 13441 c3 -5 -1 -12 -7 -14 -8 -3 -6 -6 5 -6 10 -1 15 -5 12
-11 -3 -5 0 -10 7 -10 8 0 6 -5 -4 -11 -10 -5 -18 -15 -18 -20 0 -14 34 21 36
37 1 8 -2 14 -7 14 -6 0 -8 4 -5 9 3 5 -1 12 -10 15 -8 3 -13 2 -9 -3z"/>
<path d="M51530 13355 c-8 -9 -8 -15 -2 -15 12 0 26 19 19 26 -2 2 -10 -2 -17
-11z"/>
<path d="M67705 13360 c3 -5 11 -10 16 -10 6 0 7 5 4 10 -3 6 -11 10 -16 10
-6 0 -7 -4 -4 -10z"/>
<path d="M51549 13333 c-13 -16 -12 -17 4 -4 16 13 21 21 13 21 -2 0 -10 -8
-17 -17z"/>
<path d="M67715 13319 c-4 -6 -5 -12 -2 -15 2 -3 7 2 10 11 7 17 1 20 -8 4z"/>
<path d="M51570 13309 c0 -5 5 -7 10 -4 6 3 10 8 10 11 0 2 -4 4 -10 4 -5 0
-10 -5 -10 -11z"/>
<path d="M51505 13300 c3 -5 1 -10 -5 -10 -8 0 -8 -6 0 -20 9 -17 8 -20 -7
-20 -15 0 -16 -2 -3 -10 19 -12 20 -9 26 34 2 22 0 36 -6 36 -6 0 -8 -4 -5
-10z"/>
<path d="M67855 13300 c-3 -6 1 -7 9 -4 18 7 21 14 7 14 -6 0 -13 -4 -16 -10z"/>
<path d="M67630 13276 c7 -7 13 -7 20 0 6 6 3 10 -10 10 -13 0 -16 -4 -10 -10z"/>
<path d="M67766 13265 c-11 -8 -15 -15 -9 -15 6 0 16 7 23 15 16 19 11 19 -14
0z"/>
<path d="M70025 13250 c-51 -11 -91 -37 -139 -92 -50 -55 -87 -126 -227 -438
-426 -949 -938 -1762 -1414 -2250 -204 -209 -433 -409 -449 -393 -3 3 -6 2 -6
-4 0 -12 -92 -81 -113 -86 -6 -1 -11 3 -10 8 1 6 -7 11 -17 11 -11 0 -17 -2
-15 -5 3 -2 -3 -14 -12 -25 -18 -21 -18 -21 5 -2 12 11 25 16 29 12 7 -6 -33
-45 -47 -46 -3 0 -4 89 -2 197 3 171 6 200 20 212 16 13 16 13 0 8 -9 -3 -19
-3 -21 1 -2 4 -2 2 -1 -5 2 -6 -4 -14 -12 -17 -9 -3 -12 -1 -9 4 10 16 -5 12
-36 -11 -16 -11 -29 -17 -29 -13 0 4 -9 -2 -21 -14 -11 -12 -24 -20 -30 -17
-16 10 -10 -7 7 -19 13 -10 13 -12 -5 -12 -11 0 -18 4 -15 7 2 4 0 10 -6 14
-5 3 -10 1 -10 -6 0 -7 -3 -10 -6 -6 -4 3 -21 -1 -38 -10 -17 -10 -33 -18 -36
-18 -3 0 -27 -11 -55 -24 -94 -42 -280 -100 -410 -128 -117 -24 -151 -27 -340
-27 -230 -1 -294 10 -430 73 -33 16 -112 38 -175 50 -537 102 -1040 473 -1275
940 -139 277 -198 561 -199 963 -1 130 -4 234 -7 230 -3 -4 -50 -81 -104 -172
-277 -464 -523 -822 -708 -1032 -143 -163 -673 -685 -760 -750 -272 -201 -538
-287 -718 -231 -42 13 -97 17 -244 18 -104 1 -215 7 -245 13 -276 60 -506 210
-708 465 -104 131 -163 258 -201 432 l-18 80 -6 -85 c-12 -165 -7 -729 8 -845
36 -273 120 -445 324 -658 186 -195 405 -314 640 -348 127 -18 376 -6 527 25
314 66 553 190 912 475 251 198 433 380 618 616 117 150 383 551 552 833 l140
233 5 -288 c5 -310 14 -389 67 -588 89 -338 265 -620 527 -846 462 -398 1025
-539 1739 -434 189 28 532 125 601 170 13 9 23 13 23 10 0 -3 10 0 23 7 22 12
28 14 48 17 5 0 7 6 3 13 -5 8 -2 9 9 5 10 -3 17 -2 17 3 0 5 6 7 13 4 8 -3
20 2 27 10 7 9 16 14 20 11 17 -10 20 14 4 29 -8 9 -11 16 -5 16 8 0 11 60 11
186 0 145 -3 184 -12 178 -8 -5 -8 -2 1 10 24 29 48 38 55 20 4 -11 2 -15 -7
-11 -21 8 -37 -6 -27 -23 8 -13 10 -12 10 2 0 11 5 15 15 12 11 -5 13 -10 5
-19 -8 -10 -8 -15 1 -21 8 -5 9 -3 4 6 -6 10 -4 12 9 7 14 -6 15 -3 6 13 -8
15 -8 20 2 20 9 0 9 3 0 12 -17 17 -15 31 4 24 8 -3 13 -2 10 3 -6 9 73 48 87
43 5 -1 6 1 3 6 -7 12 52 44 67 36 6 -4 9 -3 4 1 -12 13 95 85 118 79 14 -4
16 -3 7 4 -10 6 -3 15 26 34 160 106 478 403 647 603 336 400 626 852 924
1445 157 312 500 1056 490 1064 -2 1 -17 0 -34 -4z m-6925 -3164 c0 -2 -46
-43 -102 -91 -184 -155 -350 -252 -511 -299 -86 -25 -207 -39 -207 -24 0 4 9
8 20 8 11 0 81 20 156 45 196 64 367 158 574 314 69 53 70 53 70 47z m4465
-169 c3 -4 2 -5 -2 -2 -3 3 -12 -3 -20 -13 -8 -9 -11 -11 -7 -3 3 7 0 17 -7
22 -10 7 -8 8 8 6 12 -2 25 -6 28 -10z m-86 -16 c10 -7 7 -9 -12 -8 -14 1 -23
5 -20 10 6 9 15 9 32 -2z m110 -30 c7 -5 9 -11 5 -14 -5 -3 -15 1 -22 9 -14
16 -5 18 17 5z m-114 -11 c-3 -5 0 -10 7 -11 18 -1 -37 -25 -63 -28 -8 -1 -8
-5 0 -15 10 -12 8 -17 -7 -25 -14 -7 -19 -7 -19 4 0 7 7 11 16 8 13 -4 13 -3
2 5 -16 11 -44 5 -36 -8 3 -5 0 -12 -6 -16 -8 -4 -9 -3 -5 4 10 16 -3 14 -44
-7 -19 -9 -34 -23 -32 -31 2 -10 0 -11 -10 -2 -11 8 -39 2 -118 -28 -259 -95
-641 -135 -840 -88 -53 12 -49 13 135 19 213 8 315 19 490 54 119 24 355 91
365 103 3 4 11 7 18 8 38 3 43 5 37 14 -4 6 1 7 12 3 16 -6 17 -5 3 12 -14 17
-14 18 6 7 16 -9 28 -7 55 7 43 23 41 23 34 11z m-2 -77 c-7 -2 -19 -2 -25 0
-7 3 -2 5 12 5 14 0 19 -2 13 -5z m102 -263 c3 -6 -1 -7 -9 -4 -18 7 -21 14
-7 14 6 0 13 -4 16 -10z m-24 -33 c-10 -9 -11 -8 -5 6 3 10 9 15 12 12 3 -3 0
-11 -7 -18z m39 7 c0 -3 -7 -12 -15 -20 -16 -17 -18 -14 -9 10 6 15 24 23 24
10z m-132 -63 c11 -7 10 -9 -3 -14 -9 -4 -14 -3 -10 2 3 5 -1 12 -7 14 -7 3
-8 6 -3 6 6 0 16 -3 23 -8z m-60 -36 c-3 -3 -9 2 -12 12 -6 14 -5 15 5 6 7 -7
10 -15 7 -18z"/>
<path d="M51280 13246 c0 -2 7 -7 16 -10 8 -3 12 -2 9 4 -6 10 -25 14 -25 6z"/>
<path d="M51340 13229 c0 -4 -8 -10 -17 -12 -16 -4 -16 -5 -1 -6 15 -1 17 -17
20 -126 2 -97 0 -124 -9 -120 -24 9 -13 -5 16 -19 16 -9 31 -12 35 -9 3 4 6 1
6 -4 0 -8 9 -8 30 0 42 16 32 32 -18 31 l-42 0 0 122 c0 88 -3 124 -12 128 -7
2 11 3 40 0 30 -2 51 0 48 5 -3 5 -19 7 -36 6 -16 -1 -30 1 -30 5 0 3 -7 7
-15 7 -8 0 -15 -4 -15 -8z m70 -279 c0 -5 -2 -10 -4 -10 -3 0 -8 5 -11 10 -3
6 -1 10 4 10 6 0 11 -4 11 -10z"/>
<path d="M67730 13226 c4 -4 16 -4 26 2 16 9 14 10 -8 9 -15 -1 -23 -6 -18
-11z"/>
<path d="M51270 13220 c8 -5 20 -10 25 -10 6 0 3 5 -5 10 -8 5 -19 10 -25 10
-5 0 -3 -5 5 -10z"/>
<path d="M51470 13226 c0 -2 7 -7 16 -10 8 -3 12 -2 9 4 -6 10 -25 14 -25 6z"/>
<path d="M67644 13185 c-4 -8 -9 -13 -13 -10 -4 2 -8 -2 -8 -10 0 -23 13 -18
25 10 6 14 9 25 6 25 -2 0 -7 -7 -10 -15z"/>
<path d="M52139 13048 c-5 -18 -6 -38 -1 -34 7 8 12 36 6 36 -2 0 -4 -1 -5 -2z"/>
<path d="M51250 12991 c0 -10 19 -25 25 -20 1 2 -3 10 -11 17 -8 7 -14 8 -14
3z"/>
<path d="M51492 12964 c9 -3 19 -13 22 -22 3 -12 4 -12 3 3 -1 12 -10 21 -22
22 -15 1 -15 0 -3 -3z"/>
<path d="M51470 12936 c0 -9 5 -16 10 -16 6 0 10 4 10 9 0 6 -4 13 -10 16 -5
3 -10 -1 -10 -9z"/>
<path d="M51415 12920 c-4 -6 5 -10 19 -10 16 0 26 -6 26 -15 0 -13 4 -15 25
-15 3 0 19 -16 36 -35 17 -19 36 -35 42 -35 5 0 0 9 -13 20 -22 19 -17 25 18
21 6 -1 12 3 12 9 0 7 -12 9 -35 4 -22 -4 -35 -2 -35 5 0 6 7 8 17 4 14 -5 13
-3 -3 14 -11 12 -23 16 -30 11 -7 -5 -18 0 -29 12 -20 22 -40 26 -50 10z"/>
<path d="M67705 12880 c-3 -5 -1 -10 4 -10 6 0 11 5 11 10 0 6 -2 10 -4 10 -3
0 -8 -4 -11 -10z"/>
<path d="M67687 12849 c7 -7 15 -10 18 -7 3 3 -2 9 -12 12 -14 6 -15 5 -6 -5z"/>
<path d="M51586 12782 c-3 -5 7 -20 22 -33 18 -16 21 -17 10 -4 -9 11 -17 24
-16 28 0 14 -10 19 -16 9z"/>
<path d="M51630 12786 c0 -2 8 -10 18 -17 15 -13 16 -12 3 4 -13 16 -21 21
-21 13z"/>
<path d="M51715 12639 c-3 -4 2 -6 10 -5 21 3 28 13 10 13 -9 0 -18 -4 -20 -8z"/>
<path d="M51856 12634 c-23 -23 -20 -30 4 -9 11 10 20 20 20 22 0 7 -9 2 -24
-13z"/>
<path d="M51685 12620 c3 -5 8 -10 11 -10 2 0 4 5 4 10 0 6 -5 10 -11 10 -5 0
-7 -4 -4 -10z"/>
<path d="M51869 12613 c-13 -16 -12 -17 4 -4 9 7 17 15 17 17 0 8 -8 3 -21
-13z"/>
<path d="M51697 12589 c7 -7 15 -10 18 -7 3 3 -2 9 -12 12 -14 6 -15 5 -6 -5z"/>
<path d="M51857 12559 c7 -7 15 -10 18 -7 3 3 -2 9 -12 12 -14 6 -15 5 -6 -5z"/>
<path d="M51719 12558 c-7 -23 -4 -38 8 -42 9 -4 11 -2 7 6 -5 8 -1 9 11 4 18
-7 18 -6 0 14 -17 19 -24 23 -26 18z"/>
<path d="M51740 12500 c-9 -5 -15 -21 -14 -37 2 -46 4 -49 15 -30 6 11 7 23 0
34 -7 13 -5 21 7 30 20 14 14 17 -8 3z"/>
<path d="M51804 12463 c-2 -27 -1 -27 14 3 8 15 8 21 -1 21 -7 0 -13 -11 -13
-24z"/>
<path d="M51776 12422 c-3 -5 1 -9 9 -9 8 0 12 4 9 9 -3 4 -7 8 -9 8 -2 0 -6
-4 -9 -8z"/>
<path d="M51713 12379 c2 -19 -1 -41 -7 -49 -9 -13 -9 -13 5 -2 11 8 15 23 13
44 -5 43 -15 50 -11 7z"/>
<path d="M51730 12406 c0 -2 8 -10 18 -17 15 -13 16 -12 3 4 -13 16 -21 21
-21 13z"/>
<path d="M51775 12391 c-3 -5 -2 -12 3 -15 5 -3 9 1 9 9 0 17 -3 19 -12 6z"/>
<path d="M51746 12352 c-2 -4 -1 -14 3 -21 6 -9 11 -10 15 -2 4 6 2 11 -4 11
-6 0 -8 5 -5 10 3 6 4 10 1 10 -3 0 -7 -4 -10 -8z"/>
<path d="M51703 12296 c3 -7 0 -20 -6 -27 -10 -11 -9 -11 5 0 15 11 15 41 1
41 -3 0 -3 -6 0 -14z"/>
<path d="M11413 11856 c-40 -12 -75 -25 -79 -28 -3 -4 -13 -4 -22 -1 -13 4
-14 3 -6 -6 7 -8 33 -3 99 19 48 16 90 32 93 35 8 8 -7 4 -85 -19z"/>
<path d="M11250 11804 c-13 -15 -6 -17 24 -5 17 6 17 8 3 14 -8 3 -21 -1 -27
-9z"/>
<path d="M11175 11801 c-18 -4 -30 -13 -31 -24 -1 -12 -1 -13 3 -2 5 17 20 20
25 5 2 -6 14 -6 33 -1 17 5 23 10 15 10 -13 1 -13 2 0 11 13 9 13 10 0 9 -8
-1 -28 -4 -45 -8z"/>
<path d="M32045 11580 c-3 -5 -1 -10 4 -10 6 0 11 5 11 10 0 6 -2 10 -4 10 -3
0 -8 -4 -11 -10z"/>
<path d="M31903 11435 c0 -8 4 -12 9 -9 5 3 6 10 3 15 -9 13 -12 11 -12 -6z"/>
<path d="M31406 10818 c3 -5 10 -6 15 -3 13 9 11 12 -6 12 -8 0 -12 -4 -9 -9z"/>
<path d="M67940 10596 c0 -2 7 -7 16 -10 8 -3 12 -2 9 4 -6 10 -25 14 -25 6z"/>
<path d="M51625 10424 c0 -12 3 -20 8 -17 4 2 7 11 7 20 0 11 3 13 13 5 9 -8
17 -8 27 0 12 8 12 9 -2 4 -10 -3 -18 -1 -18 4 0 5 -8 8 -17 7 -11 0 -18 -9
-18 -23z"/>
<path d="M67691 10421 c-10 -7 -7 -9 12 -8 14 1 23 5 20 10 -6 9 -15 9 -32 -2z"/>
<path d="M51663 10397 c0 -8 6 -14 14 -14 9 0 10 4 2 14 -6 7 -12 13 -14 13
-1 0 -2 -6 -2 -13z"/>
<path d="M67659 10403 c-1 -4 -1 -12 0 -17 1 -5 -5 -6 -13 -3 -9 4 -18 1 -22
-6 -4 -7 -3 -9 1 -4 5 4 20 0 34 -10 20 -13 23 -13 14 -2 -9 11 -9 19 -2 26 8
8 8 13 0 17 -6 4 -12 4 -12 -1z"/>
<path d="M51740 10390 c-9 -6 -10 -10 -3 -10 6 0 15 5 18 10 8 12 4 12 -15 0z"/>
<path d="M52096 10338 c3 -5 10 -6 15 -3 13 9 11 12 -6 12 -8 0 -12 -4 -9 -9z"/>
<path d="M67657 10339 c7 -7 15 -10 18 -7 3 3 -2 9 -12 12 -14 6 -15 5 -6 -5z"/>
<path d="M32090 10318 c12 -15 13 -31 2 -24 -5 3 -9 -1 -9 -9 0 -18 33 -2 46
24 7 13 6 18 -4 18 -8 0 -12 -4 -9 -9 7 -11 -9 -10 -24 2 -9 7 -9 7 -2 -2z"/>
<path d="M67936 10227 c3 -10 9 -15 12 -12 3 3 0 11 -7 18 -10 9 -11 8 -5 -6z"/>
<path d="M32003 10148 c-4 -7 -8 -16 -9 -20 -1 -5 -2 -11 -3 -15 -1 -5 -5 -2
-10 6 -6 9 -11 10 -15 2 -4 -6 -2 -11 4 -11 6 0 8 -6 4 -12 -4 -7 4 -3 18 10
13 12 25 29 25 37 0 18 -3 19 -14 3z"/>
<path d="M31916 10082 c-3 -4 4 -9 15 -9 23 -2 25 3 4 10 -8 4 -16 3 -19 -1z"/>
<path d="M67689 10087 c-6 -15 -5 -37 1 -37 15 0 21 18 8 24 -7 3 -3 3 10 0
12 -3 22 -2 22 3 0 7 -38 16 -41 10z"/>
<path d="M67717 10053 c-4 -3 -7 -13 -7 -21 0 -18 13 -7 16 13 2 17 1 18 -9 8z"/>
<path d="M31904 10028 l-19 -23 23 19 c21 18 27 26 19 26 -2 0 -12 -10 -23
-22z"/>
<path d="M67686 10025 c-9 -26 -7 -32 5 -12 6 10 9 21 6 23 -2 3 -7 -2 -11
-11z"/>
<path d="M31819 9943 c-13 -16 -12 -17 4 -4 9 7 17 15 17 17 0 8 -8 3 -21 -13z"/>
<path d="M67710 9940 c-9 -6 -10 -10 -3 -10 6 0 15 5 18 10 8 12 4 12 -15 0z"/>
<path d="M31549 9743 c-13 -16 -12 -17 4 -4 9 7 17 15 17 17 0 8 -8 3 -21 -13z"/>
<path d="M32621 9618 c-40 -49 -53 -77 -29 -62 7 4 8 3 4 -4 -4 -6 -12 -9 -19
-6 -14 5 -124 -122 -119 -138 1 -5 -2 -7 -7 -3 -6 3 -15 -3 -20 -14 -6 -11
-34 -43 -61 -71 -28 -28 -48 -56 -45 -61 4 -5 0 -9 -8 -9 -18 0 -136 -132
-137 -153 0 -5 -4 -6 -8 -3 -8 5 -69 -53 -86 -82 -7 -11 -4 -12 12 -3 11 6 24
20 27 32 5 16 10 18 18 10 14 -14 14 -17 16 -152 1 -73 4 -98 13 -93 7 5 8 3
2 -7 -4 -8 -9 -24 -10 -37 -1 -29 -8 -35 -41 -38 -16 -1 -32 -2 -36 -3 -4 -1
-2 -7 5 -15 11 -11 15 -11 25 3 11 14 12 14 13 1 1 -9 12 -2 30 19 23 27 27
38 18 48 -9 11 -7 12 7 6 14 -5 17 -3 12 10 -4 11 -2 14 8 11 13 -6 96 62 92
75 -1 4 16 25 38 47 59 60 110 118 115 129 2 6 14 18 27 29 14 10 22 24 19 32
-3 9 0 11 11 7 13 -5 15 -2 10 11 -4 9 -3 15 2 11 5 -3 27 16 48 42 21 27 44
54 51 61 7 8 9 18 6 24 -4 7 -2 8 4 4 6 -4 19 5 29 21 l18 27 6 -29 c4 -17 7
-47 8 -68 1 -26 5 -36 13 -31 7 5 8 3 3 -5 -9 -16 15 -171 27 -171 5 0 7 -8 4
-18 -8 -25 18 -108 33 -104 7 1 10 -2 6 -8 -3 -6 -10 -8 -14 -5 -5 2 -6 -7 -3
-20 2 -14 8 -22 13 -19 5 3 6 -1 4 -8 -7 -18 52 -210 67 -219 7 -4 16 -5 22
-2 5 3 6 1 2 -6 -4 -6 -12 -9 -17 -6 -13 9 -11 -9 3 -23 7 -7 9 -12 5 -12 -8
0 22 -78 75 -192 23 -49 45 -88 51 -88 6 0 7 -3 4 -7 -17 -16 159 -304 275
-450 203 -257 474 -498 763 -678 125 -78 387 -207 518 -255 469 -170 978 -225
1532 -164 698 77 1358 341 1914 766 l104 79 131 -128 c153 -151 243 -225 381
-316 410 -267 958 -404 1540 -384 466 16 885 125 1350 351 321 156 558 307
793 504 l124 104 50 -59 c409 -471 960 -762 1673 -882 249 -42 416 -55 745
-55 308 -1 439 7 675 40 670 93 1256 319 1780 686 l126 89 105 -101 c296 -285
666 -479 1094 -574 333 -74 720 -85 1070 -31 143 22 340 67 340 77 0 5 5 6 10
3 6 -3 16 -3 23 2 12 8 17 9 51 11 12 2 16 7 12 18 -5 14 -4 15 9 4 12 -10 32
-6 109 21 52 18 93 36 90 41 -3 4 1 5 9 2 8 -3 44 7 80 21 51 21 65 30 60 43
-4 14 -3 14 5 3 8 -11 18 -10 58 10 27 13 51 24 54 25 11 2 68 26 123 52 42
19 56 31 52 42 -5 11 -3 12 5 4 8 -8 20 -7 45 4 19 9 32 18 30 22 -8 12 43 3
65 -13 13 -9 27 -14 32 -11 4 3 8 0 8 -7 0 -8 4 -8 13 -1 9 8 17 8 27 0 12 -8
12 -9 -3 -4 -11 3 -16 2 -12 -4 3 -6 15 -10 25 -10 10 0 22 -5 25 -10 4 -6 11
-8 16 -5 5 4 9 2 9 -3 0 -6 20 -17 45 -25 l45 -16 6 26 c4 16 2 28 -7 34 -10
6 -11 9 -1 9 6 0 12 5 12 10 0 7 -6 7 -19 0 -11 -5 -26 -10 -33 -9 -7 0 -3 4
10 9 21 9 22 14 22 133 l0 123 29 -2 c22 -1 28 2 24 12 -4 11 -9 12 -18 4 -10
-9 -16 -6 -25 10 -6 11 -15 18 -21 15 -5 -4 -16 1 -25 9 -9 9 -19 14 -24 11
-5 -3 -11 -1 -15 5 -9 15 -31 12 -49 -6 -9 -8 -16 -11 -16 -5 0 5 5 13 10 16
15 9 2 25 -21 25 -10 0 -19 4 -19 8 0 10 -61 33 -71 26 -5 -3 -9 0 -9 5 0 6
-5 11 -10 11 -14 0 -238 -109 -271 -132 -14 -9 -29 -15 -32 -12 -3 3 -18 -1
-34 -10 -41 -24 -283 -110 -419 -150 -316 -93 -563 -128 -889 -128 -454 1
-829 83 -1183 261 -205 103 -357 210 -527 373 l-106 101 -42 -31 c-487 -361
-1077 -610 -1697 -716 -266 -46 -402 -58 -732 -63 -418 -7 -665 12 -987 77
-615 124 -1147 413 -1502 816 -46 52 -86 94 -89 94 -3 0 -48 -36 -100 -81
-334 -286 -800 -547 -1248 -700 -340 -115 -583 -159 -935 -166 -522 -11 -908
64 -1292 251 -246 120 -447 267 -646 473 l-96 99 -74 -59 c-41 -32 -137 -100
-214 -152 -512 -342 -1041 -543 -1650 -626 -193 -26 -637 -37 -821 -20 -529
50 -976 205 -1399 486 -142 94 -340 253 -450 362 -131 129 -302 344 -397 500
-28 46 -55 83 -60 83 -4 0 -7 3 -6 8 5 15 -25 71 -35 65 -5 -3 -7 -1 -4 4 4 6
-20 66 -52 134 -33 68 -63 136 -66 152 -4 15 -10 27 -14 27 -4 0 -8 6 -8 13 0
10 -65 217 -80 257 -4 8 -5 21 -4 29 1 7 -2 10 -7 7 -6 -3 -8 2 -6 12 7 25
-20 97 -35 94 -7 -1 -10 2 -6 8 3 6 11 7 17 4 8 -5 9 -1 5 10 -10 26 -47 244
-47 277 0 45 -14 42 -59 -13z m29 -52 c0 -2 -7 -7 -16 -10 -8 -3 -12 -2 -9 4
6 10 25 14 25 6z m-115 -86 c-3 -5 -12 -10 -18 -10 -7 0 -6 4 3 10 19 12 23
12 15 0z m130 1 c3 -5 2 -12 -3 -15 -5 -3 -9 1 -9 9 0 17 3 19 12 6z m-259
-153 c4 -6 3 -8 -3 -5 -6 4 -13 0 -17 -8 -3 -8 -10 -15 -16 -15 -5 0 -2 9 7
20 20 23 20 23 29 8z m-31 -56 c-3 -9 0 -12 8 -9 9 3 13 -4 13 -22 0 -23 -4
-27 -27 -27 -18 0 -25 4 -22 13 3 9 0 11 -11 8 -9 -3 -23 -7 -32 -10 -13 -4
-14 -8 -4 -20 7 -9 10 -18 6 -22 -3 -3 -6 0 -6 8 0 12 -2 11 -10 -1 -8 -12 -9
-9 -7 10 3 17 15 30 40 43 21 9 37 22 37 28 0 8 -6 7 -17 -2 -16 -12 -17 -12
-6 2 16 20 46 21 38 1z m138 -97 c-3 -9 -8 -14 -10 -11 -3 3 -2 9 2 15 9 16
15 13 8 -4z m-251 -12 c-10 -4 -9 -9 5 -19 13 -11 14 -14 3 -12 -29 5 -35 39
-7 37 8 0 8 -2 -1 -6z m43 -13 c10 -11 16 -20 13 -20 -3 0 -13 9 -23 20 -10
11 -16 20 -13 20 3 0 13 -9 23 -20z m-129 -84 c2 -12 -4 -13 -35 -7 -2 1 2 8
9 16 14 16 23 13 26 -9z m41 17 c-4 -3 -2 -11 3 -18 7 -8 5 -12 -4 -12 -8 0
-12 7 -11 16 5 22 4 21 12 21 3 0 3 -3 0 -7z m188 -40 c-2 -10 -4 -20 -5 -23
-1 -3 -2 -8 -2 -12 1 -3 -6 -12 -15 -20 -14 -11 -16 -11 -8 2 5 8 11 23 12 33
2 14 0 16 -16 8 -13 -7 -23 -6 -37 5 -14 10 -15 14 -4 12 8 -2 18 -7 22 -13 5
-6 8 -5 8 3 0 7 4 11 8 8 4 -2 14 -1 22 5 19 11 19 12 15 -8z m-59 -35 c4 -7
3 -8 -4 -4 -7 4 -12 2 -12 -3 0 -6 7 -11 16 -11 14 0 14 -2 3 -16 -12 -14 -14
-14 -21 6 -11 31 3 53 18 28z m-76 -58 c0 -5 -4 -10 -10 -10 -5 0 -10 5 -10
10 0 6 5 10 10 10 6 0 10 -4 10 -10z m65 -10 c3 -5 1 -10 -4 -10 -6 0 -11 5
-11 10 0 6 2 10 4 10 3 0 8 -4 11 -10z m-50 -60 c3 -6 -1 -7 -10 -4 -10 4 -14
2 -10 -8 3 -8 0 -20 -8 -26 -11 -9 -14 -8 -14 3 0 8 5 11 10 8 6 -4 8 0 4 9
-9 25 15 40 28 18z m18622 -1315 c0 -8 -4 -12 -9 -9 -5 3 -6 10 -3 15 9 13 12
11 12 -6z m50 0 c0 -8 -4 -12 -9 -9 -5 3 -6 10 -3 15 9 13 12 11 12 -6z m72
-32 c2 -1 -9 -1 -23 1 -14 1 -29 6 -34 11 -4 4 -1 5 6 1 7 -4 12 -2 12 5 0 8
5 8 18 -2 9 -7 19 -14 21 -16z m-245 -28 c-4 -8 -11 -12 -16 -9 -6 4 -5 10 3
15 19 12 19 11 13 -6z m-49 -14 c3 -5 2 -12 -3 -15 -5 -3 -9 1 -9 9 0 17 3 19
12 6z m336 -34 c-10 -9 -11 -8 -5 6 3 10 9 15 12 12 3 -3 0 -11 -7 -18z m99
10 c0 -6 -3 -7 -6 -4 -4 3 -15 2 -25 -3 -15 -9 -35 0 -25 11 10 9 56 6 56 -4z
m-535 -76 c-3 -6 -11 -11 -16 -11 -5 0 -4 6 3 14 14 16 24 13 13 -3z m319
-137 c3 -8 2 -12 -4 -9 -6 3 -10 10 -10 16 0 14 7 11 14 -7z m136 -66 c0 -6
-6 -5 -15 2 -8 7 -15 14 -15 16 0 2 7 1 15 -2 8 -4 15 -11 15 -16z m75 -28
c-3 -5 -12 -10 -18 -10 -7 0 -6 4 3 10 19 12 23 12 15 0z"/>
<path d="M32360 9234 c0 -17 22 -14 28 4 2 7 -3 12 -12 12 -9 0 -16 -7 -16
-16z"/>
<path d="M67845 9651 c-3 -5 -2 -12 3 -15 5 -3 9 1 9 9 0 17 -3 19 -12 6z"/>
<path d="M67696 9594 c13 -10 14 -14 4 -11 -10 3 -16 -2 -16 -13 0 -16 2 -17
22 -1 19 14 20 17 5 28 -24 18 -38 16 -15 -3z"/>
<path d="M67719 9568 c-5 -18 -6 -38 -1 -34 7 8 12 36 6 36 -2 0 -4 -1 -5 -2z"/>
<path d="M67680 9525 c-11 -13 -10 -14 4 -9 9 3 16 10 16 15 0 13 -6 11 -20
-6z"/>
<path d="M67620 9520 c-9 -6 -10 -10 -3 -10 6 0 15 5 18 10 8 12 4 12 -15 0z"/>
<path d="M51607 9489 c7 -7 15 -10 18 -7 3 3 -2 9 -12 12 -14 6 -15 5 -6 -5z"/>
<path d="M51526 9465 c4 -8 8 -15 10 -15 2 0 4 7 4 15 0 8 -4 15 -10 15 -5 0
-7 -7 -4 -15z"/>
<path d="M51660 9460 c-8 -5 -10 -10 -5 -10 6 0 17 5 25 10 8 5 11 10 5 10 -5
0 -17 -5 -25 -10z"/>
<path d="M32135 9031 c-3 -5 -2 -12 3 -15 5 -3 9 1 9 9 0 17 -3 19 -12 6z"/>
<path d="M32127 8992 c6 -14 4 -15 -9 -4 -11 9 -18 10 -23 2 -3 -5 -15 -10
-25 -10 -10 0 -22 -5 -26 -12 -4 -6 -3 -8 4 -4 6 3 14 1 18 -5 4 -8 9 -7 15 2
4 8 17 15 29 15 36 2 40 4 40 13 0 5 -7 11 -14 14 -11 4 -13 1 -9 -11z"/>
<path d="M32043 8935 c4 -8 2 -17 -3 -20 -6 -4 -10 -1 -10 6 0 7 -2 10 -5 7
-3 -3 -2 -13 1 -22 5 -14 9 -15 15 -4 5 7 9 -46 9 -125 0 -80 -4 -136 -9 -133
-5 4 -7 -4 -3 -16 5 -19 6 -20 12 -4 3 10 9 17 13 17 4 -1 9 62 10 139 1 97
-1 139 -9 136 -6 -2 -11 2 -11 9 0 7 7 11 16 8 14 -4 14 -4 1 6 -21 15 -33 14
-27 -4z"/>
<path d="M31953 8855 c-9 -10 -6 -15 13 -24 23 -10 24 -10 13 12 -6 12 -12 23
-13 23 0 1 -6 -4 -13 -11z"/>
<path d="M19033 8780 c-28 -11 -30 -19 -3 -17 11 1 22 7 24 14 3 7 4 13 3 12
-1 0 -12 -4 -24 -9z"/>
<path d="M51256 8721 c-4 -5 0 -12 6 -14 9 -4 8 -6 -3 -6 -9 -1 -16 -7 -16
-15 0 -8 7 -14 16 -13 11 0 16 11 16 29 1 28 -9 37 -19 19z"/>
<path d="M18840 8685 c0 -2 6 -8 13 -14 10 -8 14 -7 14 2 0 8 -6 14 -14 14 -7
0 -13 -1 -13 -2z"/>
<path d="M31806 8682 c-3 -5 1 -9 9 -9 8 0 12 4 9 9 -3 4 -7 8 -9 8 -2 0 -6
-4 -9 -8z"/>
<path d="M51205 8681 c-3 -6 5 -15 17 -21 21 -10 22 -10 5 3 -14 11 -15 16 -5
20 9 4 9 6 1 6 -6 1 -14 -3 -18 -8z"/>
<path d="M51260 8649 c0 -5 5 -7 10 -4 6 3 10 8 10 11 0 2 -4 4 -10 4 -5 0
-10 -5 -10 -11z"/>
<path d="M51285 8640 c-3 -5 1 -10 10 -10 9 0 13 5 10 10 -3 6 -8 10 -10 10
-2 0 -7 -4 -10 -10z"/>
<path d="M51373 8637 c-4 -6 3 -8 19 -5 16 3 25 0 25 -9 0 -9 -7 -11 -21 -7
-16 5 -18 3 -10 -5 13 -15 77 -23 68 -10 -3 6 -12 8 -20 5 -8 -3 -11 0 -7 9 3
8 9 13 13 10 4 -3 10 1 13 8 6 15 -70 20 -80 4z"/>
<path d="M51486 8638 c3 -4 0 -8 -5 -8 -6 0 -10 -11 -9 -25 3 -29 10 -31 28
-10 11 13 10 14 -5 9 -13 -5 -16 -3 -13 7 3 8 12 14 20 13 8 -1 15 4 15 10 0
7 -8 12 -18 12 -10 0 -15 -4 -13 -8z"/>
<path d="M18777 8619 c7 -7 15 -10 18 -7 3 3 -2 9 -12 12 -14 6 -15 5 -6 -5z"/>
<path d="M18736 8611 c-3 -4 4 -17 17 -27 22 -19 22 -19 4 2 -9 11 -14 24 -10
27 3 4 4 7 0 7 -3 0 -8 -4 -11 -9z"/>
<path d="M18772 8597 c10 -8 14 -18 10 -22 -4 -5 -1 -5 6 -1 17 10 15 14 -10
26 -21 10 -21 10 -6 -3z"/>
<path d="M31666 8588 c3 -5 10 -6 15 -3 13 9 11 12 -6 12 -8 0 -12 -4 -9 -9z"/>
<path d="M18720 8581 c0 -7 -5 -9 -12 -5 -7 5 -8 3 -3 -5 5 -9 10 -10 18 -2 6
6 8 14 4 18 -4 3 -7 1 -7 -6z"/>
<path d="M51620 8560 c-9 -6 -10 -10 -3 -10 6 0 15 5 18 10 8 12 4 12 -15 0z"/>
<path d="M51736 8558 c3 -5 10 -6 15 -3 13 9 11 12 -6 12 -8 0 -12 -4 -9 -9z"/>
<path d="M18819 8543 c-13 -16 -12 -17 4 -4 16 13 21 21 13 21 -2 0 -10 -8
-17 -17z"/>
<path d="M31939 8543 c-8 -9 -9 -14 -2 -10 6 4 13 2 15 -5 3 -9 6 -9 12 0 4 7
2 12 -4 12 -6 0 -8 5 -5 10 10 16 -1 11 -16 -7z"/>
<path d="M18656 8538 c3 -5 10 -6 15 -3 5 4 9 2 9 -2 0 -5 -9 -14 -20 -20 -16
-11 -18 -10 -14 2 4 8 1 15 -6 15 -19 0 -7 -33 13 -36 11 -1 16 0 13 3 -3 4 3
12 14 20 27 19 25 29 -4 29 -14 0 -22 -4 -20 -8z"/>
<path d="M31624 8538 c-4 -7 -3 -10 1 -5 5 4 18 -1 29 -10 21 -18 21 -18 2 5
-22 26 -23 26 -32 10z"/>
<path d="M51710 8542 c0 -5 7 -9 15 -9 8 0 12 4 9 9 -3 4 -9 8 -15 8 -5 0 -9
-4 -9 -8z"/>
<path d="M18603 8497 c0 -8 6 -14 14 -14 9 0 10 4 2 14 -6 7 -12 13 -14 13 -1
0 -2 -6 -2 -13z"/>
<path d="M18684 8498 c-4 -7 -3 -8 5 -4 6 4 20 2 29 -6 15 -12 16 -11 3 5 -16
20 -27 22 -37 5z"/>
<path d="M18569 8473 c-13 -16 -12 -17 4 -4 9 7 17 15 17 17 0 8 -8 3 -21 -13z"/>
<path d="M18606 8455 c-3 -8 -3 -15 0 -15 3 0 12 7 20 15 13 13 13 15 1 15 -8
0 -17 -7 -21 -15z"/>
<path d="M31686 8298 c3 -4 11 -5 19 -1 21 7 19 12 -4 10 -11 0 -18 -5 -15 -9z"/>
<path d="M31616 8238 c3 -5 10 -6 15 -3 13 9 11 12 -6 12 -8 0 -12 -4 -9 -9z"/>
<path d="M18852 8171 c-30 -25 -31 -28 -10 -24 13 2 28 15 35 29 6 13 10 24
10 24 -1 -1 -17 -14 -35 -29z"/>
<path d="M18840 8129 c0 -5 5 -7 10 -4 6 3 10 8 10 11 0 2 -4 4 -10 4 -5 0
-10 -5 -10 -11z"/>
<path d="M18777 8124 c-10 -11 -8 -26 2 -19 5 3 12 1 16 -5 8 -13 25 -13 25 1
0 5 -4 8 -9 4 -6 -3 -14 2 -18 10 -5 9 -12 12 -16 9z"/>
<path d="M18695 8050 c-3 -5 -1 -10 6 -10 8 0 7 -5 -2 -17 -13 -16 -12 -17 3
-5 9 8 14 20 11 28 -6 17 -10 17 -18 4z"/>
<path d="M18605 7989 c-4 -6 -4 -13 -1 -16 3 -4 6 -1 6 6 0 7 5 9 10 6 6 -4 7
-11 4 -17 -4 -7 -2 -8 5 -4 9 6 9 11 0 22 -14 17 -16 17 -24 3z"/>
<path d="M18586 7951 c-4 -5 -2 -12 3 -15 5 -4 12 -2 15 3 4 5 2 12 -3 15 -5
4 -12 2 -15 -3z"/>
<path d="M18728 7758 c8 -10 10 -23 6 -30 -6 -9 -3 -9 9 1 10 8 16 14 15 15
-2 1 -12 8 -23 16 -18 14 -19 14 -7 -2z"/>
<path d="M18796 7752 c-2 -4 4 -8 14 -8 10 0 16 4 14 8 -3 4 -9 8 -14 8 -5 0
-11 -4 -14 -8z"/>
<path d="M18747 7711 c-14 -17 -28 -28 -31 -25 -3 2 -4 1 -1 -3 13 -16 35 -9
62 21 l28 31 -32 -29 c-37 -33 -45 -25 -11 11 12 13 19 23 16 23 -4 0 -17 -13
-31 -29z"/>
<path d="M18670 7681 c-8 -6 -18 -7 -24 -4 -5 3 -6 1 -2 -5 5 -9 13 -9 27 -2
10 6 19 13 19 15 0 7 -3 6 -20 -4z"/>
<path d="M18674 7655 c-12 -8 -24 -11 -28 -8 -3 3 -6 3 -6 0 0 -3 9 -11 20
-17 16 -9 19 -8 13 7 -5 12 -2 15 9 11 9 -4 15 0 15 8 0 17 2 17 -23 -1z"/>
<path d="M18640 7610 c-9 -6 -10 -10 -3 -10 6 0 15 5 18 10 8 12 4 12 -15 0z"/>
<path d="M18575 7571 c-3 -5 -2 -12 3 -15 5 -3 9 1 9 9 0 17 -3 19 -12 6z"/>
<path d="M51275 7449 c4 -5 10 -7 15 -4 4 2 13 -9 20 -25 12 -28 40 -42 40
-20 0 6 5 10 11 10 5 0 7 -5 4 -10 -4 -7 3 -8 22 -4 39 9 57 27 18 19 -24 -5
-27 -4 -15 5 13 10 13 11 0 7 -8 -2 -27 2 -41 9 -34 17 -81 26 -74 13z"/>
<path d="M51280 7420 c0 -5 5 -10 10 -10 6 0 10 5 10 10 0 6 -4 10 -10 10 -5
0 -10 -4 -10 -10z"/>
<path d="M51467 7404 c-14 -15 -142 -22 -168 -10 -11 5 -16 2 -16 -9 0 -9 6
-14 14 -11 7 3 20 3 28 0 12 -5 15 -28 15 -124 0 -100 2 -119 16 -124 9 -4 19
-4 22 -1 3 3 0 5 -6 5 -13 0 -18 239 -4 241 30 3 50 8 66 14 12 5 17 5 13 -2
-3 -5 0 -10 8 -10 8 0 13 3 10 5 -3 3 0 11 6 19 11 13 8 19 -4 7z"/>
<path d="M51746 7332 c-3 -5 1 -9 9 -9 8 0 12 4 9 9 -3 4 -7 8 -9 8 -2 0 -6
-4 -9 -8z"/>
<path d="M51856 7328 c3 -5 10 -6 15 -3 13 9 11 12 -6 12 -8 0 -12 -4 -9 -9z"/>
<path d="M51980 7320 c-9 -6 -10 -10 -3 -10 6 0 15 5 18 10 8 12 4 12 -15 0z"/>
<path d="M52040 7320 c0 -5 5 -10 11 -10 5 0 7 5 4 10 -3 6 -8 10 -11 10 -2 0
-4 -4 -4 -10z"/>
<path d="M51685 7310 c-3 -5 -1 -10 4 -10 6 0 11 5 11 10 0 6 -2 10 -4 10 -3
0 -8 -4 -11 -10z"/>
<path d="M51740 7300 c0 -5 5 -10 11 -10 5 0 7 5 4 10 -3 6 -8 10 -11 10 -2 0
-4 -4 -4 -10z"/>
<path d="M51204 7118 c-4 -7 -4 -10 1 -6 4 4 14 3 22 -4 7 -6 16 -8 20 -5 3 4
12 2 18 -3 9 -7 21 -7 38 1 23 10 29 8 52 -17 26 -29 26 -29 19 -4 -4 14 -14
29 -23 35 -20 12 -112 15 -105 3 3 -4 0 -8 -5 -8 -6 0 -11 5 -11 10 0 14 -17
12 -26 -2z m96 -8 c-18 -12 -30 -13 -30 -2 0 4 10 9 22 9 18 2 20 0 8 -7z"/>
<path d="M51399 7117 c7 -7 14 -8 21 -1 6 6 2 10 -12 11 -16 2 -18 -1 -9 -10z"/>
<path d="M51380 7104 c0 -22 24 -52 44 -56 20 -4 24 -2 16 7 -5 6 -7 15 -3 18
3 4 1 7 -5 7 -7 0 -12 5 -12 11 0 5 5 7 10 4 6 -3 10 -2 10 3 0 5 -13 9 -30 9
-16 0 -30 -2 -30 -3z"/>
<path d="M51311 7091 c-10 -7 -8 -10 8 -16 27 -8 36 -2 18 13 -7 6 -18 7 -26
3z"/>
<path d="M51494 7038 c-16 -7 -16 -8 4 -4 12 2 22 -1 22 -6 0 -7 5 -6 13 1 8
6 17 9 20 6 4 -3 5 -2 2 2 -8 10 -39 11 -61 1z"/>
<path d="M51604 7038 c-3 -4 -3 -9 0 -9 3 -1 9 -2 14 -3 4 -1 18 -8 32 -16 31
-17 52 -22 44 -8 -3 5 -9 7 -12 4 -11 -11 -33 16 -22 29 7 8 1 11 -21 11 -16
0 -32 -3 -35 -8z"/>
<path d="M51726 7041 c-19 -7 -19 -8 0 -13 13 -3 21 0 21 8 0 8 -1 14 -1 13
-1 0 -10 -4 -20 -8z"/>
<path d="M51800 7040 c-9 -6 -10 -10 -3 -10 6 0 15 5 18 10 8 12 4 12 -15 0z"/>
<path d="M51725 6990 c3 -5 8 -10 11 -10 2 0 4 5 4 10 0 6 -5 10 -11 10 -5 0
-7 -4 -4 -10z"/>
</g>
</svg>
